<svg xmlns="http://www.w3.org/2000/svg" viewBox="0 0 1713 1080"><path d="M491 1021v-2l13-17 6-7q2-5 7-7l-5 7-6 7-4 5-6 9zm39-140 1-1zm1-1 2-2zm-12-1v-1h1zm14-1 1-1zm-13 0 2-2zm6-6 2-2z"/><path d="m523 833 3-7q-7 3-6 8l-1 1q-1 2 1 2v2l3 1v3q3-1 3-4l11-12-4 6q-3 4-4 9c4-3 4-9 9-9l-5 6q-2 1-2 5 3 0 3-2l6-8v1l-6 9h4l3-4 1 1-3 3 13 1 8 1 8 4q-3 6-9 5 2 14 12 26l9 11 11 7-7 2-22-2-10-1-13-2q-4 0-6 3-3-2-7 0l2 3q3 0 2 3l-8 1 8 3h8l1-5 2 1 2-1q2 1 1 4l-3 2c-1 6 3 13 0 19l-2-6q-4-6-4-11l-9-1-10 1q-8-2-11 4v-4c-5-2-6 3-11 7q2-4 5-6-6-1-8 3l-7 9q3-7 8-12l-7 2-2-2-9 1-2-2q-3 0-3 2l-1 1-2 4-1 2 2 2q-3 2-1 4 4 1 4-2l2-1v3c4 2 5-7 12-11l-7 10h6l21-1 7-7q-2 5-6 7 8 2 12-3v3q6 1 8-2c2 5 9 1 9 3l2 3-23 3h-10l-7 2q-4-3-7 1l-1 1h6l10 1 31 1q0 3-3 1-4 3-7 1l-11 1-8 1v2l31-1 2-9-1-1q-2-3 0-5 2 3 1 4l1 1c3 3 4 11 0 12v3h38l5-1 12 1-1-3-44 1q-2 1-5-2h17l7-1 25-1q-5-2-12-1l-9-1h-27l-3-1q-1-2 1-2h26l9 2h19l-1 4 2 1q2-13 15-18 1-4-1-8l1-6 2 7q2 8-1 14l-3-3-4 4 3 2q-10 4-8 9l3 1q-1 3-3 2-4 1-6 4c-2 4 1 8 1 11v35l-3-10v-16q-2-5-1-11l-1-6q3-1 2-3l-1-2h-19l-9 2-26-2-4 2-1 4 1 8 1 10-1 8q-1 6 3 11c6 6-3 10-3 19 9 6 4 14 5 15l2 1v30h-1v-28q-4-1-3-3c-1-3 5-5-4-14q1-1-2-2v33l-1-1-1-29v-21q2-4 0-10-1-1 1-4 2-5 0-11v-17h-15l-7 1h-5l-8 11q-2 4-6 6l6-9 6-7q-3-2-5 1l-8 11q2-7 7-12-3-2-6 1-2-2-5-2l1 12 2 3v4q3-2 1 1-4 4 1 8-4 3-1 7l7-9q2-5 7-8l-5 8-9 12v6l4-4-4 8 2 6 8-11q2-5 7-7l-4 4-3 5-8 12-1 10q-2 1 0 2l-3 9h-2v37q1 7-1 13h-2v-29l1-19v-18q3-1 4 1l-3-14q-2-12-2-25l-1-21q1-4-1-10l-2-8-1 1q-1 2-8-1v-7q-4 2-7-1l-2-4-2-14q0-4 4-3l19-1q1-5-2-6 3-3 6 0l5-4 10-5q4-1 6-6-1 3-5 2l9-10 5-11q3-6 3-13c0-3-6-5-9-5l3-4 4-2-3-12q6-25 31-22 5 1 7 6l1 1 6 4q9 12 1 24-2 2-4-1 6-10 2-20l-6-6-1-1c-7-5-19-4-23 0q-8 4-9 13l4-4 7-8c0-3 3-1 1 0q-3 4-3 8l7-7-11 15zm38 19-1-3h-14l6 3zm-1 45h7l16 1q-11-4-16-14l-6-13q-5-7-5-16h-11q-4 4-3 11v15c0 4-3 9-1 12q3 3 6 1zm-26-38q0-2-2-1l-3 1 1 3q-6 1-9 9l-2 7q-3 1 0 1l-3 5-9 11h-6c-3-1-3 3 0 2l14-1 4-2q0 3 2 2c4-2 9 2 18-1-3-2 1-7-1-13q0 2-4 3l5-7q2-2-1-5l-2 2c0-4 5-5 4-9l-9 9-5 1 11-11 3-3q2-2-1-3l-9 8 1-3 2-2 2-2 4-4q-3 0-5 3m35 25q2 2 1 0zm2 2h-1m-81 13v2l1-1zm21 5 5-2q3-1 0-2l-5 1c-4-1-3 4 0 3m13-4q-5-1-5 2 4 1 5-2m-17 1q-5-1-6 2 5 2 6-2m-14 3a2 2 0 1 0-3 0zm7-2h-6q-1 3 1 3 3 1 2-1 2 1 3-2m20 4q-1-3-3 1h-4q1 3 7-1m-12 1h-2zm30 2-1 2q3 1 1-2m-70 4-5-1q-2 1 0 4 0 2 2 3 0-4 2-5zm7 19q-1-2-3 1 1 3 3-1m13 3-6-1q-2 1-1 3 4 1 6-1zm-12 1q3 3 2-1zm30 6-6-1h-10l-7-1 2 6q0 3 2 3l1-1-1-3 3-1h9l6-1zm25 5q-5-4-8 1 4 2 8-1m8-1h-7l2 3zm-51 3q2 2 5-1-2-2-4 1zm13-1h-6q3 4 6 0m5-1q-5 0-1 2 3-1 1-2m8 1q-4-2-6 0zm7 0q-5-2-5 0zm13 60 5-9-4-7c-2 1-2 9-1 16m-5-138 1-1z"/><path d="m470 926-3-3-1-3 6-5c0 4-4 5-2 11m2-11q0-2 2-1 0 2-2 1m57-46 1-2zm2-5-1-2h2zm-8-28-3 1v-3l3-1zm11 41 2-2zm-15 17q-1-2 1-2zm16-34-2 1 1-2zm-13 16 1-1zm1-1 2-2zm-3 17q1-4 6-7 0 4-3 5zm6-7 1-1zm7-23h-1l1-1zm-8 11 1-1zm2 11 2-2zm2-2 1-1zm-3-43-3 1v-4c6-3 8-11 13-13l-8 12zm73 241-1-4-1-25-2-19 2-11 1 7 1 23 1 11zm350-764q0 2-2 1l-1-1zm-488 5-2-1v-2q2 1 2 3m-2 1-1-1v-1h1zm-1 2-1-1 1-2zm-2 1 2-1zm164 290-3 1 3-10c3 2-1 5 0 9"/><path d="M433 216v3l-1 3-2 2-5 9-4 9-1 1 1 4 5-9 2-2-2 5-7 16v-3q-2 1-2 3-3 2-2 7l-2 3-1 4-2 3-1 1q-1 2 1 2c-2 10-8 19-10 31q4-6 5-13l7-12-7 19-6 12-5 8v1l-5 11-1 4h-1l-1 4v1c-1 6-6 13-6 18q0 7-4 13l-4 10-3 8-10 33-5 17-2 12-7 30q6-6 7-14l4-13 9-32 4-17q3-3 2 2l-11 41q2 4 0 10l-4 7-3 9-4 6-7 24-2 8q-4 4-3 11 2-4 7-6 4 0 0 3-4 1-6 6 6-6 13-3 3-10 3-18l2-10q2-4 0-7-4 1-1-2 0-3 2-5-1 3 1 6 2 7-1 14l-1 10q-1 14-5 27l-5 21q0 4-4 5l3-9 3-14 3-15q-3-3-8 0l-7 3 6 3-7 1c-1 5-3 13-5 16q-1 4 4 7l6-1c3-6-3-8-5-14q8 2 9 10 0 5-3 7l-8 2 1 4c7 2 10 1 6 5l-5-2-2 14v7l-5 13q-2 3-1 6l-3 5-3 9-9 22-5 16q-3 6-4 14 4-1 3-6l1-1 7-22 8-19 10-27 4-10q7-6 3-17h2c6 9-3 18-5 25l-5 13q4-1 4-5 7-11 11-24 4-7 6-16l2-13 8-19c6-16 2-42 14-63l-6-2c-6-7 0-16 1-26-5 8-6 17-8 18v-5l5-13 1-6q0 3 2 4v-3q3-2 2-6l4-9q2-1 3 1l-1 3 1 11 6-7 7-10 11-13 10-10 28-28 6-4 14-9q3 1 6-1l9-5 2 1-10 6-10 5q-10 5-16 13l14-10 18-9 8-7q11-11 25-15 5-4 12-3c7 2 20-4 29-9l38-22 13-9q-7 1-12 6l-25 14-19 9-5 3q-1 2-3 0l9-8q-7 4-15 4-9 1-16 6-6 2-8 7l-32 13-10 4-22 14-13 10-8 7q-5 4-8 9l-8 7-1 4-6-2c-3 0-4 7-11 9q1-4 4-4c3-2 0-6 0-7q0-9 9-13l2-18 1-8 5-20 7-18q4-8 5-17l6-18c1-4 1-15 8-23l5-5q7-10 9-21l6-17-1-1-5 9q0 7-7 9c6-9 12-18 10-26l5-11 5-8 10-14 15-23 16-27q3-7 8-11l10-12q14-18 30-35l9-9q1-2 4-1 1-4 5-4l-13 14q3-2 4 0-5 4-3 10-3 1-3-2-4 1-6 4l-11 13q-1 6-6 10l-16 20q-12 12-19 27l-13 19q-5 9-8 20l-8 17-6 14-7 16q-5 15-14 30l-4 12-5 13-5 17-3 12q4-3 7-3 3 4 2 6c2 0 10-5 14 2l4 14c1 2 6-2 8 2q1 3-2 7c9-6 18-8 22-14l1-1 17-18 12-16 14-15 5-6 4-6 5-5 5-7 5-8 6-7 14-22q2-5 6-8c2-2 15 2 24 5 4 1 14 1 13 4l-2 1 7 13 5 9 2 2 2-2 8-10-10-20q0 3-2 3c-5 0-2-9-2-16l1-13-13-3-38-9q-1-3-3-1-2 4 0 7l14 3 26 5 9 3q1 3-2 2l-11-3-37-8v23l-7 6-31 41-5 7-6 7-7 8-28 28-23 22q-4 2-3-2l2-1 1-2 1-1 2-1 1-2 2-1q3-1 6-5 2 0-1-2v-1q-5 0-7 5l-1 2c-3 0-5 5-9 6l17-17 1 3 3-2q-1 2 2 1l9-9q-2 2-6 2l2-2 1-2 3-1q6-2 11-8l5-7-4 2q0-2 2-3l5-3 4-4q3-1 0-2 2-4 6-4v-3l2-3 1-1 3-3h3l1-2-1-1q-3 3-1-1 1-2 2 0l1 1 3-5-4 3 1-4q2 1 2-2c2-5 9-6 12-12q2-1-1-2 10-5 7-10 5-2 7-7l4-4q-7 0-8 6c-5 4-5 8-8 8l8-11q-2-2-4 1l-8 9-9 12-7 9-6 9q-3 1-1 3l4-2-4 5-1-2q-4 0-4 4l-13 13-11 11-3 4-21 21-6 7q-1 3-5 2l4-6 7-8 21-22 7-8 8-11 6-7 9-10 4-7c1-2 6-5 6-9l-8 9-6 7-10 12-11 11-10 11-6 7-12 13 11-14 10-11 12-13 9-11 8-9 9-11q3-6 10-7l3-4c-5 2-10 1-15 6v-2l-21 6 4 5q0 2 3 1-2 7-8 10l-1 6-1 1-2 2-6 2q-3 1-4 4l-15 15h-1l11-11-4-3-4 2 2-4q-1-3-4-3 1 1-2 1c3-4-3-8 1-11l2 4 2 1 1-1v-2l-3-4 2-1q7 2 10 9 7 2 12-5-2-3-6-4-5-4-11-4l-2-4-11 4v-2l8-3v-2h3l1-1c2-1 1-6-2-7q-3 1-7-1l2-4h8c5-7 14-11 16-8v4l-6 13 16-5 26-6 10-4 6-8 7-3v-18l-3-4q1-3 5-4c3 0 5-6 16-7l34 8 17 5q3 3 8 2l3 2-2 3v14q-1 4 2 7l9 19 7-13 5-19q5-17 6-35l-2-8-1-12-2-8-1-7-1-1q2 1 1-1l1 2q4 8 4 20l2 8 2 14c4-3 5-12 6-16l4-12 3-8q5-15 14-27l-7 16-4 9q-2 4-1 7-4 4-3 9-2 1-2 4l-1 2-4 11q-1 3 1 4l-7 27-5 18-6 14-5 11 4 8 22-15 7-4 10-8 10-10 15-16 8-9 11-12 7-10 9-10 8-10 9-11q8-9 7-25V96c1-20 7-27 7-31l-2-15c1-8 0-19 8-21s16 9 16 22c7-8 17-11 19-4 3 9-4 20-14 24l9-11c3-3 4-10 1-13-4-3-10 2-12 6q-2 5-6 8l-1-15q0-8-8-14-6-1-8 6l-2 9 1 14c3-4 2-8 6-11l-3 13-4 12q-3 15-2 30v16l5-4c-1 1 2 2 1 0l2-2 1-1 2-2 1-1 2-1 1-2 2-1 1-2 1-1 2-2 1-1q3 0 2 1l-18 19-7 8q-5 15-14 29c-1-8 4-12 5-19l-15 18q-8 8-14 19l6-2 5-3 16-3q-1 3-3 3l-8 3q8 0 15-3 13-4 26-5l14-1 5 1 18 6 21 6c10 4 20-1 21 1l-2 2h-18l-29-8c-6-2-11-6-23-5l-9 1-13 2-12 3-19 4q-8 2-12 10l-8 10-27 29-7 8q11 1 18-3l1-1h2l1-1 9-1 11-2q14-3 33-2c-2-9 6-21 12-25q4 0 4 5l-1 9 13-3q2-1 3 1c2 2-2 9-9 13l16-2c1-2 4 0 1 2l-9 2-10 2-9 1-1 5q-3 0-2-3l-1-3c-4-2-21-2-32 1l16 9 15 8c7 4 17 5 23 11q6 6 13 4l1-5c8-7 27-7 24-2-1 1-16-2-23 7q10 3 20 0 2 2 0 3l-2 1q-6 0-9 3c-8 1-16-4-23-7l-11-5-1 1q6 3 11 11l2 6h1v3h1c3 4 1 14 13 18q-2 9 6 14 4 1 6 5-13-1-15-12 0-5-4-6-7-8-7-18l-1-1-1-2q-4-8-11-13l-11-10-13-7-16-9c-7 6-5 19-1 19 4 1 4-4 8-7q0 7-5 10-6 1-8-5-3-10 4-18-7-4-15-2c-12 4-33 9-42 15l-10 3-6 2-3-3c-4 6-11 8-15 14q4 0 5-2h2l-5 4q0 5 4 8h15l16 3 15 2q10 3 18 11l25-4c1-7 9-15 14-13q6 1 5 6c-2 8-11 5-14 9l5 4q2-4 5-2 3 1 3 5l-11-2q-8-3-16-1l-19 1q2 4 6 7l11 9 6 6 3 1c2 0 4-4 8-3 8 2 13-1 12 4l-17 1 14 5h9v3q-4 2-12 0l-12-5-8 9h-4l1-3 8-9q-7-3-11-8l-7-5-17-11q4-4 10-4c-5-6-18-10-25-7l-8-2q-13-4-25-2l16 32 10 18 13 20 17-4 21-3q-2-5 1-10c4-1 3 9 7 9l19-2h9q4 1 7-1l3-6c5 0 7 7 17 4 3-6 9-8 10-16q1-2 3 1c1 7-7 11-8 15l-2 13c-1 3 3 3 3 0l5-5q2-3 3-1l1 12q3 0 5 2 5-8 6-17l-7-15-6 16q-1-11 5-20l4 4 4-1 2 13 5 11q3 3 4 8l-1 4q-1 3 3 3 0-5 3-8c3-4-4-10-4-21l-8-7 1-1c2-1 8 4 9 8l6 17 1 2-3 6c-5 4-1 11-6 11l-3-2-4-10q-1-5-5-7l-5 8q-1 3-4 3-5-3-9-14-2 3 1 7-7 2-12 0l2-7 1-8h-6v9l-25 3q-3-2-7 0-6 2-10 1-4 4-4 7c5-2 9 0 13-2l6-1h14v1l-13 1-4 2q-6-2-12 0l-7 1h-20l15-2 7-1q-4-6-10-5l-7 1-14 1h-1l-10 1 4 6 19 23 4-4q-1 4-3 5l30 37 8-2 6-1q6 1 12-2 8 3 17 0 3 1 8-1h2q2 0 1 2l-2 1-2 2q0-3-5-3l-11 3h-12l-9 1q-5-2-12 1l20 17q-2 1-1 4l4-7-5-2q5-2 11-1l-3 2c-1 0-3 5 0 6l5-3q6 3 10-2 3 3 7 1l2-4v4l6-1 3-3 1 3 7-3q4 4 8-1h7l3 2q-5 1-6 3h-4l-2 2-1 1 1 2c2 0 4-5 6-1q2 0 1 1c-3 3-8-1-12 4l-2-2c-5 0-5 5-9 7l3-6q-6 0-10 4v-2h-6l-3 4v-4q-9 3-22 3v51l3-1 5 1h2l2-3q-4-3-7 0l-2-2 3-2v-1q1-2-1-4l5-2 6 1 3-4 1-1q-5-2-8 3c-4-4-8 0-10-3 6-2 12 0 12-4l-1-2c2-5 8-1 11-3q2-2 4-1l9-1 4-3q0 4-3 6-5-3-7 2h-1c2 2 10 0 12-3l1-1 3-4q0-3-2-2l-9 2-2 2-1-3-4 3q-4-3-9 1-2-2-6 0l-2 2q0-2-2-3-3 3-8 2l5-5q3 3 6 1l2-4c-4 0-7 3-12 1 4-5 9-3 10-3l11-1 3-3q-1 2 1 3 4 0 7-3 2 3 6 1l3-3v3c5 1 4-4 7-5l-2 4h3q1 2-1 3 0-2-3-1l-2 3h-1 4l2 1 1-1 14-24 15-36 4-13v-6l2-4q5 1 8-4l1-1q-2-27 13-50-19 5-36 5-3-1-3 2l1 1h1v1c6 2 10-2 12 2h-9q5 5 3 6h-9l7-2-5-5-1-1v-1h-1q-1-4-5-5 9-3 19-4l28-3 7-6q7-6 16-8l18-2 13-2q9 1 16 5l13 10q13 10 17 24l4 13 4 15 2 19q14 5 8 9l2 9v-9l2-1 2 14q5 2 8 0l33-3 12 2 17-2q0-6 5-10l19-24 7-9 8-8 6-8 16-20 8-10q0-3 4-5l47 15 40 11 36 10 52 13 34-4 19-1 28-4 3-13c6-18 28-30 46-24 13 4 26 15 28 27l7 31c2 11 12 13 12 17l-1 11 7 3 1 14 5 3 9 7q12 16 17 34l3 10 26-1c1 0 4-2 5 2q-4 2-6 5l-11 8v40l-1 8 2 3h16l6 3v-45l1-7-6-6q-1-2 1-3-1 2 1 2l2 1 1 2 1 1 2 2-1 4v16l1 4v11l7 5 7 8 5 8 3 4h-3l-19-23c-3 11 0 20 0 20-1 2-5-3-10-4l-8-1q-4 2-9-1-4-5-9-8v17l6 1 8 2 42 5 9 1-3-4c5 0 5 6 9 6 3 0 3 5 0 4l-7-1v14q0 6-5 9c-7 3-2 8-6 12l-1 11-1 6-1 25-2 6-1-11 2-6v-17l1-8q-1-4 1-10-1-6 4-10 3-1 5-4l1-15-34-5-10-2-9-1q-4 1-7-2c-1-1-4 1-1 2l-3 7v-10c3-2 7 1 10 1l12 1h12q-6-2-12-1c-7-3-17-1-22-6l-3-63c0-16-10-43-19-52q-7-8-16-12l-2-12q-2-3-6-4l-1-15-8-9q-4-7-4-15l-4-17q-5-22-25-29-10-2-17 5c-16 17-10 35-23 54l-4 6q-1 3-6 3l-2 14 1 3c-15-2-28 10-34 24l-2 5q-6 13-8 27l-2 28-1 17v24q0 2 3 2 0 4-5 4l-12-1h-4c-2 2 3 8 1 15q3 2 3-2v-9q3 5 2 12l16 2-17 1-3 3q1-2-1-4c-1 5-11 7-11 13v41l1 1 1-34 1-7q0-8 7-8l-5 6-1 43 3 3v-11q6-2 11 3c4-2 1-8 6-11q4-1 7 2c3 3 1 10 7 18-9-3-5-15-12-19q-5 4-6 15-4-6-10-6l3 11-2 3-2-1-8-4c-7-4-18 0-22 7q-2 8 2 15l-4 3c1 6 6 8 4 11-1 2-8 0-11 5q2 6 0 11-6-4-4-10c1-7 10-6 11-9l-1-2q-4-6 1-10l-1-11c0-9 11-14 22-14l-1-33q-1-15 9-19l-7-1-7-3v9l-1 40-3-4q-3-5 0-11l1 10q3-7 1-15l-1-4v-27h7l12 2c2-7-2-12 1-17l-10-2q-1 6-4 5l-9-7-17-21-8-10-6-7-5-7-6-8-5-6-5-7-7-8-6-8v-4l-1 1v3l-4-4 2 9 2 8 1 12v13h6l3 7c2-3-1-8 2-12v21l1 10 5 16 5 12 5 8 7 12 5 5q3 6 8 10-1-10 1-18l1 16q-2 2-1 3 7 9 17 15c-6 4-13-4-20-12l-6-8c-20-23-32-46-35-78 1-3-3-4-3 0v13c-3-4 1-10-4-12q3-2 3-5-5-2-5-7l-3-35q-2-18-14-35-5-8-13-12c-8-7-23-6-30 1l-9 10c-14 21-15 44-15 69l-5 2c0 12-4 29-10 39l-15 27-7 8-11 12-14 13q-3 3-6 1h-1q-2 2-2 5l-1 10 2 8-1 36v22l-1 28v21l-1 22-1 15-1-17-1-46 1-24 2-15v-44l-3-23 1-22 1-15-13-8-5-4q-10-8-18-18l-9-13q-24-34-36-73l-7-28-2-3c-2-1-6 1-9-2q-2-5-1-10 0-18-6-32-6-23-25-36l-6-4-3-2q-1-2-3-1l-1 1c-7 0-16-5-22-2l-9 6-9 9q-12 18-13 40l-2 19h-11l-3 14-7 21c-7 20-28 60-41 74l-8 9-13 14-13 11q-5 4-11 6 3 4 2 7l1 22q-1 44 2 86l2-6c3 4 0 6 0 8l-3 20c5-5 4-12 12-12q1-9 7-8l3 4 5-3v-33q-1-5 1-10v41q0 4 5 4l-2-12 1-19 13 1 14 1q4 7 3 16l-1 30-2-6q1 7-1 11l-1-17-2-2-3 1v12q4 4 5 10l9-2v-34q-2-10 1-20v53c-1 2 3 2 2 0l3-3v-53h1v53q11 1 15 10 1 3-2 3-3-9-12-10l-1 11-2 2h-5v-7c0-5-7 2-8 1-5-3-4-10-7-10s-13 12-18 21q-3-1-3-3l1-3q2 0 3-3c-6-2 0-10-2-20l-3 2q-2 1-3-1 3-3 4-7t-2-5q-2-1-4 2l-3 7-3-10-3 3v9q-4 3-3-1 0-3-2-3t-2 2l-4 10q-1 4-6 3l-1-6-1-13q-2 4-1 8l-2-5c-3 6 2 13-3 21q3 1 2-2l5-8q-1 10-7 15-3-3-2-7c-3-3-8-2-12-5v8l-6 2v10c0 4-6 0-11 0q0 9 3 15l-4 5 1-5q-8 1-9 5-1 3-4 2l-8-14q-3-5-9-5l-11 1c-2 6 13 7 6 9-8-2-12-9-8-11 5-2 21-3 25 4l6 11c4-1 6-5 12-3q-4-9-2-18l11 3-1-17-1-26 1-7v-26l-1-9-1-9v-41l1-8 1-28 1-8-1-31-1-8v-10l-6-1-1-19-13-15-8-10-19-25-7-9-8-13c5 1 5 6 8 9l8 11 4 6 5 6 4 5 6 8 8 10 15 15-1 8 1 11 6 1 1 11v49l-1 7v33l-2 5 1 19 1 12 1 11v70q4 1 4-4l-1-11q8 0 14 5v-12q-2 1-1 6-3-5-1-10l1-21-1-8q-2 1-2-2l1-31V451l-2-8v-1l-1-2-1 1v1l-4-2-21-20q-3-2-4-6l4 3 1-1-4-5-8-10-7-7-1-1-1-3h-1v3l-3-2-18-27-6-9-19-30q-14-20-25-44l-14 3 21 35 3 6 5 7 12 18 5 8 10 18-1 1-11-18-5-7-12-20-10-16-13-19-4-8q1-2-2-5-15 2-26 11l-16 9-22 13-10 7q-6 1-11 6l10 4q4 2 7 6l1 7 11 1c-1-10 8-20 18-20q0 7-4 12c-3 4-10 5-13 9q10 0 18 5l-3 2s4 13 0 20l-12 24q0 3 3 2l6-3c5-2 3-12 7-18 3 5 3 10 8 15q3-10-1-19l-6-8c7-2 8 9 12 8 6 0 13-5 10-10l-6-10c-7 1-11 8-12 4l1-2-1-2 12-3q8-1 16 5c7 4 16 17 13 19l-2 2 2 9c-2 4-6-1-10 4s-13-4-18-14l-7 1c4 10 1 21-2 20q-6-4-8-9c-1 11-14 16-18 15q-4-3-2-8l9-17q-2-4 1-8 2-1 3 1 2-6 0-11l-9-9c-4-5-13-2-21-6l1-7-14-2q-11 0-21 2l-12 4-25 11-15 8q4 9-2 23c7 0 12-3 11 1l-1 15q10-4 19-1c6 1-4 8-5 11q0 3 3 3l9-2q3 0 5 2 2 3 1 5l-2 7q-3 1-4-2c-1-3 3-6 2-8l-3-1-8 1q-4 1-5-2v-6l6-5q-14-3-24 7-2-1-2-3 6-9 6-19-7 1-12-2l4-13v-10l-23 13-18 17-12 11-11 14-5 9-6 10c-7 11-14 26-11 36l-1 3c-3-1-3-7-8-7l-2 8-3 15-2 21q-1 4 2 8l7-11c0 4 7 1 9-4l4-1 8-4q4 0 6-4c-7 1-11 6-17 6q1-2 3-2l23-9c12-5 11-10 16-21l3-9 4-9q2-7 7-15 0 6-4 11l-8 22-4 12q-3 1 0 2l-8 8 14-1q7 2 14 0l15-5q3-12 14-18 6-6 14-4-15 5-24 18l1 6-18 6 16 3q7 1 12 6l4 5c2 3 6 3 7 8 0 3-5 3-3-1l-11-11q-4-3-9-4l-25-4q-14-3-27 3v2l11 7 12 7 9 7 6 1 3 7 13-1q9-2 15 4l11 11c6 0 6-7 15-6q6 0 10 7c-2 3-9-7-14-3l-8 6-3 2-2-2c-3-10-16-18-22-17l-15 3 7 8 3 1v3l4 8 5 12q-7-5-8-14c-3-7-11-12-16-17q-11-14-28-21-3-3-8-4h-14q-7 2-12 7l-19 18c-8 8-16 21-15 32h3l-10 25-9 27 8-3 11-6 13-8q4 4 9 4l15-6 12-10 15-11 31-21q2-1 1 1l-16 11-17 12-20 16q18-5 34-15l7-3 8-2 9-11q3-1 4 1l-7 8q11-3 21-10c10-7 15-7 23-6q6 2 13 2h10l7 1c8 2 13-1 16 1l8 3 9 1c7 0 25-3 29-8l8-7c1-1-5-4-1-8l4-4q2 3 1 6l-1 2c2 4 9-5 21-8q6-2 7 5-6-3-10 0l-14 8q-4 1-9 5l-8 7q-3-1-7 1l17 1q4 3-1 2l-17 1-12 1q3 4 9 5l12 6 18 1c2 1 2-2 0-1q-6-4-5-12c6-2 3 6 7 8l7 4h15q3-2 1 0-1 4-6 3h-35v8l32 2 3 3c-3 3 0 6 0 9l-1 20-2-6v-24l-33-3-7 5q-6 2-11 0l4-4q-1-8 5-11-3 5-3 9 5 4 9-1 2-3 1-7c-4-5-16-4-25-14-6 0-14 2-19-2q-2-3-6-2l-11-2-6-1-12-1-10-2c-6-1-19 4-23 7l-9 7-1 1c2 2 17-3 31 4q3 2-1 2-11-5-25-3s-8-2-9 4l2 2-1 2q2 4 7 7l9 11 8 2 15 8q6 3 9 9l5-1q3 1 6-1c5-5 14-4 17-4l6-1 8-3q3-3 7-4-3 7-12 9 9 0 19 4 5 2 9 1 0-7-4-13l-6-1 1-6q4-10-7-14 4-5 6 0 9 7 4 17 6 1 8 6l2 9q6-9 12-7l4 5 13-17c-5-1-6 8-14 13q4-8 9-13c-5-3-10 0-13-3h25l-5 3c-5 6-11 13-10 18q6-7 10-15l1 2-9 15 2 9c-3 1 0 3 1 1q3-4 8-3 1-4-1-6v-9q3 0 3-4 3 9 0 18 8 0 17 3v-9l1-35 1 1v43l14 4q4 2 2 6l-13 5c17 18 9 24 8 21-1-7-9-5-9-10h5q-4-7-11-10l-6 1 1 4-10-2-9 2q-8 0-16 3 3-5 9-5l7-1 7-1h10v-3l20-4q2 0 2-3l-19-5q-12-4-21 3v5c-8 1-4-8-6-19h-3c-5 2-4-7-10-5q-5 3-7 8-4 3-10 1l-12-3-14-2q-13-2-25 6l4 5 15 15c5 4 24 12 33 13-10 4-24-5-36-12q1 5 4 6l1 1 7 2q-5 3-8-1l-1-1q-5-3-5-5t2-2l-12-11-14-11-14-8q-7-5-16-5l1 6v12c-4-7-5-17-9-16q-2 2-5 2c-2-1 3-8 1-11l-5-7c-4-9-14-15-21-11q5-1 6 2-26-1-45 18l-13 4c-12 4-26 3-39 14q17-3 30 1l3 3 12-7 7-6-4 5-13 10 4 4 7-7 7-5q4-4 9-6l-9 9q-4 1-7 4l2 1q-2-1-1 1l-2-1-6 5 6 7q4-5 9-8-3 5-8 9l8 7 5-4h1l-4 4q4 6 10 6l6 2q-8 3-16-3-2-2-5-1-4-8-10-9-2-4-6-6l-4 2 2-3c2-2-3-4-5-4q0-6-6-8h-15l-12 1q-8 1-11 9-3 4-2 14c4-4 7-10 14-10q-11 6-18 19c10-3 15-16 26-21q-3 6-9 10l-6 8-3 7 4-3 13-10 13-13 9-7-18 18 11-5-15 15-7 8-4 6q-1-3-2 0l-9 11-7 19 5-2 6-10q2-3 5-3l-4 7-5 9-2 4-7 10-8 18q10-9 15-21l5-8-1-1c-1 3-3 0-1-1q1-2 2 0l1 1 1-6c8-8 13-16 7-16v-4q4 0 7 3l9-10 4-2-12 13q-3 4 1 9-2 1 1 3l2-7 3 7 8-9 28-27h1l-29 29-9 10 1 1 14-14q2-2 4-1l-17 17q-5 5-7 14l11-12 2 3 8-7 9-10 16-16-9 11-20 21-3 6v-3c-4 1-3 4-5 6l-5 8-6 10-5 8q-3 3-4 9 3-2 2-3l4-6 5-8 5-8 5-8 2-4q1 3 2 0 3-2 5-6l30-30 1 1-20 20-3 5-10 11-9 17h-1l-2 5 4-3 11-12 18-18 2-3 30-30-7 8-2 4-24 24-2 3-17 17c-5 5-5 13-9 17l-3 10 11-18 8-14q1-3 3-1l21-21 10-8 7-5-7 7-27 25-8 10q-5 8-8 17l-8 17-3 6c4-1 3-4 5-7l11-18q1-3 5-4l-4 8 1 1 4-6 2-4 1-1 2-5-2-6c-1-4 4-4 6-6l8-5 17-15 16-16 1 1q-3 1-4 4-2 4-6 6l-8 8-10 12c1-2-2-2-1 0l-10 9q-3 3-3 8c8-6 14-3 16-6l6-8 10-10 6-8 5-6 7-8 9-9-7 9-6 7-6 7-5 6-8 8-5 7-5 7q4 3 5 7l11-14 12-14 9-9 6-8 9-10q3-6 9-7l-14 14-5 7-6 6-9 10-6 7-5 7 4 3-1 4q5 0 8-4l6-8 7-8 6-7 24-24 1 1-14 13-2 4-12 12-5 6-6 7-6 7c5 2 3 6 6 8v4c0 2 6 6 8 6q-4 10 1 13-1 3 2 2l2-3c0 4 6 8 10 6q1-4-2-9l-1-3-2 1c-1-2 4-5 2-16q1-3-1-3 1-3 4-4 1 4 9 7 1 4 4 7 6-1 9-8l13-15 7-8 7-8q4-5 9-8l-6 7-7 8-8 9-7 8 4 4 3 13q2-3 5-4c0 4-6 5-6 10q10-12 25-4l7-7 13-13 13-13-8 9-6 8-16 16q-1 2 2 2l7 4 7-6c-1-10 4-10 9-13 9-7 15-7 14-12l-1-9 1-3c3-1 2 4 8 8l-5 2q2 7-5 10l-15 10q-4 2-2 6h5l3 4v13l-3 2-2-2 1-10q1-3-2-4c-8-1-12 12-14 8l-2-3-9-5-6 6q0-4 4-6-12-7-22 6-2 2-5 1-1-5 1-10 0-4-3-1-3-1 0-3 3-3-1-7l-8 8q-4 4-9 4-3-6-8-7 2-3-3-4l-1 6h3c-6 7 0 12 1 22l5 2c0 6 4 8 3 9l-2 1-8-9c-1-2-6-2-7 0l-7 14q3-2 5-1l-4 5q-3-3-7 2 0-5 2-8l-6 4-6 4q-2 1-1 4 3-2 6-1l-7 4q-4-1-3-5 0-2 3-5 10-4 18-12v-8l-4 1-5 6q0-6 3-10c-5-1-7-9-6-10l4-6q-4-1-7-5l-4 3 3-10q0-3-2-2l-3 1-6 6q-3-7-6-7l-3 2-2 5q-1 2-3 2c-3-1 2-8-3-11h-5c-3-3-11 2-12 8q0 3 4 2l-3 6 1 7-2-1-1-3q-3 0-3 2v3l-2 6q3 2 6-1l4-5 7-4c-1 6-10 9-14 16q-5-2-6-6 0 7 5 11l6 9q4-5 9-8 3 0 2 2l-1 2-7 11-5 10q-2 5-7 7c-3 0-4-4-1-4 6-2-1-9 6-15l1-4-3-2-8 18v4c-1 1-7-1-9-5l-13 2q-4 0-3-3 2-6 8-10l2-8-4 4q-1-5 2-9-3 1-4 4-2 3 1 6-4 3-7 0l2-6q1-3-1-5 3-2 3-6 4-3 6-7 2-3-1-1l-5 3v1c0 4-6 5-10 12q-4 1-4-3l9-7q-14-12-23-1-3-1-2-5-7 2-9 0l1-3 3-11q-1-8-17 3l-2 6q-3 2-3-2 2-10 6-19c1 6-4 12-2 13l2-1 2-8 3-18q0-2-1 0l-4 9-6 13q-3 6-4 13c-3-5 0-15-7-13q-7 3-9 11l-4 9-1 7-1 14q3 2 1 4-5-8-3-17-8-3-15-2l3 2c-5 2-9-3-10 0l1 3q-5-1-10 1-4-1-2 2 1 6 6 8l13 9 3 1h-3q-7-2-14-7l-5 6-7 11q2 3 4 0l8-11q1 3-2 6l-8 11q0 2 3 2l2-5q1 5-2 7 4 8 11 15c-2 4-12-1-25 1q-4 2-4 6l-2-4q-10 4-15 13l3 3-4 3-5-2-11 1q-10-1-12 3l1 1 4 4v1l4 2h1l6 4 1 1h2l1 1v1l1 1 4 2v1h1l1 1 2 4 1 1q-2-1 0 1l-2-2-2-3-1-1v-1h-1l-4-3-1-1-1-1-2-1h-1l-6-4-1-1-3-2h-1q-4-1-4-4l-1-1-2-2q3-3 8-3l7-1h7l7-1q2-7 6-11c6-4 6-7 9-8v3q4-1 7-4l8-12 1-1v-7l-2 1q4-8 10-15l4-6q1-2-2-2l-4-1-11 16-4 4-9 14-3 4-12 16-2 3q-3-1-1-3l12-15 8-12 9-11 12-19 1-10 5 1 10-5-3-8q-9 11-19 5l-9 10-9 13-9 13-3 5-6 7-6 7-5 8-5 5q-1 4-5 7 1 3-2 1l4-6 5-6 4-6 6-7 4-6 4-5 7-10 8-11 4-6 4-5 8-8-9-11h-9l-20 26-4 6-4 5-6 8-4 5-8 9-4 6q-1 4-6 6l5-6 4-6 6-7 5-7 6-8 15-19q1-4 5-7c-4-7-3-15-8-24-4-8-11-9-10-13q7 1 13-2l-8 5q7 6 10 14l4 17q5-4 7-9h15q4 9 9 9 0 2 3 3 6-1 14-9l4 10c1 3 6 0 8 0l12 3 2-10 4-10 7-8q5-2 9 2l4-9q2-2 1-3l-2-1c-3 1-5-7-12-2q-1-2-3-2-7 0-12-3l-12-5q-3-2-1-3 6-4 2-10l4 1q2-2 0-3-3-2-4 1-2 1-2-1-3-3-7-3-3-2 0-4l12 4q5 2 8-3l6 6q3 0 5-2l2 3c2 2 4-3 7-5l2 5 7-2v-4l-3-7-11-4q-1-4 3-2l8 2c4 1 2-6 6-7q1-3-2-3c-4-6-9-7-6-11q-4-11-13-10c-8 2-11 9-14 7l-1-2-5-12-5 6 2-7c-6 2-12 0-19 4q-4 1-3-3 3-5 2-6c0-3-7-4-6-8 0-6 18 4 27-11-1-6-10-2-16-8 2-5 10 4 25 1 5-1 3-9 9-11l8-3-1-1-5 1-1-1h-2q0-2 3-5c3-3 3-11-1-13-12-8-31 1-27-7l2-2 9-6c4-2 8-18 4-25h-4c-1-2 1-8-2-14q-6 8-7 3l3-6q-6-5-12 1c-7 5-15 9-12 17q0 2-3 3-4-3 2-15 3-5 10-7l3-13q-3 2-2-1c4-2 7-14 6-18q-1-3 2-5c3-2 1-6 2-9q4-7 5-14l5-21 3-13 2-12 2-10q-5 0-6-4l-3-19-7 2c-13 4-6 16-11 16-3-1-2-10-9-16s-11 2-18 7q3-9 11-11 10 0 15 10 4-6 10-9l7-3q5 0 6 6l3 17q4 3 4 9l4-12-3 1 1-8 3-4 4-12 6-16 6-13 1-9 2-10 1-9 1-14-15 6q-3 3-7 1-1-3 1-6 3 0 5 3l18-7 2-13-1-6q3-6 0-11-4 3-10 2l11-4q0-10-3-20l-5-20-6-12-10-29-11 4-14 5h-3l2-2 21-8q3-2 3-5l-5-15q-2-1-3 2l-7 8-5 7-11 12-6 9-11 21-8 16-8 17-3 7-12 36-2 7q3 19 1 39l1 6 1-18 1 1 1 17-3 6h-2v11q1 7-1 13 0-4-2-5l-1 5v-16l2-6v-16l-1-12q-1-5 1-12l1-16 6-21 4-12 5-12 3-9 14-28 10-19 7-10 12-13 3-4 7-8 5-7-5-20-5-27-4-17-2-6q-4-15-2-29l1 1q-1 8 1 18l2 6 5 23 5 23 2 11 1-1-2-15c-1-2 3-2 1 0l3 10v-1q1-6-1-11l-1-8-2-9-1-8-1-12-2-23-1-1-1-6v-1l-1-5-1-1v-4l1 4h1v5l1 1 1 7 9 58 1 9 4 20 5-7 5-8 10-19q-3 12-9 20l-11 17 9 25 10-6 13-9 8-7 4-1-7 7-7 5-10 7-10 5 5 11 15 33 4 10q1 3 2 1 3-3 1-10l1-5 5-25 2-21 4-20 4-18q1-9 5-19-10 14-24 9-14-7-9-9l2 1c6 7 17 8 24 1l9-9 7-10c8-5 5 13 27 15l7 1-9-26-12-42q-2-5-1-11c4 6 4 14 9 22V42h1l1 21c1 16 9 37 18 50q3 5 3 11l3 16 7 25 1-20q2 9 1 21l3 14 2 10q2 14 7 24l3 17q4-1 6-4l9-25q7-15 11-32l3-17 4-15 3-8 1-6 4-17 4-13q6-17 8-35-4 3-5 8-2-6 1-8 3-7 3-15l2 5c3-11 3-28 10-28l-3 18-6 29-7 31-3 7c-6 13-10 37-14 54l-3 14-4 14 5-10 11-35 4-14 2-3q1-2 1 1l-2 8-7 23-5 14-4 15-1 7-7 15-6 11zM369 96c-2 0 2 1 0-2zm2 0-2 1 14 37 2 6 1-1-1-12q-2-10-7-18zm-45 78-1 3 1 2q1 3-1 7 1 3 1 0 1-3 2 0l-2 6-2-3q-1 3 1 5-3 6-3 11l1 1q2 1 0 4-2-1-1-3l-1-1v7l-3 11 1 1 5-13q4-15 11-28l-10 32-1 5q-2 1-2 4-4 3-2 7l1-2 2-1-8 24q-1 2 1 5l8-23 1 3-8 20-4 14q0 5-5 7l3-12 3-14q-7 0-8-8l-3-7-9-20h-1l5 22 3 12 5 21 3 10q-2 3-2 8l2-1q-4 8-5 17-2 2 1 3 0-3 3-5l-5 14-2 3q-3 7-2 14l-1 1q-1 2 1 2l-2 6-1 7q-3 1 0 2c-3 7-5 18-9 23q-5 5-5 13l3-5h2l20-43 1 1-13 29q-5 8-7 18l10-15-12 24q-2 9-6 15 0-3-1 0c-5 6-9 17-7 23q2-2 1-4l4-12 2-2q-1 1 1 4l4-8 6-12-4 14-9 21q-3 5 1 8l-5 11q3 0 4-4v-1l7-13 5-22 6-16 6-14 5-15q7-21 12-43l5-28 3-29 3-28v-4q4-12 5-24l6-32 6-27 3-9q2-11 7-20l1-1-14-13-5 12-6 18-4 20zm32-46-1 1q-6 14-8 31l-8 36 10-4c3-1 3 2 1 1-11 5-12 6-13 15l-8 50-1 15q-1 17-5 36 8-3 16-2l10-16 16-26-22 6-12 4-1-2 12-3 22-6q3 0 4-4l-12 2-17 5-8 1c1-4 4-2 5-2l21-6q7 0 13-3l11-32 5-15 3-12-6 27-3 12-6 21q15-14 21-29l-2-28-2-8-5-27c-3-14-6-38-14-36-7 2-12-2-16-2m29 12-1 1q2 0 1-1m-116 8-1 1 1 3q2-3 0-4m121 8q-1-3-2 0 0 5 2 0m-123 5-1-6q-2 4 0 6zm124 1q0-3-1-1 0 2 1 1m-124-1v1q-2 3 1 6c-1 3 3 2 2 0zm125 5h-1l1 1zm0 6q3 2 1-1zm-114 21-8-22q0 10 4 18 0 5 4 4m117-20-1 1 1 5zm322 21 6-7 8-8q4-4 9-3 4-4-1-3l-7 3q-6 3-8 8l-10 10-6 8-2 4q8-6 11-12m-321-15 1 9q2 4 2 0zm157 0q-2 1 0 1zm100 5q-1-4-2-1 0 4 2 1m-195 19 4-2q5-7 5-15l-3 5-7 12q-4 2-4 8zm97 6-1-23c-3 3-1 6-2 9l-1-1q1-4-1-7l-2 15q-2-5 0-10 2-4-3-3v19q-2 1 1 3zm95-22-1 1 1 1 1-1zm-363 34-2-11q-2-8-6-15l-2 2 1 3 5 15 3 7zm118-9-5-13q-1 10 3 20 3-2 2-7m237 48q13-5 23-17c5-3 11-1 12-5l11-17 6-7 9-10q-7 2-11 9l-8 10-11 11q-6 2-9 6-4-1-6 2l-18 14zm129-56c-11 9-12 22-7 21 2-1 8-12 7-21m16 10c-14 0-20 11-15 11 2 0 13-5 15-11m-497 3q3 2 0-2zm186 120q-1 2 1 2l17-7 11-6 23-9 13-5 23-12c14-7 41-20 45-30l7-13c0-6-5-11-7-16l-8-15q-3-2-8-2l-9-3-13-3q-3 2-5 6l-25 38-6 6-5 8-7 8-7 10-6 8-8 8-15 19q-1 3-6 4l-4 3zm-49-114q0-4-2 0l-2 6h1zm43 14q4-3 3-6l5-11-12 7zm-182-15-1 2q3 0 1-2m117 22c-1 3 3 3 3 2v-20l-1 13zm302-13-1 1h3q-1-3-2-1m-4 3 2-1q-2-2-2 1m-386 3q1-3-1-3-1 1 1 3m75 15q4 0 4-3v-15l-8 11-7 10zm27-15 1-1zm-103 3c1-2-2-3-1-1l-2 3q2 1 3-2m149 0 1-1q-3-2-1 1m22-1q-6-3-13 0l-3-1-1 2c2 3 17 10 19 4q1-2-2-5m-69 2q1-3-2-1l-4 11q2 4 2 1l4-10zm266-2v2q2 0 0-2m-281 11 1-1-1-7zm15-2-1 1 1 1zm211 11 6-5q-1-5-4-6l-5 9q1 3 3 2m-8-4q3-2 4-6zm-215 2q2-5 0-6zm-13 0q4-1 1-4l-9 3c-3 2-7 1-9 5zm16-3v3zm3 1-1 1 1 1 1-1zm363 1h2zm-313 1q1 4 7 7-1-7-7-8m109 47q5-1 7-3l7-5 11-6 10-6 8-5 13-7q7-4 13-11l-2-4-5 3-12 8-6 8-8 6h-3l-22 14-6 4zM275 514q-4 0 0 2-6 4-4 12l8-9 7-8 7-8q-3 0-8 4l4-6 6-2 14-12-9 10-11 13-6 7-13 16-4 12q5 5 4 12 1 3 3 1l5-2-6 6c-4 5-7 14-3 16l-2 4 10 2 7-10 5-5 6-7q2-5 7-8l-5 7-8 11-8 10-2 2 2 2 4-5 11-11-15 18q3 5 2 11 1 3 2 0l3-4 1-2 16-16-19 23q-3 2 0 3l19-22q0 4 1 1l2-2q6-4 5-13-3 6-8 9l5-8 8-8 4-18-6 7-7 8-5 8-2-2 8-10 10-11 5-10 8-16 8-33v-8l6-23 5-18 1-5 8-29 2-10 2-11 2-14 8-23 8-24 5-17 7-23 2-20-21 6-12 22-14 20 3 8 6 10c6-10-2-18-2-19l2-1 5-6q3-4 10-3 6 1 7 7l-1 5q-3-1-4-4-12-5-16 2 7 10 1 22-2 2-5 0-2-9-9-16l-14 21-11 17-5 8q-3 7-4 15l-1 2-1 7q-2 3-2 0l1-8q-3 4-2 10h1v4q-3-1-1-2l-1-1-3 5q-5 7-7 16l-7 24-7 33-7 37 7-8 7-8 14-14 2-3 13-13-9 10-2 3-14 15-4 5-10 12q-5 4-6 13l7-6 1 1zm132-254v-3q-2 4-1 5zm0 2q0 2-2 1l-2 14q4-3 4-8 3-4 3-12l-2 4zm-92-2-1 1 1 1zm60 0 1 1zm100 1-1 1 1 1zm39 3-1 1-2 3q2 0 3-2zm133 11q-1-6-5-6-6 2-10 8 8 1 15-2m-297 28 12-18 4-8v-3l-12 18-7 12q1 2 3-1m281-26-1 1h1zm127 2c1-3-7-4-14 6q9 2 14-6m-365 42 6-18c-3-3 3-7 1-15 1-1-2-2-1 0l-3 10q-2 4-1 7v1q2 0 0 3l-1-2v-1l-1 7-3 12 2-4zm-72 23q5-9 10-13l4-6 7-11q3-3 3-7l-7 10-9 13-4 6-6 7q1 3 2 1m-1-5 20-30q-8 0-15 3zm233-24q1-3-2-1 0 3 2 1m317 67 1 2 11-1 7 2c-3-20 2-43 14-59l10-10c-8 1-21 7-25 13q-7 8-11 19l-2 10-1 8-1 12-3 3zm290-53-7-8q1 7 6 9zm-753 36 4-18 3-7 3-17q-6 14-10 30l-1 9q-3 6-1 10zm752-41h1zm2 1h-1l1 1zm253 53q3 0 0-2l6-20-1-1c-1-1 2 0 0-2l2 2 3-6-5 17v10c6-11 6-24 13-38q5-8 12-13l-6 1q-16 6-21 17l-4 12q-4 7-3 17c4-6 2-16 7-20l-5 24-2 2-2-1-10 10q0 3 3 3 6 0 11-3l1-5-1-1-4 3 3-4h2l1 1zM386 326v1l1-1zm4 2q0-3-1 0zm63 20q1-2-2-2h-5c-1-2 0-17-7-19-5-1-8 6-10 4l-2-2q1-3-2-3-2 4-6 4l-5 17-7 28v6q-2 3-2 7l6-5 40-29q3-3 2-6m647 42 6-8 8-9 9-10 7-9 11-12q4-4 6-9l3 1 4-6-3-2-11 13-14 17-5 6-7 9-6 7-5 6-5 7-6 7q5-3 8-8m91-25h-1l-1 1 1 2 2 1 1 2 2 1q-1 3 1 3l2 2 1 1 2 4 10 14q2 2 5 2 1 3 2 0l11 11 13 20 6 12 1 2v1l-1 1 1 2 1-1v-2l8 9 8 9 8 10 9 9 1 1q0 5 5 6l1 1 3 6 4 6 8 8h1v-2q6 4 10 11l5 5 5 6q1 2-1 2l-1 1h2l2-2 2 2 26 2v-6l1-24 2-30q2-15 7-29l5-12q3-9 11-15l9-7h-3q-14 1-24 13l-6 6q-11 17-15 38l-1 10-1 8-1 10v16l5 7 9 10-3 1q-1-3-2 0l-5-5-4-4-8-11c-1-2-1-8-5-9l-14-1 14-1-2-4q-6 1-10-1l2-1h7q0-3-5-4-3 1-4-1h7l-6-13-3-6-10-24-1-4-5-8h1l1-1-2-2-1-3-2-7-18-44q0-3 2-2 6 2 10-1l30-3-13-4-31-7-58-16-40-12-14-5-1 1 8 10 5 7 14 16zm-807-27 2-6q1-3-2-2l-9 32q0 5-5 6l-3 22 5-13 4-13 5-16 2-9zm5-5-1-3q-2 3 0 4zm772-3-1 2 2 3 1-1zm-569 4q-1-3-2-1-8 5-9 12 7-3 11-11m-40 1q-3-2-6-1-2-2-5 1-2-2-2 1h16q-1-2-3-1m-165 2q1-2-1-3zm704 74 1 2 10-2q-1-7 1-13 2 7 1 13l7-1 15-1 1-6q2 2 1 5l6-1q-1-6 1-10v10h12q-1-11 1-20v20l6-1q-1-1 1-6l1 7q5-2 10 0l9-7c4-2 13-1 18-3v-11l1-1c2 8-1 14 4 12q2-2 1-4 0-7-4-11l-8-8-7-8-6-7-7-8-7-9-6-8-2 5-6 7-7 8-5 5-8 11-6 7-10 11-7 8-7 8-5 6zm73-76h-1l1 1zm1 1-1 1 2 3 1-1zm-780 3 1 2 1-1zm118 4q-11 1-13 6zm284 3q1-5-3-4-3 2 0 3zm382-4h1zm-397 8 10-1c-5-7-7-5-11-5l-26 2 3 6 13-1zm399-7-1 1 1 1 1-1zm1 3q-2-1-1 1m-461 9 23-2c3 2 4-3 1-3q-1-3-4-2l-10 1q-12 2-25 1l3 6h11zm29-6q2 1 0-1zm2 0-1 2c-1 3 4 4 3 0zm-152 5q-3-2-4-1l4 5zm50 34c-1-8-7-10-8-14q0-2 2-1l6 3q-1-5-3-6-5-11-17-12c1 7 7 10 2 17q-3 6 2 10 2 4 7 6l-1-6 2-2c1 0 4 5 8 5m547-24q2 2 1 0zm169 60 7-6 2-3-1-2 6-1 9-4q2-3 7-2c2-9-4-12-2-16q20-6 22-25l-9 1-37 6-15 1-38 4-26 3 2 8 7 15 8 21 4 10h11l10-1 11-1 16-2q-3 4-8 3l-9 1-16 1-14 1 4 8 2 4 4 1h11q3-2 2 1h-16l1 4 5 1 9-2h16c-3 3-7 1-10 2l-9 1-10 1 2 4 3 3v4h3l20-1-1-5-9 1-11 1q-1-3 3-2l19-2 5-19 9-16-1-1q-7 2-15 2l-11 1q-6 0-11 2l-16-1q5-2 11-1l6-1h15l5-2zm12-58c-3-1-4 3 0 2q2 0 0-2m-1057 6 1-1zm1098 0v3zm9 5 1 1zM405 420l4-6 5-9 6-7 8-9 4-5-8 7-6 8-15 20q-1 3 2 1m313-32q2 1 1-1zm2 0 1 1zm127 70q3 0 2-3l2-3 1-3 2-4 1-4q3-2 4-6l7-18 3-8 1-2v-3l2 3 1-5 3-11q1-2-2-2-4 1-3 7-3-1-1-4c1-2-3-2-2 0l-2 7q-2-4 1-7-1-2-3-1l-4 14-3 7-11 29-8 16-13 20-6 14 11-13q2-4 7-6l-17 22-1 4-7 8c8-3 8-10 12-11l-1-2q3 2 1-1l2 2 21-32-2-2q2 1 1-1l1 1zm358-63q-2-5-5-6v6zm-924-4h2zm1116 13q2 3 3 0v-10l-6 1v8q-1 4 3 1m8-8q-2-4-4-1l1 11zm-12 8v-8h-3v9q2 1 3-1M274 415c4-3 4-9 8-14l-4 2zm816-6c-3-3 3-4 3-8l-6 6q-4 1-6 6l8-1zm57 69q1-5-1-6v12l16-1v-21c-1-18 6-41 18-54l8-6c-10 1-21 8-25 16l-9 18c-3 7 1 18-3 22q1-7-1-11l-2 12v14q1 3-1 5m-276-70-1 1q-2 2 1 2zm263 49h10l2-12q1-3-2-1h-10l-13 1-12 1-10 1-14 1-20 1-9 1h-17l-5 2h-11q2-2 5-2l9-1h16l9-2h11l5-1h14l4-1h11l8-2h18l14-1 3-12h-20l-9 1-23 1-6 1-17 1-17 1-5 1-19-1 1-1h16l8-1 8-1h9l21-2h15l8-1 21-1 10 1 7-13 5-6-17 2-13 1-25 3-26 2-20 1-21 1h-18q-11 0-13 2 6 21 16 41l7 13 20-1 3-1q6 2 10 0l16-1 7-1 10-1 11-1 10-1q5 2 9-3v2c0 2 6-1 12 0q5-4 3-9l-4 1q-4-2-8 0l-14 1h-5l-10 1h-9l-5 1-14 1-10 1-11 1h-14q-6 3-10 1l9-2 9-1h7q4-2 8-1l8-1h11l4-1 10-1 9-1h19l4-1zm-389-39-1 1 1 1zm1 3h-1m-352 4h2l3-3-1-1zm-115 1q-1-3-2 0zm-2 3h-1l1 1zm115 0 1 1zm372 9q2 1 1-1zm2 1v1l1-1zm-388 8 5-7q-4 3-5 7m449-5q0-2-2-1-4 0-5 4h-1l5 1 3-3zm-32 4q-1-2-3-1-19-1-17 7c1 2 6 1 7-2q6 3 11-1l5 1q2 0 3-5l2 3q4 1 7-2 5 3 8-1l1-1q0-3-3-2-2-1-5 3-3-3-8-1-5 0-8 2m-420-3h2zm872 2 1-2zm-966 2-1 1 1 1 1-1zm94 0-1 1 1 1 1-1zm875 0-1 1 1 1 1-1zm2 2-1 1 1 1zm-975 5 1 4 1-4q3-3 0-4l-1 3zm95 3 2-5q-5 3-2 5m14-3c3-2-1-3 0 0l-4 8q4-2 4-8m-119 2-2 2c-3 10-9 17-6 23zm106 9 1-8-4 1 1 7zm-107 16 1 1 3-9 5-12-1-1-5 12zm8 4 1-10 4-13q-3 2-4 5-3 7-4 15-1 1 1 1zm100-15q3-4 1-5-3 3-1 5m445-3q-2-2-5 0-5-1-9 3 4 1 7-1l3 1zm-23 3-1-2-5 2q-1 3 1 3c-1-1 6 0 5-3m9-2q-4-1-6 1-3 1 0 3 4 0 6-4m533 6 1-5-20 1q-1 3 3 5zm-515-4-1 1 1 1zm256 35v2c2 3 12 0 11-2l1 2q3 1 8-2 2 2 6 1l3-4-1 4h6l4-4v3q4 1 7-1 3 2 9 1-3 3-7 2l-8 1q-5-1-5 4-3 1-1-2 1-3-2-1c-7-3-5 4-10 5q3-2 2-6-7 3-14 2l-3 7 7-1h9l10-2c1 0 5 3 7-1l3-5-2 6q4 1 7-1l4 2-6 3-4 5q0-4 3-6l-14 1q-1 3-4 5l1-5-8 1h-6l-10 1-13 1q-3-1-5 1l7 6 1-1 5-1q3-2 4-5 2 3-1 4c4 3 6 0 9 0q2 2 6-1-1-2 3-4-2 4-1 6l7-2q4 2 7 0l4-5-1 5h13q10-17 11-36c-1-5 5-2 6-6l-1-2q-2-1-7 2c-3-3-6 1-8 0l-10 1c-2 0-6-2-8 2q-3-2-7-1 0 3-4 3 3-1 1-3-6-1-10 1h-17l-14 2c-6-2-11 2-17-2h15l7-1h11l9-2h17l4-1 8-1c3-1 6 1 8-2 7 3 9-1 10-2v2c0 2 6-1 12 1v-8q-7-2-10 2l-1-2q-3-2-7 1l-8 1h-8l-13 1-10 1h-7l-17 1-8 1h-7l-13 1q12 22 28 42l10-3q6 2 11-1 3-2 3-6-12 0-10 2l-3-1-16-1 12-2c3 0 6 2 10-3m259-25q1-3-2-4l-14 1 1 3 3 1zm-520-1 1-1q-2-1-1 1m-14 1-3-1q-3 1-2 4 4 0 5-3m-7 3q1-3-2-2l-4 1v3zm761 5 13-7h-25v7l10 1zm-1296-3v-3zm1075 1q1-3-1-4h-10q-3 1-1 3l4 1zm-1072-3v3zm530 6q-1 3 2 2c4-3 9 1 11-6q1-2-2-1c-5 2-10 0-11 4zm15-5q2 2 1 0zm2 2-6 6-4 7 6-5 5-7 2-3q-2-1-2 1zm-543 2v-3zm-16 22 4-11q4-6 4-13l-6 10q-2 3-2 7-3 5-3 12 4-2 3-5m858 61q0 4 1 1l2-2 1-1 2-2 1-3 2-1q9-8 14-20l5-11 9-18c2-4 6-6 7-15l2-12-14 3-3 15-6 15-9 15-7 11-7 9-7 8-10 11q-2 3 0 8l7-6 13-12-20 20v3h1l5-5zm224-83h-7q-1 2 1 5 3 1 8-2 1-2-2-3m224 2h-2zm-777 9h4q4-3 6-1l7-1q4-2 5-6-5 0-7 5v-4l-6 3q-2-2-6-1zm-528 15-5 13q4-2 9 1l7-20 4-16c-7 4-4 16-11 26q0 3-4 7-1-6 2-10 0-4-2-1m1296 4v-25l-2-1c-1 1-2 10 1 16q-2 5 1 10m3 0 1-7c1-7 1-16-2-19l-1 36q-3 0-2 2 0 3 4 4zm2 19 2-2v-43l-1 1-1 35q-2 5 0 9M272 494v1l1-1zm149 2q1-3-2-1c-3 1 1 3 2 1m913-1q-3-1-4 1l3 5 4-2q1-3-3-4m-1063 6v-3zm513 9v-3q-2-1-3 2l-2-2h-4l1 17 6-9v3l9-9 5-3h-5q-4-2 0-2 2-2 4 0 3 0 4-5l-6 1-3-1-2 3v1q0 4-4 7m-515-5v-3zm1067 1q1-4-1-4l-2 1q0 2 2 3c-1 3 2 2 1 0m-914 4q-6-2-9-6l-11 4q-1 2 2 0zm371 16h1l18-17-1-1zm514-17-1 1 2 4 4 4 1-1-2-4zm-1040 3-1 1 1 1zm104 8q-3-3-3 1 1 3 3-1m9 4 4-4c2-1-1-3-1-1q-8 3-9 9zm934-6 2 2 1-1zM262 532l2-11-4 7-1 3zm1055-10q-1-1 0 0m-945 2h2zm945 1q3 1 1-2zm-200 3-4-1q-3 0-3 3v1q-1 2 2 2l3-3q-1 2 2 3c3-2 4 3 0 2q-3-1-5 1l2 5q-4 0-5 2l-1 1v2h5l13-20q-6 0-9 2m203-3-1 1 1 1zm-949 2-1 1h1zm405 0h1zm3 3h1l3-2-1-1zm321 0q2-2 0-2-6-1-7 3v1q-1 2 1 1 5 1 6-2zm9-1q1-3-2-2-5 1-5 4l-1 1q4 3 8-2zm212-2h1zm-873 2q2 1 1-1zm637 4 3 1q3 0 3-3l1-1q1-3-3-2l-3 1-2-1h-11l-1 1q3 4 9 7zm238-5-1 1v1zm-873 3q-2-1-1 1m331 3q4 1 6-1v-3zm543-5-1 2h1l1-1zm-956 5-1 1h1zm414 122 2 3v-22l-1-16v-20l-1-18v-13l1-13v-19l-4 2q0-4-3-6v21q3-3 2-7c-2-3 3-3 1 0v35l-1 22 1 20 1-1v-7l1-1v26l-1 20q4-2 2-6m323-118q0 2 1 1 6 1 5-4-3-1-5 2zm217-3q2 1 1-1zm6 0q-3-1-4 1h-1l3 3 1-4zm-230 1q-5-2-10 2c0-2-4-3-4-2q0 4 3 3c3 3 9 2 10-2zm7 0-3-1q-3 0-3 2l-1 1q-1 2 3 2zm223 1q-2-1-1 1m-228 6q1-2-2-1-3 0-3 2l1 2 4-2zm8-1q-5-2-7 2v1h5zm-15 1 1 1zm11 6-2-2-5 3v1l3 1 3-2zm0 2q3 3 7-2l-4-2-3 3zm-9-2q2 2 1-1zm4 11 3-3 3 1q2-1 1-4-1 2-4 0l-3 3v-3q-2 2-1 3-2 0-2 3c-3-1 1-3 0-5l-2-1-1 3 1 5v7c4-2 1-7 5-9m-773 1v2q0 2 2 0l1-1v-2zm1262 1h-6q3 2 6 0m-1258 5v-3zm446 7q2-3 1-6-3 4-1 6m-448 22q5-13 4-26c-1-1-6-1-5 1l1 5q-2 10-1 19c-3 2 2 4 1 1m255-26 1 1zm-262 8q4-1 2-5zm-58 3 3-7-11 6zm514-4h-1q1 3 1 0m-308 1-13 4q-4 2-5 5-3 1-2-2-4 0-7 3 6 2 11 0l4 1q-1-1 12-10zm-154 22 6-17q-1-2-3 1l-4 10-3 11q4-1 3-3zm-25 8q10-9 16-22l-4 5zv2zm31-1-1 3-1 2-1 6-11 30-4 9q2 2 3-1l4-10 3-7 13-35q1-2-2-6 1-5-1-12l-8 17-6 16-12 41q-3 1-2 5l7-10 10-31 7-22q1-3 2 0-2 4 0 5m139-20-1 1 1 1 1-1zm-24 6q2-2 0-2c-3 0-2 4 0 2m42 18c3 0 4 5 7 3l15 7v-2l-12-7h-5l-5-4-12-13-2-3q-2-2-4 1l11 11q3 1 3 5t4 6zm-50-16v1l1-1zm-138 7-1 1h1zm488 53-1-8v-44l-1-1v58l2 7zm-374-51h-2zm-9 6 5-5-22 8q10 3 17-3m-104-1-1 1h2zm11 6q2-2 1-6l-2 2-3 10q-1 1 1 3zm16-5c-1 0 2 1 1-1zm59 0h-6l-10 6c7-1 16-2 16-6m-97 3-2-1-4 5 1 1zm29-1q-2 0-1 3zm-42 17 4-5h-10l1 7-11 9-7 6q2-4 5-6h-12l5 7-1 4 10-2h6l2-5 10-10 11-13q4-3 4-6c-8 4-13 14-17 14m20-14-1 1h1zm18 5q4-1 2-4zm3 51-1 6q1 2 4 1l7-21 4-13q3-12 10-24 2-1-1-4l-11 23-6 17q-2 8-6 14zm171-55-1 1 1 1 1-1zm-196 11c4-6 8-6 7-8l-2-1-1 2-10 10-7 9-9 11 1 2 12-14zm56 6 15-11 3-3-10 5-4 2q-5 1-4 7m-56-1h-2l-1 2-3 3-12 15-1 3 2 2q3-2 4-6l11-11 6-8v-1q2-2 3-7l-5 6h-1q1 2-1 2m10 24 12-29c0-3-4-3-3 0l-13 31 3 1zm-9-28h2zm541 3q-2-4-3 0 0 2 3 0m3 2 3-3q-2-2-4 1v3zm9 28-1 2v9q-3-10 2-15h7v-5l-4 2q-2 0-2-3l-3 3v-24h-4v28q2 10-1 19-7-3-2-17h-8q-1 4 2 7c2 9-3 18 1 20l5-6 9-9zm6-25q4-2 1-6-3 4-1 6m-555-2 1-1q-2-1-1 1m233-2 1 1zm308 4v-2q-3-1-1 2m18 25v-25l-1 1zm-546 68q-3 2 2 4l6-17 4-21 3-8 6-14 9-23q-3 1-5-2 5-5 5-11-3 1-4 4-4 7-5 14l-5 19-3 13q-6 15-10 31l-3 10zm-20-78 5-6q2-3 1-7l-6 7-11 16q7-4 13-5-3-2-2-5m547-10h1zm15 6v-3zm-15 5q2-1 1-6-1-2-1 1-3 3-1 5zm-4-2q1-2-1-1-2 3 1 1m19 0 1 1zm-15 2v1q0 3-3 2h-3v3h7q1-3-1-6m-559 7q2-3-1-1-1 2 1 1m81 7h1l4-4v-1zm951-3 1 1zm-1002 5q1-2-1-4l-2 2zm3 2q-2 0-1 3zm30 9 4-5v-4c-5 1-9 8-8 13zm445 0h2l-1-9-1 1zm-6-4q-3-3-8-4 1 5 7 7 2 0 1-3m-468 5v-3zm29 1c-1 4-8 9-10 19q9-11 15-23l-4 3zm-24 6q1 3-2 6 1 3 2 0l1-6 2-1-2-2q1-3-3-4l-2 7q2 2 4 0m-5 9v-3q-2-1-3 1v3q-1 3 2 4v-4zm-17 20q0-2-1 0c-4 3-1 7-4 9s0-5-2-9l3-5c-5-1-7 8-7 15h13q3 3 5 0t2 0 2 3v-1l1-4h1l1-7 6-19q1-3-2-1v1l-6 16-1-5q-8 1-9 4l-1 1zm33 6 4-11 3-9c2 0 0-3-1-1l-5 12-3 8q-2 3 2 1m33-19q2-3-1-2-9 11-16 24 12-9 17-22m-87 14 4-8c-4 1-4 6-8 9q4 2 4-1m6 5c-1-6 6-10 4-12q-3-3-7 10zm57-10q-1 4-4 4l-2 4q3 2 8-7c2 0 1-4-1-2zm-42 1q2 1 1-2zm52 26q11-9 17-23-6 0-7 5zm-38-15-1 1 1 3zm40 32 9-16 5-11q2-2 1-4-4 3-7 10-8 10-14 23l2 3q3 1 4-5m-21-25q3-4 1-5-4 3-1 5m6 22 10-17 3-10-12 12-5 7q3 2 3 6-2 4 1 2m-26-24-1 1zm16 15 4-9q1-3-1-3-4 0-6 13 2 2 3-1m48-9 1-3-4 5q2 1 2-1zm62 1q2-4-2-3l-3 3 4 3zm-66 3 1 1zm-26 11 3-3 3-5-7 7v2zm53-6-6 14q-3 2-1 6 3-6 8-9 2-3 1-6zm-47 18 10 5q1-4-1-5l6-8q2-3 2-8c-8 7-8 19-11 15q2-3 1-5zm14 1 5-8 4-7q-7 5-10 14-2 2 1 1m-20-12-1 1-4 6q-2 3 1 2c3-2 6-8 4-10m31 28 8-10 6-14q-3 2-3 5l-4 6zm20-17-1 1 1 1zm-29 5q2-1 2-4l-4 4q0 2 2 1zm23 6q2-2-2-5l-9 19q5-8 11-14m5 12q3 0 2-2l-1-2q0-3-4-3 2 8-3 15 4-3 6-8m-18-3-1 1 1 1zm-5 20 8-1c0-8 5-12 7-19l-7 10-11 8q0 3 3 2m38-15q1-2-1-1-2 3 1 1m-24 6c2-3-2-4-2-1q-1 5 2 1m2 11 6-10q-1-3-2 0l-6 10q1 3 2 0m15-7c2-3-2-4-2 0q-1 4 2 0m-163 24q-1 6-6 11h7l14 1-7-8q-3 0-4-5l-2-1-1 1z"/><path d="M455 326h-1l1-2zm-1 2-2-1 2-1zM321 607q-1-2 1-2 1 3-1 2m810-131q0-2 2-3l-1 2zM790 101l-1 1-2 2-1 1-2 2-1 1h-2q0-3 3-5l22-22 10-8 10-10 13-10 13-11-15 16-10 8-12 10-11 10zM452 329q-2-1 0-2zm277 75-1-1zm-298 83-1-2 4-3 9-7-9 10zM322 605l2-3zm465-124-3 2-3-2 5-3zm-52-70q-4-2-6-7 5 3 6 7M324 602v-4l1 3zm791-72q-1-2 2-2zM296 354v-2q3 1 0 2m1289 140-2-2-1-1-2-2-1-1-1-2-3-4q9 4 15 12zM453 766q0-2 2-3 1 3-2 3M306 582l-1-1 1-1zm2-2h-2q2-2 2 0m147 183 1-1q0 2-1 1m370-329q-1-2-3 0-5-1-7 3l-1-3-8 3q0-2-3-1-4 0-5 3-2-4-3-3l5-4c2-4-7-1-10-1l-13 1h-12l10-2h8l10-2c4 2 7-1 11-1l8-1h7l4-3q4 3 7 0 2-2 1-5-4 0-7 4-3-3-8-1l-6-2c10-3 16 1 18-7q-5-1-8 2h-21l-10 2q-4-1-7 3l-2-5 5-1c4 3 9 0 13-1h13l11-2h8q0-4 4-4l-2 3 1 2q-5 2-5 6 7 0 9-4v2c0 1 5 2 7-1q0-2 1 0l-4 6q-1-3-3-3-4 2-6 6 3 1 8-1h4l2-3q3 0 1 1c0 7-6 2-10 7q-3-2-5-1l-4 2q-1-2-5-1-3 2-7 1l-10 1q-4 0-5 5 4 0 9-4l2 2q3 1 6-2 8 3 18-1l4 1 2-2 2 3c-5 2-9 0-11 3l-2-2zM457 762l2-1zm628-229q-2-2 1-4 2 3-1 4M663 157q3-2 2-4 3-4 2-9c3-1 4-9 13-17l6-6 14-11 7-5 7-5 9-8 10-9 8-7-17 18-9 7-10 9-6 5q-14 10-24 23-8 13-11 25-2-3-1-6M289 593l-1 2-4 1 2-4q4-1 4-5v-1c-3 3-4-1-2-1l6-7 4-6h1l-6 9-3 4 1 1 4-3zm823-21-1-1 1-1zm237-42h2l1 1-1 2-1-2zM394 762q-2 1-1-1 2-1 1 1m720-192h-2l2-1zm1-1h-1l1-2zm2-2h-2l2-3zm-815-3 2 1q-1 3-5 5zm1040 1 2-2zm-224-1h-1l1-1zm-816 0-3 2q1-3 3-3zm165 187q-1-2 1-2 1 2-1 2m653-188h-2q1-2 2 0m-792 0h-2v-2zm178 186 1-1zM373 433h-2l2-9q1-8 7-13-7 13-7 22m409-324h-2l1-1zm828 450-1-2zM737 412l-2-1zm43-301h-1l1-2zm319 449q-2-1-1-3h1zm510-3-2-1zM779 112h-2l2-1zm828 444-1-2q2 0 1 2M777 114h-1l1-2zm-39 300-1-2zM507 748l2-2zM278 556l1-2zm498-441h-2l2-1zM394 748l2-2zM283 551v2l-1 1h-3zm491-434h-1l1-2zM509 746l1-1zM279 419v-5h1q1 2-1 5m117 327 1-1zm114-1 1-1zm786-251q-4-2-6-5l-1-1v-3q6 5 7 9M449 754l1-3 8-8-1 4-6 6zm-52-9 2-2zm114-1 2-2zm-53-1 1-1q1 2-1 1m-17 1q-1-2 1-2zm72-2 1-1zm617-249-1-2h-5l-3 4v-4l-9 3q-3-5-6 0-1 2-3 2l1-3q-5 0-9 4v-3h-9l-2 2-2-3q-3 3-7 2l-10 1h-18l3-2 13-1 18-1q3 1 6-3v3l8-1q2 1 3-2 4 3 9 1c7 1 13-2 18-1q5 2 8-3l2 3q1-1 2 2-5-1-7 2M514 741l2-2zm-16 0q0-2 2-2 0 2-2 2m-99 2q-1-3 3-4 0 4-3 4m897-316v3l-2-2v-1l-1-2-1-1-1-2-1-1q3 1 1-2l1 2 1 3h1v2zM516 739q-1-2 1-2zm-16 0 1-1zm712-348c-7-4-8-11-13-13l-1-1-2-2-1-3-2-1-1-2-2-1 1-3q5 4 8 10l9 10q4 3 4 6M472 745q1-6 6-7 0 4-6 7m-70-6q-1-2 1-1 1 1-1 1m99-1 2-1zm-23 0 1-2zm25-1 1-2zm-23-1 1-1zm24-1 1-1zm-23 0 1-2zm24-1 2-2zM326 179v-5l2-1 3-9 1 1-4 13zm529 262c0-3 2-11 5-15zM482 733l2-1zm-40 9 1-3 8-7q-1 6-9 10m65-10 1-1zm790-299-1-3h1zM484 732l1-2zm-33 0 1-1zm57-1 2-2zM371 439l-2-1 2-5zm114 291 2-1zm25-1 1-2zm-23 0 1-2z"/><path d="M795 436q-3 4-11 1c3-4 8-1 11-1M464 738q-2-1 1-4l9-8c0 4-8 11-10 12m359-301v-2l2-1v3zM474 726l1-1zm815-241-5-3-1-1v-3h-1l-5-7-1-1q-3-2-5-6l-1-1q-3-2-5-6v-1l-1-1h-1l-3-5-1-1-1-1-1-1q-2-1-3-5h-1l-1-1v-1l-1-2-1-1-2-2q2 1 1-1l1 2 1 1h1v2l1 1 1 1 1 1 3 5h1l1 1v1q4 2 4 5l1 1 1 1q4 3 5 7h1l5 7 1 1q3 2 5 6v1l4 3zM475 725l2-2zm-39-512h-1l4-10 6-8c-1 8-9 14-9 18m56 510 2-1zm-15 0 1-1zm17-1 1-1zm-16 0 2-2zm26-448v2l-3-1v-1zM404 720h2q1 2-1 3zm91 1 2-2zm-15-1 1-1zm-28 11 2-5 8-7q1 2-2 4zM325 221v-5c3-3 4-8 4-5q1 2-1 3zm111-5v-3h3zm-1 0h-2l2-3zm62 503 1-1zm-35 0 1-1zm-92 0h-2l2-2zm741-222q-2-3 1-3 2 1-1 3"/><path d="M1125 501q-5-3-8 1v-2h-3l-16 1q-4-1-6 3c-3-4-10-3-13 1q0-3-3-3l-13 1h-11q6-2 13-2l8-1q6 1 11-4-1 4 2 3h7l2-2q1 5 8-1 5 4 8 1 5 2 10-2 3 3 6 1l3-3q-1 3 1 3 2-1 4 2zm181 6q-4-2-7-8-3-3-3-5 4 2 7 7zM498 718l1-2zm-66-490v-6l1-3q3 0 2-3h1q0 10-4 12m31 490 2-2zm-178-2h1q1 2-1 3zm483-273q-2 1-1-1h2zM499 716l2-1zm355-271-2-1 2-3zM324 225v-4h1zm177 490 1-2zm-9 8q-1 3-4 4l2-3q-4-5-9-5l6-6 2 6zm10-10 2-1zm912-335q-2 0 0-2zM487 713l1-1zm17-1 1-2zm-16 0 2-2q0 2-2 2M323 230l-1-5h2zm142 486 2-4 10-9-1 3-8 8zm12-13 1-1zm20-1 1-2q1 2-1 2m-66-471q-1-3 1-3zm105-3-3 4q-1-3 1-4zm-58 474 1-2zm374-253-1-1 1-4zM429 234q0-3 2-3zm71 4q1-4 6-6l5-1-1 3h-4q-3 4-6 4m32-5 1-1zm592 271q-1-2 1-3zM479 700l2-1zm-51-463v-2l1-1v2zm100 2q-1-4 4-6l-1 4zm-47 460 1-1zm53-462v-2zm-52 461 2-2zm-138-4q-1-3 3-4 0 4-3 4m-35-7h-1q-1-3 1-3zm58-10 1-1zm426-228v-2l2-1v2zm-402 56-1 3-7 3q3-5 8-6m107-265 2-2zM368 676l2-2zm129-435 1-1zm26 4q0-4 5-6-2 4-5 6M355 674c-2 5-8 7-8 12-4 1-4 6-6 5-4-3 2-7 3-13l1 1 1 2 6-6zm-80-158v-2q5-2 9-7-2 4-5 6zm247-270q-1-1 1-1zM370 674l1-1zm-15 0 2-1zm168-425-2 2h-2q-1-3 3-5zM371 673l2-2zm-14 0 1-2zm16-2 1-1zm-15 0 2-1zm16-1 2-2zm114-412v-1c3-1 5-6 9-7zm294 257q0-3 2-5 1 5-2 5m69-63-2-1 2-3zM360 670l1-2zm159-419q-2 4-6 7 2-8 6-7M376 668l1-1zm5-156 2-1q0 2-2 1m-1 154-3 1q1-2 3-1m0 0 1-2zm1-2 2-1zm-13-1q-2 4-7 5 3-4 7-5m15 0 1-2zm-114-85q0-4 2-5l8-11q4-2 5-7l-9 8 7-9 1-1q2 0 0-2l3-3 8-6 11-11 5-6q7-9 12-12l-7 8-6 7-6 8-8 10-16 20q-6 10-10 12m99 85 2-2zm49-402v-4h2q1 2-2 4m-33 400 2-1zm-14 0 1-1zm459-204c1 0-8 1-10 5l-1-4-7 3q0-2-2 0-6 0-8 3 1-1-1-3-5 0-6 4-1 3-2 0 3-2 1-3-4-1-7 4 0-3-4-3c-3 1-3-3 0-2q6 2 8-6l1 2-1 3c6 1 6-4 8-4v4l8-3q3 2 9 0h6l3-4q-1 3 2 3l4-3-1 2h2l2-1q1 4-3 4"/><path d="m849 455 1-4zM386 660l1-2zm-15 0 2-2zm116-400v-2h1zm-97 397-3 1zm415-201v-2l1-1v2zM485 260h2l-3 4-11 11-2 4-11 11 8-10 7-8zm728 133-1-2zM373 658l1-1zm43-394 1-3q1 2-1 3m-26 393 1-2zm1-2 2-1zm116-391 2-2zm340 194-1-3h2zM413 271v-4l2-3h1q0 5-3 7M212 833c0-2 5-10 8-10 0 2-5 9-8 10m294-568 1-1zm-2 0h2q-1 3-2 0M393 654q0-2 2-2 0 3-2 2m-13-2q-1 5-6 5 1-5 6-5m0 0 1-1zm121-378h-3l6-6zm16 463q-2-7-6-10l2-6q4 0 8-4l8-8q3-4 7-6l-16 17 6 8 11-11q0-7 3-13l1 9 6-6 2-14q-10-4-16-13-3-6-3-14l-2-8q-1-3-10-7 4-3 6 0 8 4 8 13 0 5 2 9 4 14 19 19c-3 7-4 16 0 18q2-2 2-5c4-1 6 5 11 4q-1-7-7-10 6-2 8 3 4 5 2 11-6 1-11-4l-2 7q-5-2-9-6-4 8-3 14-2 2-4 0l-2-5-2 1-9 9 1 8q2 2-1 5zm5-5q2-5-4-8-2-1-3 1c-1 1 1 8 6 8zm1 1-1 3c0-1 4 0 1-3m-142-82 2-2zm2-2 1-1zm835-251h-2l-3-5q4 1 5 5M412 274v-3h1zm-41 376 2-2zm9-8q-3 5-7 6 1-4 7-6m0 0q0-2 1-1 1 2-1 1m448-182 1-3zM410 277v-3h2zm87-2 1-1q1 2-1 1M280 634h1q1 2-1 0m444-240v3q-3-1-3-4h2zM281 634v-2h2q1 1-2 2m-30 15-1-3 14-14-1 4-8 9zm13-17 2-1zm236-355q-2 3-6 3l3-5 1 2zm0 0 1-2zM220 823q0-3 2-5 0 4-2 5m46-192 1-2zm459-233-1-1zm3 5q-3-2-3-5 3 2 3 5M617 619l-3 4q-2 1 0-1l3-6zm-139-8q-2-1-1-3h1zm15-330 1-1zm-2 2 2-2zm318 180v-2l1-1q1 3-1 3m17 0 2-3zM505 710q2-3-3-5l-4-5v-4q-3-1-2 3-1 2 1 3l-3 6-4 2q0-3-4-4l-1-7q1-3-1-3l3-5q2-5 6-8l2 2q-7 6-6 17c5-3 4-11 8-16 4 0 1 8 7 16l3 1 1-3-3-12-1-1q1-3 2-1l1 1q4 8 4 18-1 3-6 5m-13-6q2-2-1-2-2 3 1 2m-2-420 1-1zm0 2q-3-1 0-2zM357 484l2-12 2-8 1-2v6l-3 14q-1 3-2 2m136-198-3 1v-1zm-3 1-1 1-2 1q0-2 3-2m-5 3 2-1zm0 0q0 4-4 4l1-3zm-4 9q-2-1-3 1l-1 1c-4 0-6 5-9 6q1-5 7-8l6-5 1 2zM222 818l3-4q1 4-3 4m3-4 2-1zm598-346 2-2zM474 306l1-2zm-2 1 2-1zm-6 2 2-2q0 2-2 1m5 1 1-2zm-2 1 2-1zm-170 29v-3l5-9 6-13 1 1-5 11zm168-23q-3 0-1-2zm683 465h-3v-1q2 0 1-2l5-1zm-103 35 2-2zm-1 1 1-1zm-41 19 2-2zm-20-18 2-1zm19 2-1 1-8 6 1-2 8-8zm53 1 2-1zm-76-4q0-2 2-1zm-5 5v-2h2zm61 1-7 6q-1-4 3-5l4-4zm7-4 2-2zm34 28 1-1zm-91-30 2-1zm174-13 2-6-3 2 2-5c1-2 2-11 0-13l2-7q2-1 2 2l1 14v30l-2 6-1-14-5-2q4-2 3-3 1-3-1-4"/><path d="m1164 775-14-1h-7q-6-1-10 3l-2-2-3 2 3 1-1 4 8-7-8 10q-1 2 1 3t2-1v-3q4-5 9-7l-7 8 6-3q-1 3-5 6 0 3 2 1 1-4 4-4l-1 3v2l9-9 7-4-12 12 1 1 15-14 1 1-11 11c4 2 5-2 9-4l-1 5q-7 4-17 2 3 3 8 2-2 8 0 14-9-1-16 5 1-4 3-5h-8l1 14h-1l-1-14-3-1-11 1-8 1-11 1c-5 0-4 6-4 10l1 18v31l-2 4-1-5-3 6h-2l5-10v-50q0-3 3-4l-9 1h-13l-1 12v2h3q-4 2-4 8c3 1 6-7 14-12l-10 12q-6 6-4 13 1-3 4-3l-5 7q1 2 3 1l1-2 5-7 6-7q1-3 5-4l-17 22 3 3q0-3 2-3v3q4-2 3-5h1l1 3q2-3 5-3l-9 14-5 7 8 2c7 2 3 8 6 13 7-17 30-16 35-11q4 5 2 11l-4 4 7 5c15-9 10-22 11-24q1-2 4-2-2 5-1 10 1 6-4 10-1 5-5 6-4 3-2 7c2 4-3 2-4 1l-1-4q-2-6-8-6l-11 2q-3 0-3-2c-2-6 10 0 18-9q1-5-4-8-19-6-28 13c-5 0-9-5-12-1q-6 10 1 19 3 3 1 7l-3-4-4-8-3 3 2 3q0 2-2 1-3-2-2-6 0-2 4-3 0-15 11-17v-6c-1-3-10 0-12-6l8-14q-4 3-9 1-3-2-3-8l-3 1q-3 2-2 4 2 2 1 3 0 2-3 1-2 0-3-5l-5 6-5 6-9 2v4q-3 0-3-2c-2-5 11-4 15-10l7-12q-4-1 0-3l-1-4c-11-2-13 7-22 9v-6q-1-3 3-5l-2 5v1l2 1q2 0 2-3 2-6 7-9l-1-1h-3l3-7 11-9q-2 4-7 8l-4 7 2 1 4-4 5-5 4-3-1 3-7 6 4 2-3 2q-6 0-8 4-4 1-3 5 5-5 12-6h2q-1 2 2 2l5-5q-4 5-4 10l3-1 1-1 3-1q1-4-1-8l1-7-7 6q2-5 7-8v-5l-4 1q5-5 5-10h-7l-7 3q0-3-3-1l-4 2v-2h-2l-11 11-3 3v21l1 22v32l1 24 1 18 1 7 1 19q3 0 4-3h1v3c-4 1-6 10-5 17 7-5 2-11 5-13v3q2-1 2-3 4-2 7-7l9-13 8-10-2-3-11 9 3-6 6-11c2-3 6-6 4-11l-12 11-9 15-3 5q-1-4 1-6l8-13 17-16q-1-3 3-5-2 8-1 12l-1 5 3 2-1 6q3 0 3-2l9-12q3-5 8-8l-7 9-7 9-2 3 1 3q2 3 3 2 5-4 3-10c-1-4 4-4 3 0q0 3 2 1l2-1q6-8 13-14l-7 9c-5 7-12 9-6 18l14-14-1 4q-7 6-11 15l-9 12 12-11 5-2 13-12-7 8q-8 10-14 22-2 1-1 2l29-28-6 8-8 11q2-3 6-2l-4 6-16 17-7 8-6 8-8 9-9 10 5 4 16-20 6-8 7-8 9-10 5-9c1-4 13-14 20-18l-12 14-8 9 12-7 16-9q2 0 2 2l-2 2-11 8-3 5q-6 7-9 15l11-9q-1-3 1-4l3-1q8-2 15 0 9 7-2 22l3 11q0 2-2 1l-5-13q8-7 6-17-4-2-10-2 1 6-5 9 4-4 3-8l-11 7-19 19-4 6-7 8-7 8q-7 6-11 16l6-4q-2 5-8 8c-4 3-15 5-15 0q13 2 14-6c0-4-7-6-10-16q-2-1-4 2-1 2-3 1l3-5c-11-3-14 3-15 3l-3-2c1-4 7-5 7-10l2-5q3-5 1-10 2-3-1-2l-3 5-5 7q2-8 7-15l-5 1c1-5 7-8 6-10l-2-2-2 2-7 12c-6-1-3-7-4-11l-3-9-3 1q-3-5-5-13 4 2 7 0l1 7 3-1-1-17-1-9-2-20v-47l-1-14v-16l-1-33-1-35q2-8 0-14l-1 12q-3-1-3 2v42l1 16v55l1 16-1 33v20l-2-4v-26q0-7-2-12l-1 16 1 34c0 1 4 4 1 7l-3 1q0 3 2 2h6c-1 5-7 0-11 4l-10 11-2-1-1-13c-13 5-12 17-15 16-3 0-1-4-2-5q-2-2-2 1 0 4-2 0l-5-2-6 7v4l3 3q-3 3-6-1-3-7 8-16 3-4 1-7l-2-5h-4q-3-3-6-1l-1 1-3 4q-3-2-1-6v-13c-2-3-7-4-7-7l3-2 9-1q10-6 6-17l-3-2q2-3-1-6-2 4 0 7l2 5q1 3-2 2-1-4-6-6l-9-2c3-6-2-10 2-13l5-2-1-7-4-13-1-14q6-6 5-20c-10 5-14 17-15 13v-2l5-10q0-3-3-2-5 1-5-3 2-7 9-9 3 1 1 4c-2 3-2 1-3 2q-3 1-1 3 4-1 4 1l1 4q5-4 10-2c2 13-7 22-3 37l3 11q0 9 3 15 4-5 0-9c-3-8 3-14-4-17-2-4 4-2 5-7q1-4 4-3c9 7 2 21 10 27l1-19c4 0 1 6 4 13l-2-1s-2 9 1 14h1v-4l3 1v-6l-1-1-1-2 2 1 1 1 2 6 1 15 4 3q2-9-1-17 0-8-5-14-4-4-2-10l2-3q3 4 2 9h-1 2q2 9 5 14-2 0-1 3l2 9v10l3 3q1-7-1-12l-2-11q3-7-1-15l-6-11q-1-5 3-2 1 6 5 11 0 3 1 1-2-3 1-4l1 10 5 8q1-5-1-11l-5-16-2 7-1-8q-3-5-1-10l3 5q-1-4 1-7 0 7 2 13c2 6 3 7 3 11l1-8v-8l2-1 1 3 3 13 1 10c-1 3 3 3 2 0l-1-53-2-2 2-2v-10l-2-3q2-1 2-6l-5 5c2-5 8-7 4-10l2-3q-1-2-3-1c1-2 5-3 2-7l-3 3q-4-3-9 1 0-3-2 0l-3-3-2-1-2 2-5 2-3-2q-2 1-2 5l-2 1-1 2-2 1-2 3 3-1v2l8-7 3-2-6 8q-2 0 0 1 0 2 2 0l4-5 4-2 4 3 5-5c-3 6-7 7-3 9q-2 1-1 5l5-5q0 3 4 1l-2 5q-1 3 1 4l-3 3-1-2c-1-3-4 5-8 5v-13l-1-7c-6 5-7 12-15 9q-2 3-7 5-1-4 1-10c-8-1-7 8-10 9l-1-3 2-4v-4c-1-2-4 0-6-2-5-3 3-5 8-10l-5-4c-2-1-7 3-5 5v3q-5 0-4-4 2-6 8-7c6-2 9 5 11 5h13c7 4 11-4 14-2q3 3 5 1 6 3 12 0v-39l-1-22c0-5-4-4-5-6l1-4-1-3q0-3 5-3-8-4-7-21-3-1-2 3t-3 4c-6 0-2-5-5-12l3-3 1-2h2l26-1-1-9 4-34-1-4q3-1 2-6l-11 10q-1-3 2-4l8-6q3-2 3-5 2-2-1-2-6-1-10 1h-9q-2 0-2 3l-3-1v3h2q3 0 0 2-4 2 0 6 4-6 9-9-4 6-10 11l6 35q0 5-2 9l-6-37-4-19-5 2 4-4q-4-1-6 2-4-3-7 1l11 39q4 8 4 15-4-2-3-6-3 2-1 5-1 3-2 0l-9-26-7-25q-8-3-9-17l10 2 17-16 6-6q2 1 5-3-3-1-6-5l3-3q4-6 9-9-5-8 4-15 5 5 4 12-1 4 1 6l8 11-5 1q-2 2 0 3c2 3 6 1 8 2l2 4 11 12q1 4 5 5 5 1 8-1 2 1 1 4c-4 5-1 9-2 11q-1 2-4 1l-9 32-7 25 4 5q0 4-2 5-3 2-7 1c-4 3 0 10-6 16l-4 4c-2-1-2 2 0 1q6-1 7 5 1 4-6 6l1 28v23l1 12v13l7-7q3 0 3-5l-6 1-2-2 25-1 5-3 8 2 16-1 33-2 17-1h14v-8l-38 1-7 1-56 1-4 1q-7 2-13-1l17-2h32l7-1 39-1 18-1q-15-5-28-13l-12-7q-10-6-18-15h-14l-7 2h-30v-3h49l-1-3-3-1-6 1h-40l-1-1 33-1 8-1h8v-5q10 15 25 24l11 6 6 5q0-3 2-5l3-1q1-2-2-3-2 0-1-3h43q-2 4-6 3 1 2 2 1zm-140-175-4-6-4 4q-2 3 1 2zm0 11c-2-4-4-3-6-5q-2 0-3 3 5 3 9 2m-17 15 15 2c3-2 3 3 0 1l-15 1 6 2 19-2q1-3 5-6l-9-8q-8-2-16 0l10 1q-5 2-11 0-3 3 1 3 5-2 9 2-5-1-10 1l6 1-1 1q-4-1-9 1m-7 1q4-2 5-8-4 2-6 8m40 7 10 2q1-2-2-3l-9-7v6l4 1zm-38-3v3zm-13 1 1 1zm45 2c1-2-2-2-1 0-1 3 2 3 1 0m15 5v2l1-1zm1 5c-3 1-8-3-14-2l-8 49-2 11h9l2-15 10-36 2-6zm-63 15-1-7-2-6q-1-1-3 1l1 2 4 11zm64-14-1 1-5 20 2 2 5-21q1-2-1-2m-64 15q-1 6 2 10l1-1zm59 10q-1-2-2 0 2 5 2 0m-56 0v3l1-1zm2 4-1 1 1 3zm52 0v3zm-51 4-1 1 1 4zm50 2q-2 0-1 3zm-48 4v3zm46 0v3zm-44 7h-2q1 3 2 0m37 18q4 0 3-5l-10 4zm-31-2a2 2 0 1 0-4 0 2 2 0 0 0 4 0m39 4c1-3-4-4-4 0q1 4 4 0m-27 16v-14l-8-1 1 7 1 8zm12-1q-1-8 2-14h-10q2 7 1 15 3 2 7-1m-8 3h2zm-4 9v3zm0 7h2zm4 1-1 1 1 1 1-1zm3 6q2-5 0-6zm104 30q1-3-1-1t1 1m1 2h1zm-158 35h2l4-4-1-1zm96 18h1v-23l-1 1zm-103-12q3-2 2-6l-3-2-5 4q4 1 6 4m9 5v1l1-1zm26 4q2-3-1-1-1 2 1 1m69 10-1-6-1 5c-2 3 2 4 2 1m-4 2 1-3q-5 0-1 3m-2 2q-5 1-5 5zm-94 47-3-7q-2 2 0 6 1 3 3 1m18 1-1-4q-2 2 0 5zm24 26q-2-4-1-8l-1-9-1-9-1-1v22l1 8q3 0 3-3m-43-17q-6 0-1 11h2q2-5-1-11m36 26q2-13-4-22v16q0 4 3 6c-1 3 2 2 1 0m-47-9c-4-3 0-8-5-7q-1 5 1 9 2 3 6 2zm16-7v12c-1 4 3 4 2 1 3-7 1-14-2-13m8 4 2 5 1-7zm-11 6q2-4 0-6zm10-2v1l1-1zm0 13 1-1-1-8zm88-4q-1-3-2-1l-7 11zm-83 14-1-6q2-3 1-6c1-4-3-4-3-1l1 18 2 8zm-8 22h1v-21l-1-4-1-10c-5 2-2 8-1 14l1 11zm12 11 3-3v-14l-1-12q2-9-4-18l1 15 1 10c0 4 3 8 1 11l-2 7zm15-42-2 6 1 4v24l1 11q0 3 1 2l5-6v-35c0-4 3-7 0-11l-1 9h-1v-7q-3 5-1 10l1 8v23l-2 4-1-25-1-7zm-8 9q2-5 0-6zm88-3q1-3-2-3-1 3 2 3m-15 8q0 3 2 0 5-3 6-7 0-2-2-2-3-2-6 1l-7 10-8 12-8 11 3 1q4-2 6-6zm-100 15q1 2 3 1l-1-23-3 3zm92 8 6-8 14-15q3-2 5-6c-10 2-11 7-14 10l-18 21q-3 3-2 7zm-9 22 9-11 6-8 10-12q5-10 12-18l-25 26-5 6-5 6q-5 6-2 11m-88-32q0 3 3 1l-1-17-7 1 1 6 2-4zm89 48 12-18 6-7 8-9 5-6 11-19q-4 2-5 5l-20 19-5 7-13 17-5 13h5zm-71-48-2-10q-2 6 1 12v19l1-1zm122-5-2 1-13 12-12 12-8 10-13 16 2 1c1 2-4 3 0 4q5-4 9-10l8-9 6-8 6-7 13-17 3-4zm-108 15 4-1v-12l-1-1-1 8q-5 3-2 6m108-12 1-1q-2-1-1 1m-15 50 9-11 11-12q5-12 13-21l-7 2 3-4-18 15-34 44 7 7 3-4 7-8zm-129-43v1zm15 5q3 1 1-2zm12 1c1-3-4-3-3 1l2 5zm-10 0v7q2-3 0-7m71 10q1-2-1-1-2 3 1 1"/><path d="m1079 851 1-2q1 2-1 2m52-73 2-1zm17 0-1 2h-3l1-3q3-1 3 1m-170 42v-1h1zm104 27v-2l4-4-1 3zm61-66 1-1zm-2 1 2-1zm4 1 2-2zm-141 34 2-2zm-2 8 1-4 1-1 3-1q-1 5-5 6m142-41 1-1zm16 0q-1-2 2-2zm-139 190q0-2 2-1 0 2-2 1m18-1h-2v-4q1-3 4 0-3 2-2 4m-2-153 2-2zm105-35 2-1zm-138 52 1-1zm39-17 1-1zm25 131h-2l1-3zm-1-3 2-1zm2-1 1-3q2 2-1 3m1-3 2-2q1 2-2 2m12-99-3 1q1-5 6-7-3 2-3 6m-32 104-8 12 1 1q-3-1-1 2l-1-2-4 4q0-3-1 0-3 0-1-3l4-8h1l6-9q2-5 6-6l-6 9zm-9 9 1-2q-3-1-1 2m-39-121h2l1 3h-3zm-10 76q-2 0-1-2 2 0 1 2m49-92 2-1zm39 28 2-2zm-2 1-3 2q-1-3 3-5zm-99-31 2-2zm24 9 1-1q-1 3-1 1m1-1 2-1zm-5 0 2-1zm-18 0h-1l-1-1zm25-1 1-2zm-5 0 1-1zm48-12 1-1q1 1-1 1m-9 9-7 8v2q2-3 6-4l-8 9v-1q1-3-2-3l7-8 1-3zm-33 1 1-1q1 1-1 1m-33 1-1-2h2zm66-2 1-2zm-65 0v-1h1zm20-7h2l-3 3zm164-9 1-1zm-118 9 2-2zm-52 0-1-2q2 0 1 2m171-10q0-3 1-2 1 2-1 2m-1-5 1-1q0 2-1 1m-119 16 1-1zm119-16-3 5 3 1-1 6-3-4q-3-10 3-18l-1 9zm-484 69-6 9q-1 3 1 2 4-3 8-3-4 4-12 7-3-2-1-5l6-8zm118-50 1-1zm-63 45v-3zm0-3q1-3 3-2-1 2-3 2m-47-3v4q-2 6-8 7c-2-4 4-10 8-11m12-37v-2q2 1 0 2m-3 32-2-1q1-3 2 1m42 3q0-6 4-8 0 4-4 8m-18-8q0-3 2-2 0 2-2 2m102-3h-2l1-3zm-100 1q-1-4 2-5 2 2-2 5"/><path d="M690 853q-2 4-7 6l1-7 9-9 2-1-1 3-6 8zm129-9-2-1 2-3zm-153 18 1-1zm155-21-2-1q-1-2 2-3zm-6-2v-2h1zm-95 3q0-3 4-5 0 3-4 5m96-5 2-1zm-140 0h-1l1-1zm142-1 1-1zm-38 3q0-3 3-5 0 4-3 5m-103-3 1-2zm144-1h-2l1-2zm-97 2 2-4q1 4-2 4m14-4 2-1zm-59 1h-2l2-2zm104 0q0-3 3-4 0 4-3 4m-104-2 1-2zm107-2 1-1zm-106 0 2-1zm86-10q-1-3 2-4 1 3-2 4m-84 9 1-2zm105-20 2-2zm7 10 2-2zm-54 13 1-3q1 2-1 3m76-2q0-3 2-4zm-133-3 2-1zm-17-58 2-1q0 2-2 1m-1 2 1-2zm108 39 1-2zm-121 16h-2l1-2zm11-54 2-1zm30 6q0-2 2-1 0 2-2 1m40 82q-1-4 1-3zm-55-36q-1-2 1-1 1 2-1 1m14-44 1-2zm-23 4h-1l-1-1 2-1zm47 24h-1zm65-10q1 11 6 11 0 11 6 11c0 2-4 8-6 9l2-6-4-8-5 3 2-4q0-9-5-10c3-3-2-7-2-10q-1-6 5-10-6 9 1 14"/><path d="M696 800q0 4-3 5c-6-5 1-11-2-17l-3 4q2 2 1 6-1 13 6 22-7-5-8-14l-3 4q-3 2-4-1l-2-4-10 11 11 2 16 4 7 3 10-14 3-3q1 3 1 0l2-1 5-6c4-3-1-6 2-10l-6 4c-8 5-7 10-11 11l2-7-13 12 1-3 9-10q2-2 0-5l-4-2 14-26q1 4-2 7l-4 10-3 6q3 6 9 3l6-9 1-14-3 1q-2 0-1-2l1-1 11-10c1 9-6 13-5 20l5-7-2 7q3 1 2 2l-5 3-7 10q9-4 13-11l9-6 6-10-3-11-5 5q4-5 4-11 3 1 5-2l3-4 4-3-5 6q-4 4-4 10l2 7q5-2 6-6l5-6q2-3 6-5l-6 7-4 6q-5 5-5 12h1l6 12 7 7 2 4 1 1v1l-2-2-8-8q-6-6-7-14l-1-1-1-2q-4 4-6 11-5 3-8 10l12-8q3 2 0 4l-19 14-5 8c17-2 21-17 27-19l4-1-7 15 11-6q1-3 4-2l-6 8-6 13 7-4 13-12-2 6q2 3-1 4c-12 6-12 19-8 17l7-5-2 4c-2 2 1 9 4 9l8-10 4-5-10 17 5 8 5-4-2 5q-2 4 2 7l3 5 11-16q3-3-1-8c2-3 4 3 6 2l1-2-4-15q1-9-3-16 2-4 1-10l-2-6q0-4-3-9l-2-5-4 3h-6c-7-4-4-21 3-23l10-4 6-6-2 6-5 8c7 3 12-3 18-4 1 6-10 8-18 7q-4-2-4-5c-3-3-6 1-7 3-4 8-2 16 2 16q5-1 6-13 3 0 2 3c3 3-1 5 3 13l3 5q1-9 7-16 2 5-1 8-3 7 3 11c5 1 8-8 11-4q1 3 3 3c5 1 6-5 12-7l-1 9q1 3 3 3c3 0 5-5 8-5 3 5-3 5-3 7l-14 21-4 16v-6c-4 3-3 9-6 13q-1 2 1 3c-1-3 3-5 3-6l-1 7q-2 2 0 2l-6 11q-4 5-1 11l5-11 3-5-1 5-4 8-3 7q-1 4 2 9l6-22 2-6 1-2 2-3 3-6 5-8q-1-2-1 0l-7 10-1-2q3-1 0-2l7-9 12-17-4 10 5-1q-8 10-14 21-10 14-13 33 6-5 8-12l10-20q4-10 10-17l-20 42c15-3 10-14 18-18l-5 11q-1 3 2 2l4 1c2-1 3-8 8-10l-8 16-4 11q4 0 7-2 0-14 12-17c7-2 18 3 22 8l1 1 1 1 1 3h1l1 2 2-2 12-6q4 9-2 17l-8 13q-2 4 1 6c6 5 8-8 17-10l-7 9q-4 6-9 5-7-2-6-10l7-10 4-7q3-4 1-9c-6 1-10 7-12 7q-2-1-2-4h-1l-1-2-1-1-1-1c-9-6-20-11-25-5-5 7-2 14-5 17-6-3-11 2-15-1l4-16q-5 1-6 4-7-2-10 5c-4 9 4 12-1 14q-3-3-5-1c-3 1-3 8-5 6l-4-3q-2 0-2 2l1 2v3l-2 1-1-2h-6q-4 2-4 6c1 6 6 13 1 14s-7 4-7 9c-6 2-2-2-7-10-3-5-6-1-14-1-4 10 7 13 4 18l-17 1c-5 1-17 13-16 16l3 1 17 1q0 3-2 4c-7 4-14 13-13 16l5 5q-5 0-8-3c-4-4 3-13 12-19l-12-1q-2 0-5-3c-2-7 14-19 18-19l12-1q4 1 3-2l-6-8-8 1q-1-5 3-8h-10q-1 3-5 2l3-4q-4 3-7 0l-7 8q-3 1-6-1 7-8 9-22l-8 13q-4 3-1 7l-2 1q-2-1-2-10-1-6 1-10-6 1-7 3l1 4q-6 1-12-2l-7 8 6 11q4 5 5 10 0 4-4 3 0-5-2-9l-1 3c-2 1-8-2-12-1s-7 4-11 2q-3-1-2-3c0-1 5-4 6-3l2 2 9-2 8 1-5-7q-3 0-5 2l-8 2-9 3q1-6 6-5l10-2q4 0 4-3c-4-5 1-7 6-12l-8-6q-7-2-5-9c-4-1-3 5-7 4q2-5 5-7l6-4v-1l3-9q-2 3-6 4c-2-7 5-10 8-17l10-11q1-3-3-3l-4 2-1-3-4 1q-9 5-13 15-5 6-8 14-4 0-3-3l10-14-9 9 1-4-4 3q0 3 2 2-1 6-5 8c-6 3-18-3-21 4q-1 10 9 12l8 1c8 1 0 12 9 17q-3 2-6 0c-6-5-1-11-3-13s-14 1-20-10v-9q2-5 7-5l13 1c4 0 1-8 4-10l10-7v-6l-4-4q-7-1-13-13l-6 6q-5 1-8 5-2 6-8 8l-4 2-4-2-3-6-13 5q-7-2-6-8 1-7-2-10c-2-5 4-16 11-18q3-1 3-4l-2-3v-10l5-6q-9-2-16 2v5l-4-2 1-7q-2-5-1-11-1-4-4-5-2-1-4 1-2 5 0 10 0 3-4 2c-5-4 1-12-5-17-11 7-14 20-21 19l-7-5c2-3 3 2 8 2l4-3 7-9-1-1h-3l-2-3v-10l2-2 1 3 3 11v1l7-6q3-4 9-7l-6 7 6 6q4-4 9-1c7 3 3 9 6 17q-2 2 1 0c7-2 16-2 17 2q1 4-3 7-3 4-1 10l3-4 1 2-3 3q2 4 1 7l-6 2q-8 5-7 15l2 5q-3 4-1 8c6 3 12-6 19-2q0 4 2 7l8-4q3-9 12-12v-33l1-20v-8q1-6 7-4h53l6-12c-8-5-15 2-16 0l-1-4q-13-1-21-9 3-7 10-6c11 2 24 3 29-2 2-3-3-6-7-11l2-2 7 2-4 1q7 5 5 10l1 2q0-4 4-5l-7 15q-1-6 2-10l-1-1-6 4-14 1c-5 1-9-2-16 0q-3 1 8 7l12 3c2 1 20-2 16 7l-2 6 1 1 10-16-4 9-5 8h-2l-1-1-3 8-6 9-9 13-3 9zm-46 26-2 3 4-3q2-2-1-2l4-3q1-12-1-23v-7q-1-2 1-5v-9q-2 1-2-2 5 0 10-3 0 3 3 2h37q3-4 3-7h-30q-5-2-8 1l-3-1h-15l-1 29v24q-1 3 1 6m42-46-7 6c4 3 6-3 12-5l1-1q3 0 4-5l-7 2q-1-2-4-1l-3 2v3zm-34 1q4-3 1-4-3 4-1 4m30-4q-2-2-3 1-4 2-6 5l-11 12-2 4 17-18 4-2zm-10 3q1-4-2-1-2 3 2 1m-19 5h1l3-3-1-1zm8-2q-2 0-5 4l-5 5 1 1 10-9h1q2-1 0-2 0-2-2 1m31-2-2 1 1 2 2-2q1-2-1-2m103 10-3 6v12l1 8c1 10 7 13 5 24q0 5 2 9 5-7 4-16l-1-13q-2-13-1-26 3-4 3 0l1 19v12l5-12 4-12 3-7 1 7 7-12q-3 1-5-2l-2-6q-7 5-14 1l-8 3q-2 0-5-3-1-3-3-2c-2 1 1 6 1 13zm-130 14q0-5 4-8h5l4-8q0-2-2-2l-4 5q-7 5-10 12l-1 1 3 1zm16-4 1-2-1-5-1 1zm43 11c0-3-4-1-9-3l-3 8-4 5q-1-3 1-8l-11 14-6-2-5 8 13 1q3 2 5 0l8-11v4l-3 4q-2 5-6 6h-3l-2 7q6 0 11 4l1 2 4 1q4 3 3 9l6 4q-1 4 4 6l-4 4c0-4-4-12-7-10q-7 6-9 13-1-3 1-6l-5 3q-5 3-3 9-4 0-4-3-1-1 1-4l2-12c-5 8-11 10-6 12q-1 5-6 5-4-5 0-11l-6 5v2c0 5-6 10-1 12 7 2 10 7 15 6l-2-5q0-3 3-3 4 1 6 6 3-2 1-4l1-7q1-4 5-4h3c1 2-3 6-2 11l7-12q2-3 4-2 1 6-1 12 3 2 5 0c3-1 4-7 1-8l3-6 4-8 1-1 3-7 6-12-7-2c-1-1-2 4-5 5l2-5q1-3-1-2-2-3-3-2l-3 2v-4l-2-2-5-3 2-4 1-1 7-13 2-2q-1-2-3-1l-9 9-6 2q-1-2 1-2 1-5 6-6h2c6-7 15-9 17-20l-6 5zm-53-9q2 0 2-3l-4 4q1 1 1-1zm-10 0q0-2-1 1l-5 4-1 1q-3 2-1 6l8-11zm11 21c-2 6-10 9-8 16l5-3-2 5q4-2 3-5l2-1 1-2 6-4-6 9 9-7 7-6q-5-3-9-2-3-3-7-1c-1-4-8 2-13 9q-3 0-2-2 3-5 1-9-2 4-5 3 3-7 8-12l2-4q2-1 1-2h-1q-7 6-12 16l1 8 5 7 10-10q1-3 4-3m69-7q0-6 4-12c-7 2-7 7-9 13q-1 3 2 2zm-88-9q2 1 1-1zm15 12q-3-2-5 0t0 2 5-2m64 13v4l5 2 9-14v-5l-5 5-6 4-1-2q-3-3-2-7-5 4-8 9l2 4q4 3 6 0m19 3q4-7-2-11-3 1-3 3-2 3 1 1t4 0l-1 3-9 4q-2 2-1 4 3 3 6 2l4-5zm0 3-2 4 6 2 4-7-5-5-2 4zm44-2v-3zm-124 14 7-12q-10 6-7 12m94-3-3-8-4 6q4 3 7 2m19 17 6-12q6-9 2-13l-5 7-6 14q0 3 3 4m-89-9q8-6 6-9-5-3-7 8-2 3 1 1m55 0 2-6c1-2-4-4-5-3q-4 5-6 11l-5 8-1 2-4 11 3 4 13-25h2zm-45-5q1-3-2-1-3 5-4 11 4-4 6-10m43 17-2 3c-5 5-5 13-1 11q5-5 9-13l9-16q-4-3-9-2-1 4-4 6v2l-2 4q3 0 4-5 1-2 2 1l-5 8zm45-7 1-8q0-2-2 0l-7 16q1 3 3 1zm-108 3q6-2 7-8 1-4-2-2l-6 9c-2 1 1 3 1 1m30-1q2-2 1-5l-3-2-4-3-9 20q6-2 8-5zm39 26 7-10 6-8q5-4 5-9-1-5-7-8l-5 10 2 1-5 13 5-8q0 6-4 11-3 3-4 8m-57-25q-1-3-3-1l-4 8q4-2 7-7m96-2-6 11 3 5q5-7 4-15zm-46 4q2 1 0-1zm12 0 1 1zm5 37 4-11 11-19c2-2-1-6-1-7l-2 2-10 20-6 9v6zm-7-34v1l1-1zm-1 3h2zm44 12-4-13-3 14zm8-3q2-5 0-9-3 2-2 7-3 4 2 2m-53-6-1 1h1zm26 4 2-3-2-1q-2 0-1 3c-1 3 2 3 1 1m-46 8h3l1-2 1-6zq-4 1-6 6l-3 14q10-8 10-20m45 9 7-11-2-5h-2q-4 6-5 14-1 3 2 2m-28-12v-3zm37 5q4-3 2-7-3 3-2 7m-13-3q2-2-1-2l-4 10q4-2 5-8m-59 12 2-11c1-2-2-2-1 1q-3 6-1 10m46-12v2l1-1zm-18 19q6 2 5-1c1-5 9-5 9-16q-2 5-9 7l-1-6c-5 3-2 9-4 16m-45-11q-3 0 0 2zm77 8q1-3-2-6 1-4-2 0zm-76-4q-2-1-1 1m76 5 5 6q3 3 2-1l-3-9q-4 2-3 4zm-13 2 9-2q0-2-2-2l-6 3zm13 2h-3zm-22 5q1-3-2-1 0 2 2 1m24 1 1-3h-2q-2 0-1 3z"/><path d="M718 807h-2q1-3 2 0m72-20q0-2 2-2 0 3-2 2m-1 2 1-2zm13 1 1-4q1 2-1 4m-28 18q0-3 3-4 1 4-3 4m-6 8 2-2zm21-9q-1-3 3-4 0 3-3 4m-104 19q-1-2 1-2 1 2-1 2m42-11q-2-2 1-2zm65-12q-1-2 1-2zm-5-12q0-2 2-2zm-59 85 2-1zm-32-76 2-2zm74 14 1-3q1 3-1 3m11-16 2-1q0 2-2 1m-83 0q-1-3 3-4 0 3-3 4m85-1q0-3 2-4 1 2-2 4m-55 16 2-1zm-27-19 1-1zm-20 87-3-3 2-3zm90-70 2-1zm14-18 2-2zm-83 0 1-2zm99-2 1-1zM640 455v-3l3-2q0 3-3 5m-34-4-1-3 2-1zm4 1q-1-3 2-5 1 3-2 5m0 6v-3c6-3 6-12 10-8zm0-3-3 1q-1-3 3-4z"/><path d="M608 528q9 4 8 12-2 4-8 2l-16-7q-10-3-15-12l16 9 14 7h6c-1-8-13-12-22-17q1-3 5-1l6 3v-46l-1-35q-1-7 1-13c8-1 16 3 21 3h8l10 1 17 2q0 3-3 2l1 8v32l-2 7 1 23 1 7q1 3 4 4 3 2 0 2h-6l-17-2-9-1-11-1-12-2v9l20 1 12 2h20q12 3 11-2l1-10-1-10-1-62 2 1v51l1 6v25q7-4 10 0-1 5-5 8-3 6-7 8-2 0-2-2l2-1 8-12q-7 1-12 7l-9 14q-2-1-1-4 4-8 10-14l-21-1-9-1-9-1h-15zm33-91-12-2-10-1-14-2q-4-1-3 3c13-2 27 4 39 2m2 13 1-4q-3 0-3 2l-1 4-4 4q0-6 4-10h-2l-7 14 3-1h1q2-3 5-4l-2 5h1l7-7-6 10-5 8-1-1 4-8v-2l-7 11c-1 5 7 0 15 5-6 2-10-2-16-1q-2-16-1-31h-5v8q1 11-1 22l-19-2v29l1 8 15 1 7 1q4-1 9 1c7 2 19-2 12 3l-8-1h-11l-5-2-16-1-3 1 2 2h10l7 1 9 1 10 1 10 1v-75l-1-4h-28l-10-2-11-1q-2 2 1 3l34 4 12 1q-2 12-1 22c1 4 3 8-2 11v-15q-4 2-4 6l1 2h-1l-1-1-1 3-1-1 3-6 4-6v-12zm-37 1q-2 1-2 7l3-2-3 6 6-4c-2 5-8 7-5 12h6l4-10v-1l-8 9q3-9 13-16l-5 6 1 1 2-1q-1 5-6 12l4-3 1 4h5v-26l-6-2q-1 3-4 4l2-3-2-2-5 5 1-3q-2-3-4-2v5q-1 3 2 4m29-5h2zm-2 3h1zm-1 3 1 1zm2 12q0-3-2-1-1 2 2 1m-26 62h-2z"/><path d="M635 459v-2l2-1zm883-1 2 1 1-1q0-3-3-3l-1-3v-3l2 1h1l-2-4-2 3-8-8-6-3 2 4c-2 0-7-2-7-5l-2-12-1-1-1-3q3 1 2 2l1 1 3 8c2-5 1-12-4-13q-5 2-8-1l-1-15q-10-7-12-19l-1-11-5-19c-2-7-10-15-15-16-10-2-16 10-18 21q-2-5 1-8 2-8 8-13 10-7 21 0 8 6 12 18l7 29q3 10 10 17l1 14q11 6 7 20 9 3 17 9c4 3 13 21 14 28l4 20q3 26 3 53v7l-1 12v7q4-1 8 1l12 1 28 3c10 1 20 2 18 5l-3 2-5-1-30-3-18-1-5-2q-9 1-16-4v-28l2-4-1-17v-14l-1-11-3-13q-1-12-5-23zm-55-117q2 2 1 0zm3 1-1 1zm1 1-1 1 4 7 1-1zm4 8q-1 4 2 7v-1q1-4-2-6m3 7 1 3zm4 15q0-3-2-1 0 2 2 0m12 29-9-18-2-9q-3 20 11 27m2 2q-3-1-3 3v8c0 3 4 3 3 0zm7 31c1-2-2-2-1 0l1 2zm1 2v2zm20 15 1-1q-2-1-1 1m2 7 1 2 1-1zm1 3q-1 3 2 6v-1q1-3-2-6m3 9 1-1q-3-2-1 1m4 6-1-5zm0 1v7q2-4 0-7m-2 5v-2zm2 5q-1-2-2 0 2 4 2 0m2 6q2-5 0-6zm-2 11 1-1v-9l-1 1zm4 28v-10c-1-5 1-9-3-12v61l2-1v-27zm3 36 1-13v-26l-2-15v34l-2 5v16c0 3 4 2 3-1m20 8q-7-3-13-3-4-2-10 0 5 3 12 2 6 3 11 1"/><path d="M1517 452q-1 1 1 3v3l-4-5q-3-2-3-6 2 3 6 5m-9-7q-3 0-4-3 3-1 4 3m1 1-1-2zm2 1-2-1zm-103 542q-2 1-2 6l1 7v11l2 8 1 7q2 3 1 8-2 7-4-8l-1-9-2-9-2-28-1-19-1-5-1-15-1-9c1-4-8-11-3-26l3-10q-3-1-3-6l5-17 8-30 1-8 1-10 1-7v-14l2-11q0-3-3-1l-6 10-6 6h-10l7 12q4 7 3 13l-7 7-14 9q-9 3-16-5l-4-6-7-7c-6 9-8 23-15 25-4 1-8-8-7-17l5 13h4c6-11 8-23 11-25l3 1c8 4 10 16 18 19q7 2 10-3l12-7c8-6 3-16-5-25l-5-7-1-2 1-2q13 8 19 3l4-7q2-8 11-11c7 0 13 18 7 31-2-12 2-22-6-28l-2 15-1 7-1 15-1 9-2 10-1 8-4 16-5 20 4-3 8-8 11-12 8-9 12-17q8-10 11-21l-3-10-9 6-15 6q-3 0-4-3 16-4 32-15-1 8 2 14c5 6 15 4 25 3-6 5-19 6-27 0l-5 18q-1 5-5 6l-7 7-5 7-11 12-15 17q-5 5-6 13l-3 8q-2 8 1 14l3-6v9l1 16 1 10 1 11 1 13 2 2-2-20-1-9-1-9v-26l2 1v22l2 8v12c1 9 4 22 1 31M483 138l12-16 13-17 15-19 6-7 10-8c20-15 21-20 20-45l-2-2c-4 2-11 14-11 25q0 3-3 4l-5-20q-1-4-5-6c-10 19 6 29 6 31q-2 3-5 2l2-2c1-2-5-5-7-8q-5-13 2-24 5-3 8 2l5 15q4-16 15-22c5 6 2 18 1 28q5-3 8-8l24-24q3-4 8-4l-33 33-6 8-6 8q-22 14-36 34l-20 27-6 9-4 7-10 11c-8 8-12 22-16 22q-3 0-2-3l3-6 9-12-2-5 9-35 4-13 6-31 5-21q1-9 6-18 0 13-4 25l-4 22-5 21-8 28-4 20q-1 3 2 1zm221 497 1-1 2-3 1-2 3-1-1 2 1 2-6 7q-3-2-1-4"/><path d="m708 629-1 2-2 3-1 1q-4 1-5 6h15l-1-9v-14l1-3 2 1v21l1 26 2-31v-18q-5 2-3-3 3 1 5-1v19l-1 22-2 29-13-1-33-1q-1-3 2-1h40v-25l1-8h-9l-8-2v-30l-6-1v30q-1 3-3 2l-16-1v31l-1 1v-32l-1-5v-30q4 2 7 1l34 2 2-1q2 2 0 3l-3 4-3 5 4-3c2 5-4 8-4 11m-20-13q-1 3 2 2l1-3v-5l-4 4q4 0 1 2m-14-4h2zm9 0-1 1h1zm18 3q2-2 0-3l-2 3q0 5 2 0m7 0q1-3-2-1l-2 7q2-1 4-6m-27 0h2zm-7 3h2zm10 0h2zm4 5q4-1 2-4zm-14 2v3zm16 3q2-3-1-2-3 2 1 2m-2 4-6 6q-2-4 0-6l-2 1h-3q-4 0-3 5-2 4 2 3h14q2-5-2-9M533 464c-3-2 0-9-1-17l-7 2-14 7q-6 2-8 8 9-1 14-5c2 6-13 11-16 7q-3-7 9-14l13-7 10-4-1-5q-5-2-9 1l-5-2q0 3 2 5-1 3-3 1l-2-4q0-4 5-5v-5l10 2 5 2 6 2 1 13q9-4 5-18l-16-2q-8 1-14-3l9 1 24 2v13l3 1c4-4-1-14 4-22l-1 20q12 0 18 8l-2 4c3 2 7 0 9 3 3 5-6 13-15 19q8 1 14 4 3 2 2 7l-4 4 12 5 4 2v-70l1-1 1 55q2 4-1 10v10c-7-7-18-3-23-11l8-5q-2-4-7-6h-7q-5-2-3-6l10-6q5-3 6-9c-5-1-9 1-11-2s3-7 1-8c-10-6-21-1-28 7q-2 4 0 7-2 6-8 5m5-30h-2zm-2 25 2-9 1-13q-4-1-3 3c2 5-2 12 0 19m1051 260c-11-4-2-23-15-25-7-1-11 3-16-3-5-7-13-2-22 2l-6 3-3-1v-2l-4-18c0-3-3-9-8-9-11 0-29 5-33 13-4 9 6 21 18 24q1 4-3 6l-10 9-2 3c1 4 13 8 17 21q8-6 20-8 3 0 2 5c-3 3-9 8-11 7l8-9q-8 1-14 6-4 2-7 7-6-5-13 0l11 11c2 3 7 14 6 19l-7-15q-6-8-13-14c-4-2-20-2-20-8 0-3 8-3 14 1q2 3 8 2l13-2c-1-14-19-18-17-25 1-4 10-6 14-14q-8-2-12-9-12-12-1-23 5-4 12-5v-10l1-34h1v18q3 10 0 25 10-4 22-3c9 3 8 18 11 28 11-6 25-11 29-5l4 4 15 1q6 3 6 10c2 7 0 11 5 16l2 2h-1zm-399 85 1-2zm7-7 1-2zm-1-19q-2 0 1-2zm-6 0 1-2zm1 24 1-1zm-3 3 2-1zm9-29 1-1q0 3-1 1m-5 25 2-2zm-1-25 2-1q-2 3-2 1m3 23 1-1zm-7-18q-1-1 1-2zm0 26 1-2zm1-28 2-1z"/><path d="m1196 795-1-1q-4 0-7 3v-2l-2-1q-1-2 1-2l28-2-23-1h-9v12q-1 4 2 6-4 4-1 12l7-10 14-14 1 1q-11 10-22 25l-1 3-2-1-1-20-1-17 1-15 9-1c7-2 19 1 30-1h3l2 3v38l11-4v-36q6 0 9-3-3-5-8-8-3 1-2-2 11 0 14 10l13-1q4 2 0 4l2 2c-8 1-15 4-13 7q2 1 2 3c-1 2-6 2-8 9q-3 1-3-3l3-8q3-6 9-9l-8-1-8 3v32l10-1q4 0 7 3 2 3 1 6l-4-6c-10 0-24 2-25 5-1 4 6 6 7 11-13-6-11-10-11-20v-10h-2l-1 24q-2-1-2-4l1-21-14 1zm-11-14q-4 3-1 7 3-5 10-10l-5 7q-3 2 1 2 7-8 15-12l-12 11q3 3 4 1l14-12q-4 6-9 10 0 3 3 2l11-11-8 12h10v-15c-9 2-17-1-22 2q0-2-2-1l-3 1-5-2q-4 3-1 8m37 7v-15h-3v14l1 3q2 1 2-2m-29 10 2-1zm94 116q-4 4-6 12 9-4 14-10 2-6 8-7-1 3 1 5 5-2 9-6 2 0 2 2l-3 3-13 12c-2 2-1 5-6 6l-5 1-4-4q-3 2-7 0-2-5 2-8-5 3-10 3-3-1-2-4l7-12q-7 1-10 7c-2 1-9 6-11 5q-2 0-2-4l1-13 1-3q2-1 2 2l-1 14c10-2 10-9 10-20h-7c-8 0-1-12-1-24q-8 0-8-6l6 3c2 1 5-4 7-3q2 2 0 5l-2 2-3 20q7 0 13-3 7-4 14-1 11-2 15-14 2-7 9-6 9 1 17 6c-5 1-8-3-11-3l-7-1q-4 0-6 5c-2 9-9 17-18 15q-6-2-11 1-3-1-4 3v11l15-8 3-1c6 0-11 12-14 24l9-6 14-13 1 2zm6 12q3-3-1-1-1 2 1 1M973 793c6-2 12-2 14-9l-1-3c-1-3-5 2-10 1-6-1-5-8-8-8l-12 2q-3-2-1-4l3-3-2-4c-7-5-14 4-19 3q-3-2-3-6c3-9-5-8-6-14l7-5q4-2 2-5l-6-6 4-9q-5 0-11 4-3-2 0-4l2-2-3-2c-5 0-9 7-12 4s3-8-2-12q3-3 2-8c-12-2-21 8-23 21l-11-2q-5-3-2-7 4-5 3-12 7 3-1 14l8 3c4-14 17-23 27-19q3 2 2 6v12l6-3q6-1 8 6c2-2 8-3 9 0l-2 10q5 3 5 9-2 5-8 8 6 5 14 3c8-2 9 1 13 1l41 1 1 1h-62q-2 3 0 6c2 3-1 2-1 3 3 3 10-7 19-1q6 3 3 9l12-1q2 11 7 8 3-3 8-2 4 3 3 9-4 9-14 9l3 4q1 3-1 5-6 4-11 1l7-2 1-2c0-2-6-1-10-6q-1-2 1-2 3-1 3 1l2 2 2-1zm158-154q3 1 1-1l1 1 26 2q3 0 1 2l1 50v11q0 3-3 3l-26 1c5-3 11-1 17-3l-13-3q6-3 14-2v-36l1-17-8 1 1 19v9c-1 8 1 16-3 24v-52h-2v39l-2 3-3-1-1 14v-51l-2-7 1-5zm5 5q0-3-2-3 0 3 2 3m3-2-1 1 1 1 1-1zm20 60-1-22v-36l-4 1 1 31q1 11-1 21v7c1 1 6 1 5-2m-23-48 1-8q-3 5-1 8m-322 390c-1-5-14-1-21-10q-2-4 12-2l-5-7-10-10c-4 3-16 5-20 4l-10-2q-5-1-4-5 2-5 7-7h-6c-6-3 0-14 6-23l-3 1-1-3 1-10v-10l3 6q-2 4-1 10-2 3 1 2h3q2 1 1 4l-8 13-2 7q6 2 11-3c3-5 8-2 15-5-2-3-7 1-6-4l7-1q4 0 5-3l1-1 2-4q3 0 3 4l-1 8 4 21c2 9 14 20 24 23l1 2c0 2-6 1-8 3v2q3 2 0 5zm-23-58q-1 2 1 5zm-10 29v-8h3l12 8-4-22q-10 6-20 7-5 3-5 9l-3-1c-1 0-6 4-4 6 0 1 13 4 21 1m6-2q-1-3-4-2-2 2 1 4zm22 25c-1-4-4-2-9-4-2-2-3 1-2 1q6 4 11 3M590 147q4-9-4-12l-12-5c-19-6-28 5-35 5q-6 0-10 2l-6 7h-14q-1-4 2-3c10 5 13-3 22-10q-1-6 3-12 2-5 8-2c6 3 4 5 6 8l6-4q0 2-3 5l10-1c-3-5 4-9 2-15q-6 0-9 5-3-1-1-4 5-5 12-3c3 1 2 7 0 9q-4 6 1 8l16 6c12 3 12 18 9 21q-3 1-5-2l-5-9q-3 8-7 9c-8 4-11 12-19 10q-5-1-7-7c-3-11 10-17 24-21q3 0 2 2c-12 4-24 10-22 18q2 5 8 4l9-9h5l5-10h3zm-43-18q-1-8-7-10-4 7-3 13 6 0 10-3m3-3-1 1 1 1zm278 96c-1 2-6 2-6 0z"/><path d="M828 222c1-3 5 0 7-2q-3-1-3-3-6 1-10 5l-26 9h-8l-3 1-1-2 3-1q13 1 22-5l16-8 12-6 10-6 16-6q11-5 21-6l-38 18-6 3 1 3q0 2-3 2-3 2 1 3 2 3 5 3l7 2q18 6 15 21l-10-4 1 12q1 9-6 13c-4 2-8-3-8-7q1-11-4-20l-8-15zm22 19v-4h3l10 6v-5c-7-11-19-9-30-16l8 14 5 13 2 6q-4 1-3 5 0 3 3 5c7-2 9-13 2-24m366 426 1-18q-6 2-5 8v39l-3-6v-36h-5v19l1 23-3-4v-27l1-8v-3c-2-2-5 0-7-2q-2 0-1-4l-3 2 1 11 1 30q2 6 0 10l-2-7-1-17v-18c0-5-2-11 2-16l24 3q2 10 1 19v18l1 7c1 5-1 11 2 17l-13 1h-4v4c7 7 14 0 24 4q5 2 4 8c1 2-2 1-1-1q-6-9-16-4l-10-2q-5-2-5-7-1-3-4-3l5-2h9q4-1 8 1l-1-7-1-15q-2-8 0-17M649 70c5-4 0-15 3-11l1 3v7q-1 4-4 4-7-1-10-6c-3 12-6 22-12 18q-8-6-11-15c-3 11-7 22-12 20q-5-4-5-9c-4 4-9 3-10 5-5-2-1-12 2-22l-14 9-9 6q-2 0-1-1l2-2 10-7 13-13 7-10 4 7-9 27q4-3 5-9 3-1 3 2-2 7 1 12c4 6 9-7 10-24l2-2 1 2c2 14 12 25 15 21q7-11 3-24c0-2-3-3-1-7 4 3 4 10 9 16q3 5 7 3m547 453q0-2 3-1l16 2c3-1 3 3 0 3q-9-3-15-1 5 2 11 0l1 11v46l2 1q2 3-1 4l-8-1-3-1q-2-1 0-4h9l-2-12v-12q-2 3-2 7v-11q2-12 0-23l-1 16-1 10c-1 8 3 12-1 16q1 4-2 5l1-12v-16l2-20-8-1v6l1 18 1-1v-19l1-1 1 18-1 20c1 2-2 2-1 0 0-3-4-3-3 0l-1 11 1 3-2 1-1-3v-21l-1-24-1-11q-1-4 2-5 3 1 2 3zm1 1-1 1h3q0-2-2-1m13 12v-6q-2 3 0 6m-13 30q2-5 0-6zm11 389q3 5 8 2c3-2-2-7-1-10q6-6 1-13c-5-7-18 1-17-5q3-9-2-15l-8-1c-1-6 6-8 7-14l-22 7h-2c-2-5 7-26-4-34-5 4-1 11-4 14-6-3-5-12-14-12v7l-2 2-2-2q3-4-2-9-1-3 2-2l11 4 6 5q-2-5 2-8c4-3 9 3 10 9q3 10-1 23c11-4 24-9 27-6v4l-8 8c14 3 9 16 11 18 1 2 11 0 15 5q5 8 0 16l1 8c-1 7-10 5-11 5-2 1 1 10-5 11q2-6 0-12v-9l1-4q3 3 3 8M911 504l-3 1-1-3v-15h-4l-1 47q-3-9-1-20 0-4-3-1 2 6-2 11-4 4-2 9h-2v-24h9v-12c-2 2 0 6-2 8l-4-1-2 3-2-24 11 1 10 1 3 1 1 5 2 11q2 15-1 30-2-10-1-20l-5 1 3 2-3 15-2-3q1 3-1 6l-1-19q0-3 2-4l6 1v-11l-2 5zm-14-17q2 1 2-1-1-2-4-1-3-1-2 3-2 3 1 2-1-4 3-3m5 2q0-5-2-1 0 4 2 1m13 0q-2-2-2 0 1 2 2 0m-14 5q-1-3-1 0zm13 1q0-2-1 0 1 2 1 0m-11 165c0-5 7-2 9-4v-3q-4-2-8 0-2-12-1-22-3 0-2 3c-2 7 1 13-1 20l-3-2 1-6q0-2-2 1-3 1-1 2 2-3 2 0l-4 5 1-5-3 5q-5-11-1-26l10 1h10q5 0 5 5l-1 42q1 4-2 9c-4-5-6-16-3-23-1-1 2-1 1 1q1 2 2 0 1-4-3-3-3 0-4 2l1 14q1 4-3 4zm3-28v1l1-1zm5 0 1 1zm-13 10v-7l-1 1zm-5 4q-1-3-2 0c-1 2 3 2 2 0m20 2h-1q0 2 1 0m50-499q4-3 2-5-2-4-6-3l-9 7-5-1-1-6-2 1-1-2q3-7-2-12-6-2-10 0c-19 4-22 19-25 18-3-2 6-8 6-16-7-3-8 4-13 4 1-6 9-8 10-18q-15 7-19 26c2 3-3 3-3 0l3-7 5-10 5-6q5-5 12-7 1 7-4 13l5 2 1 6 13-7 5-1q8-1 12 2 4 6 3 10l9-14q4-7 12-9c5-1 3 14-5 24q6 1 7 6l7-3q-1 3-6 5c-1 1-1 6-5 6l-11-3 1-1zm-13-5 7-5c6-8 11-20 8-22-2-1-8 7-12 14q-3 3-2 7c0 1-4 3-1 6m319 884c1-5 11-5 12-13q0-3-4-3l-18 4-12 3-3-1c-3-3 7-3 16-6q-1-11-11-12c-3-5 7-6 12-14q3-6-1-11c-4-5-5-6-11-5q2-7 0-14l-5-3-3 2-4 8-1 10c-6-3 1-18 5-21q5-2 9 2 5 4 3 12l9 7c4 4 6 12 1 16l-10 9c9 3 9 12 10 13 2 1 24-6 22 4q-3 9-11 12-1 3 2 5 3 0 1 2c2 2 3 8 0 10q-6 4-15 6c-4 1 1-10 8-9q3 2 6 0 2-3-1-6zm111-102q-3-1-4-4v5l2 7 2 20 10 24q3 13 3 25-3 1-4-1v-3l-1-13q-1-9-4-17l-7-18-2-18-2-7q0-9-4-14l-15-16-4-6-13-17-12-17q-4-4-5-9 4 3 5 6l14 19 6 9 6 7 6 7q3 5 8 9l-5-19-1-9-1-12q-3-4-1-9l3 8v9l2 9 2 8q1 10 7 21zm30-440q-4 2-10 0c-6-1 0-8-6-7v12l1 7v41l7-2 18 4-1-30 1-16q-1-8 1-15l1 14v47q3 3-1 3l-20-3-9-2v-3l1-19v-12l-1-33 6 1h1l6 1q-4 2-7 0h-1q-2 0-2 2c-3 1 0 3 1 1l4 1 18 2-7 1q3 1 3 5l1 12 1-4 2 5-3 39h-3v-10l1-21q2 3 1 6c4-3 0-6-1-8v-19zm0-2c-3-2-12-3-12-1zM931 216c12-2 27 5 28 16h-6q3 6 1 11-5 2-8-3l-10-8v15l-1 3c-3 2-10-4-12-14q-2 3-5 2c-6 0-7-18 2-30q3 5 7 6l5 7 12 14 7 5c0-8-8-15-3-14l7 2c-6-10-17-8-24-12m2 31q2-17-7-29l-6-5q-4 11-2 21c5-2 4-8 7-7 4 1-2 15 8 20m511 296 10 1 11-2-4-3v-28l-1-15 1-10 1 1v8l2 9v-20q-10 1-19-1c-3-4-8-3-7-5l11 1 18 2 2 2-2 2q-2 7-1 16v37q-1 4 3 7c2 0 2 4-1 3l-15-1q-7-2-16-1l2-5-1-55 2-2v60zM701 152q13 10 27 9 1 4-3 4c-10-2-23-6-27-13q7-6 13-4l11 2-2-8q-6-12-4-18c3-4 11 5 16 16 0-8 2-17 5-17 2 0 5 8 4 15l-2 15c-3-7 2-16-2-25q-3 9-3 19l-2 9-2 6-5-6c-3-4-18-9-24-4m18-24q2 17 12 30c0-12-4-28-12-30M578 668l2 7v10q1 11 12 12c0-8-7-14-4-18q4 3 6 8l6 5q4 4 9 4c1-9-10-8-11-14 8-4-4-4-12-15l-2-3h-5q2-4 8-3c3 10 12 11 18 18q-2 2-1 5 12 3 8 15-9 2-15-5c-2 4 6 9 3 12q-3 1-4-2c-1-6-8-1-14-7q-4-3-5-9l-1-15q-2-3 2-5m366 217 1 9 1 8 2 8q0 4-4 4-5 4-8 11-2 3 0 1l7-5 2 4-12 6q-4 1-3-2l5-9q3-6 9-9v-6q-3 3-7 1c-6-2-14 3-13 8v7q-5-2-5-8l-5-18 5-2-8-5-5 1v-2q2-2 7-1c3 0 10 9 10 9q0 2-3 2-2 0-1 2l3 9q7-8 16-4-1-13-7-24-1-3 1-5l4 3 3-4 1 7q-3-1-5 1l3 8 4 14q2-9 1-17l-1-2v-6q2 1 2 4zM622 144l3-10q2 6 1 12 1 4-2 5-5-3-7-8-9-11-1-20c5-4 12-4 17-8q-14-5-29 2-6 6-13 8l-4-4q-1-6 2-11t10-6h17q2 3-2 2l-15 1q-8 0-10 8 0 6 3 7l10-7q15-8 31-3c3 1 5 6 2 7l-15 6q-5 3-3 9c2 3 1 7 5 10m233-22c3-5 11-4 10-9q-3-7-2-14c6 1 10 10 20 9l-4-17q-1-5 3-8l18 11q-4-7-3-15l9-6c2-1 6-7 4-10h-6q-5 0-2-2l12-5q4-2 8-1l-11 5c6 9-1 14-11 21-2 9 7 15 3 19l-18-12q0-2-2-1l-1 2 3 18q0 3-4 4-6 0-15-8c0 8 4 15-2 16q-4 1-5 5zM424 37l-3 7c-4 12 0 20-3 29l-1-19-6 17v5q-2 3-6 4l-4 15-3 16-3 22q-3-27 8-52c-6 3-12-7-11-17q4 12 8 15 5-1 8-9-3-7-4-18 7 2 7 10l9-25 3-3zl1 1v1l1 1 1 2 1 2 1 1v3h1l1 2 1 1v2l1 1 1 2 1 1v2l1 1 1 2 1 1 4 6 5-15c1 6-2 16-4 18q-2 1-4-2l-2-6-1-1-1-2v-1l-1-2-1-1-1-2v-1l-1-2-1-1-1-2v-1l-1-2h-1l-1-3-1-2-1-1zm-15 22q-1-3-2 0zm1053 369 2 4-21-5v-46l2 1-1 43 12 1q-3-6-2-10v-26q-4-4-6-9c-3 0-1-3 0-1l7 1c3-1 3 2 0 1l-3 1q-1 1 1 3l4 4 1 26 1 1v-35l3 3zm-3-2q-2 0-1 3zM743 35q-2 3-3 2-2 2-4-1l5-5q4-15-2-28c-8 7-6 16-8 21l-3 13q0 4-4 7V33l4-3 1-10 2-8 3-8q3-5 7-3 7 14 3 29 5-1 8 2c4 5-3 14-11 20 12-1 19-15 20-9q-4 5-5 11 1-4-2-6-11 9-14 4c-2-5 9-8 11-17-1-3-7-3-8 0m243 482v7q1 6-2 9v-14l1-6q3-2 7-1v-8c-1 4-7 1-7 7q-4-15 3-20-6 1-12-1 9-2 18 1l1 43 2 4h-24l-4-2q5-2 11 1h14l-1-6-1-14zm6-25-1 1 1 1zm0 4-1 1 1 1zM666 58l-5-7q-6-8-13-13-4 0-5-4c6-1 12 7 17 12l6 6 1-13c1-4 10-4 18 6l-6-21q-2-7 7-9 10-3 20 2h-20l-4 2q-1 5 1 11l6 21q-2 1-5-2-6-10-14-9c-2 9 1 18 0 19q-2 1-4-1m651 786q-3 1-4-2c-1-3-9 1-10-6q-1-7 3-15l-8 1q0-5 2-9l-7 1q0-3 3-4-2-5-1-11c-6 4-3 15-9 14s0-11 9-19q3 0 4 4l-2 12 9-3-4 10 6 1c3 4-5 11-1 20 10 0 17-4 15 1l-8 1zM192 310c-1 7-2 14-4 13 0 0-4-4-3-7l3-8 4-13c1-6 5-16 8-20l5-11 18-38 3-6 13-38v3q-5 23-15 44l-4 8-6 14-8 16c-5 11-13 26-13 34zm1327 352q-2 1-3-1l1-19 1-7v-21q3 1 1 4 2 2 2-1l-1-6-4-2-4 3-17-1q-2-1 0-2h8c-2-3-8 1-7-4h14l4 3h12q0 2-3 3v31c0 7 3 13 1 21q-2-5-2-11l-2-30-1 32z"/><path d="M979 519q-1-5-6-2-2 5-1 12c1 3-3 2-1 0q-2-10-1-19l-1-20q5-3 9 5l3-3-1 42zm-7-8 7 1v-9q-1 5-3 6l-3-1q-2 1-1 3m-425 22 1-2 8-1q7 0 12 7-5 4-9-2c-4-4-12 4-17 1z"/><path d="M548 531q-2 0-1 2-3-2-6 1l-2-2 2-3-3-3-6-4-3-4 1-4q-14 1-29 7-4 0-1-2l5-1q14-7 29-7l4-3q12 2 12 14zm-1-5q2-13-8-15l4 7zm-6-3q1-6-3-8-5-2-6 3zm660 304 1-2 4-2q4 5 4 12l10 2c8 1 13-3 12 1q-1 4-9 3l-29 14q-6 1-10 6c-4 5 7 4 12 8q-13 0-15-8c0-7 13-8 19-11l17-9q-5-2-11 1c-4-4 4-10-1-14z"/><path d="m1202 825-1 2q0 4-3 6l-4-2q4-6 11-11zM949 401q2 9-5 14c-7 5-16-13-8-29q2-4 8-1 4 0 4 5zm-6-4-3-12-2 3 2 6 1 17c3-3 3-11 2-14m1 16c5-6 4-18 0-27v7zM877 2c-5 0-14 7-14 9l-3 9V10q-4 0-5 2c-7 6-10 16-4 22q-3 1-3-2l-3-8q3-9 11-16 6 2 9-3c6-5 17-8 19-1q1 12-9 24 8 2 6 8l-1 8c1 3-4 3-3 0q3-7 1-12-4 0-6-3c9-12 13-27 5-27M733 690l-1-13-1-7v-29l2-7-1-38h-34l-13-2-10-1-6-2q3-2 9 1h8l7 1 8 1h33v60l-2 9 1 10 1 15zm516-7-3-1-5-6-3-8c3-6 17-10 20-9l10 1-1-10-14-1-6-2c7-2 14 2 22 1v2l1 11c0 3 5 5 6 6l7 6v-11q4-6 9-3-6 1-7 4-2 8 2 14 0 2-3 1l-11-10q-9-8-20-6-7 1-12 5-1 4 2 8zv1l6 3 2 2q-2-1-1 1l-1-2zM152 293v-8q2 4 1 7l1 1 4 27c1 9 3 21 2 23l1 9 1 26 1 7 1 27q0 14 5 27l-4-4-1-7-2-8v-19l-1-7-1-36-1-6v-11l-2-8c1-1-1-16-2-19v-8l-2-12zM942 74l-15-9q-5-2-5-8l4 4 17 10q-2-6-1-10c2-4 9-3 11-5l-1-3-6-5q-1-3 2-1 6 2 10 8l8 6q1 3-1 5-6 0-9-7l-11 2c-2 5 3 10 1 12q-1 2-4 1m19-13q2 1 1-1zm2 2v1m407 417-3 27q1 2-2 3l2-27 1-9 2-7 5-19c4-14 19-32 32-28l-4 4c-7-2-16 6-19 12l-8 15-3 9-2 11z"/><path d="m724 664 1-4v-54h-31l-5-1h-14l-4 2-2-5h13l4 1 29 1 12 1v68l-3 4zm832 236c-10-3-14-15-32-6q-7 2-13 7 9-11 23-12 5-3 10 1l12 7q8 3 15-3l18-12q4-4 11-2l-12 7c-10 6-22 17-32 13M595 733l-1 2q-3 2-4-1c-5-6-2-15-8-19q-5-2-3-7l18 18q5-12-6-16-3-3-1-7 2 4 6 5c7 4 8 18 0 24zm0-2-5-6q1 7 3 8l2-1zm208 273-4-13q-3-7-1-14l7 16q2 0 3-2l14-12q1-3 6-3-1 3-4 5l-11 10c-4 4 0 17-5 21q-4-3-5-8m6-8q-1-2-1 0t1 0m-1 9q-1-3-2 0c-1 3 3 3 2 0m420-126 4-5-8-6-3 4q-6 3-10 1l-7-7c5-3 6 5 12 5q4 2 6-4-1-2 2-6l8 4q-1-5-6-5v-2c3-3 8 2 17 3q-2 2-5 1-2 1-2 4-2 3-7 2l6 4 1 2-1 4c6-1 12-6 18-6q-10 8-24 11-3 0-1-4m229 126-2 3-2-1 1-2 6-18 1-7 2-7 1-9 2-10 1-10 1-18 1-9 1-10 6-18-3 13-1 6-1 9v13l-2 4v16l-1 7-1 8-2 8-2 9-4 16zm117-475q2-13-1-26l-6-1-1 8v33c-6-2-2-5-2-7v-40l14 3q-3 3-1 7l1 25q1 8-1 11l-4-2zm-5-30h-3zm5 1-2 1zm-412 534q-4 8-9 6c0-11 8-17 15-25q-7-3-13 0l-1 5h-2q-3 4-3 7l5-5 1 1-10 9c-2-9 10-14 2-21q3 0 5 3 3-4 7-3l13 1h6q3 0 2 4l-8-1q-12 10-16 22zM485 459c-3-3 2-7 3-15-9 2-9 12-15 10-7-2-3-9-7-16l-6-8-1 10-3 1q-3-9 0-17 7 2 9 8 5 7 7 17 0 3 3 2 5-6 12-9 3 1 4 4-2 7-6 13m415-247-4-11q-4-5-10-2 1 9-7 13-5-7 0-13l2 8c4-6 3-14 10-12 12 3 8 16 16 20 3-8-4-14-4-19q10 9 6 22-6 1-9-6m80 335-8-1q-3-2-7-1v-18l-2-7 1-17v-25l2 12 1 52 5 2 20 1 9 1zm105 492q-7 11-11 8l8-13 6-8 15-16 9-11 7-8q1-2 5-1 0-3 3-2-4 7-12 13l-22 22-5 7-6 8-4 6zM657 564c-3-2-2-12 1-11 2 1-1 7 2 9l9 5q3 3 7 3 1-6-2-9l-9-7c3-3 5-1 8-2h13l3 2q-7-1-13 3 5 8 2 17-7 0-12-5zm13 412-2-2q-1-8 3-11l4 1q11-4 21-11 2-3 0-6v-10q-1-3 1-8l2 2 1 15q2 9-7 13l-13 7-8 2q-3 3-2 8m59-444c-7-2-17-2-22 2q-2 3-6 0 5-2 7-6c-10-2-16 4-22 4 8-8 24-10 26-2 9-7 22-2 22 4 0 3-5 4-7 2q-1-1 2-4m53 512q-5-4-14-3-3 0-2 2l12 10q-12 0-23 2-3 0-5 3 3-1 6 1c-6 2-15 0-15-3l3-2 13-2q7-2 13-1-7-6-9-11c7-3 20-1 22 3l1 1v1zm-91-537q-3 5-8 9-7-20 11-29 5-2 8 1 1 7-5 12zm8-18c-10 1-17 11-14 21 6-7 15-14 14-21m802 4c-7 0-11-6-19-7v35l1 7 1 19h12l1 1h-17c4-5 1-9 1-14v-46c0-6 9-2 16-1l9 1 2 2c-1 3-8-3-12 0l7 1v2l1 27 1 1v-11l2-5 1-9-1 22 1 15v9l-3-4q3 7-2 13l-1-42zm3 37v1l1-1zM881 867l18-16c2-1-1-9 4-9q4-1 6-4 6-6 10-14l6-10 5-5-8 15q-6 11-13 18l-18 21c-3 2-5 6-10 4m23-22h-1l1 1zm698-154-1-5-1-22 2-4v-35l1-7v-10h1l1 12-2 8v82c-2-6 1-13-1-19M417 530q1-4 5-6l-3 5-9 15-2 4-6 7 9-1 18-13q1-3 3 0-8 5-14 11l-7 6-13 13-6 4-28 28q0 3-2 0l29-29 4-3 13-12h-10l-10 14q-3 4-8 5l-8 8-1-1 9-8q9-8 15-17h-8q-3 0-2-2l-1-1-4 3-12 11q-2 4-5 6-1 5-5 6l2-4 5-6 20-20 8-7 11-8 6-5q-2 4-6 6l-7 6-12 11v2q12 0 19-9l7-11zh-1l-1 1q-2-1 1-2h1zm476 136-2 4-1 8v8l-1 1-1-29q6-3 12 0l1 10v17q-4-2-3-5l-3-3v-13l-1 2zm0-1 2-5q-2-1-5 1l1 4zm5-5v3zm32 365c-19 0-18 13-29 16q-1-4 3-7l11-8 11-3c7-2 8 6 9 6l6-8q1 3-3 7l-7 10q-2 2-4 0 4-4 4-10zm305-128c8 3 13-5 17-4q2 2-1 4l-5 2q-6 3-13-1l-20 6-2-1c-3-2-1-10 4-14q1 5-2 11c8 0 16-5 22-3M465 663q3-5 0-11-3-1-4-6 0-3 3-6l1 8q2 1 3-2l1-16c4 12 11 16 12 17l-2 2q-5-1-8-7l-2 18q0 2-4 3m157 5c-2 6 0 11-4 11q-3-13 5-15c8-2 4 11 13 13 3-1 4-8 0-11l-5-5q8-1 9 6 2 8-2 12l-2 2c-1 0-9-3-11-11q0-2-3-2m-16 243-24-1-9-2h-11l-5-1h-10l-1-1h22l7 1h20l20 2zm838-306c4 1 4-2 1-1h-6l-1 33-1-1v-34q15-2 29 1v4c-9 2-20 2-22-2M924 885c-4-3-2-10-4-12q-1-2-2 1l-4 7-3 1c-4-3-1-13 6-19q3-1 1 1-4 5-5 13l7-14q1-3 4-2l-4 8q4 3 5 9v3l4 1q0 5-5 3m351-243q2 8 10 8 1-20-17-24c3 9 14 12 9 16-4-9-14-10-12-21q8 2 12 6l6 6q4 3 4 8v10q-5 1-8-1l-5-2q-1-1 1-6M805 110l7-2q5 1 8-2c3-3-5-8-4-13q8 8 18 8 3 1 2-3l-5-5q-2-4-9-3 4-4 9-1c8 6 10 14 5 14l-14-2q2 5-2 8l-8 2zm532 803c-5 3 3 12-5 14l-12 3-6 2q-1-3 2-3c9-2 19-5 17-9-3-4 0-10 4-10l13 9 14 7v3q-7-2-12-6l-11-8zM959 33q12-15 5-17-8 2-14 6l-12 11c5-13 27-24 31-18 3 3-1 12-6 17l-2 2q-2 1-2-1M746 994l4 4-13-6-13-4q-5-1-7-4 1-3 6-5l8-2h16l6-1-2 3h-15l-8 2q-3 0-7 3l18 6zm119-33q-9 11-18 10-4-1-8-7 0-4 5-5-3 4 1 7c6 5 16-2 21-11l3-1c1 1-1 9 2 12l6 3q-7 3-10-5 0-2-2-3m20-171q-4 0-3-4l1-8q0-5-3-9c8 1 4 10 6 20 5 0 12 3 13 8q1 8-3 15-3 2-7 2l-8 1q-6-1-4-7 3 4 8 3l7-1q7-7 2-15zm501-197q-2-2 1-1l1 1 8 2 21 3-1 15-1 17-1-29-13-1-19-3q3-2 6-1l-1-2zm-466 96v-62l-13-1-4-1h-14l-1-1h29l5 1v63zm-289 0q-2-1 0-4c11 7 18 15 13 24l-7-5q-12-9-7-14zm1 1q0 3 4 6 2 4 8 7-3-9-11-14m97 2-16 1-6 1h-45v-9l1-1 1 9q1-2 4-1l11 1 5-2zm-31-139c-2-1-7 1-8-3 10-3 15 7 23 4q-2-6-7-8l-2-2v-2c3-4 8 3 12 11q1 3-2 4-9 3-16-4m14-52-13 11q-2-1-2-5c-1-2 2-1 1 1q1 3 3-1l2-5q6-5 13-5 1 11-6 17-6 4-13 4 4-5 9-5 7-3 6-12m207 354-10 3q-7 2-8 10-2 2-3-1l8-14q4-6 9-10 4 0 3 2l-4 6h5q3 1 0 4m-21-311h24l3-3c-3-5 0-11 0-16v-40l1-1v63l-4-2zl-1-1-4-1h4z"/><path d="M895 852c-9 0-6-12-9-10l-2 1q-6 5-5 12l-1 3-2-2q-5-1-5-6c8-11 20-14 20-8q0 5 4 10M88 409q2 1 1-1l1 2 1 1h1v1l1 1 2 3 1 1 1 2v1l3 10 3 8v1l2 3 1 1 1 1 1 1 1 1 1 1h1v1l1 1 1 1 1 1 1 1 3 6 2 5 11 30 3 11 1 1 1 2 1 1v-2q2-4 0 6h1c4 3 2 14 5 23q8 0 14 6l3-4c-4 5 3 10 1 16q-1 3-3 1l-2-9q-5-8-14-7l-3-1 1-4-2-15-1-5-1-1v-3l-1-1-1-2v-1q-3-2-4-6l-9-27-7-20h-1v-1l-1-1h-1v-1l-1-1-1-1h-1v-1l-1-1h-1l-1-1v-1l-2-4h-1l-4-13-1-5-1-1-1-2v-1l-3-4-1-1-1-1z"/><path d="M111 469q3 1 1-2l1 2 1 2 1 1 1 2v1c2 1 5 9 8 16l5 14q6 9 8 21-4-6-6-13l-3 1-13-38v-1l-1-2-1-1v-2zm1376 373 2 2q8-7 12-18v-10l2 3 2-7c-1-3 3-2 2 0l-3 10q-3 14-12 24l-2 3-5-1q-1-4 2-6M431 655q-1-7 2-15 2-2 0-5 10-4 13-16l5-14v7c-4 20-21 28-16 40zM132 531q-6-3-13 0-7 2-6 9-2 2-3 0 0-6-5-9-6-3-14 1c1 3-3 3-3 0q3-5 3-11 3 4 0 7l7-1q8-1 13 6 4-4 10-5 7-3 12 2l1 1q1 2-1 7v6l-2 7q-2-6-1-13zm1504 192-6-5c-4-4-17 0-22 4l-13 13c-5 5-1 8-2 13-4-3-4-11 2-16l6-6 7-6c8-7 24-9 29 2v1q2 2 1 5-2-2-1-3zM452 674q-3 2-5 1h-9l-1-3 2-2q0 5 5 3 2 0 3-3l1-4 4-1q9 2 5 20c-6-1-1-6-3-15l-2-2-2 1 2 3q3 1 0 2m715 182c-1 1 1 5-3 9v-22q-1-7-9-10 7-8 2-12h-4l-2 6q-4-5 2-9c6-4 7 1 8 5l-1 8q2 4 6 7v5q2 7 1 13m11-133c6 5 13 1 17 3-6 5-18 4-21-3 8-7 20-12 24-7q3 2 0 5-6-9-20 2M911 618h-27v14l1 5 1 42-2 1v-25l-1-6q2-7 0-15v-18l28 1 1 1h13l2 1h1v15l-1-14v-1zm-18-81h24l3 1v-46c0-2-3-5-1-9l-8-1h-16l-2-2c1-2 6 1 14 1q8-2 15 3v7l-1 47q-4 3-10 1l-16-1zm325 34q4 9-2 15v-48l3-13v32c0 4-3 9-1 14M669 429h-4l-15-1-10-1q-6 1-12-1l-7-1-8-2-9-1-8-1-1-1h11l8 2 10 1 13 2 17 1 9 1zm428 615q-9 10-12 6l1-2 7-9 7-9 18-19q5-7 11-12l-5 8-6 7-16 17q-8 8-13 17zM879 753q2-5 5-6l-9-1q-4-6-12-1l-1-2c0-1 8-3 14-3l4 3q14-1 13 5-6-1-10 5l-1 2q-1 1-3-2M582 925c6 4 12 1 13 3l-1 2-2-1-43-1q-2 0-3-3zm199 37c6 6 13 5 14 6l-1 2s-12-1-17-7l2-4 14-3c6-2 15 2 14 7q0 2-2 1-1-4-4-6h-7zM657 514v-33l1-8 1-35 1-1v44l-1 7v24q1 2-2 2m775 112v2q-5-1-7 2l-15 5-7 2-9 2 13-6 7-2q12-2 18-5"/><path d="m1432 628 1-2q3 2 1 3l-6 4c-3 3-8 18-2 17 5 2 14-4 20-9 3-4 14-6 13-2-1 1-8 3-13 11-3 19 18 22 19 37q-1 5 1 8 0 2-2 1c-1-2 0-13-7-20-10-8-14-13-12-26q2-6 8-10c-12 3-18 16-31 12q-3-9 3-16zm1-2h-1zM906 185c-10-1-13 7-17 5l5-3h-14l2-2 18-2h12c6 0 19 6 18 13l-5-5q-8-6-19-6m221 636-1 14-1-6-2 1-2-2v-20l2 3 3-3zM699 684l-8-1h-11q-4 1-10-2c2-3 5 0 8 0h43l4 3zm-36-3v-57q-3-7 0-20 0-3 2 0c-4 4-1 7-1 10l1 67zm508 107 1 31c0 3-4 3-3 0v-48l1 12zm-307 45 3-7c-5-3-9 2-10-2l7-14q1-4 4-6-2 10-7 19l8 1c3 2 0 10-5 9m23-333-2-5 1-17q0-2 3-3c-4 3-1 5-1 8v59l-1 1zm260 434q-3-3-6 2-4 1-2-2 4-4 7-4 5 2 6 6c4 8 9 16 7 25q-4-15-12-27m-147-494-3-11-2-9q-2-5-1-12h-9l-3-2 9-1c5 0 4 4 5 12l2 8 3 14 1 1 8 21 3 7v1l7 12 10 18 13 20 1 1 1 1 2 4h1l1 1v1l1 1h1l1 1v1h1l1 1 1 1v1h1l1 1v1h1l1 1 1 1v1h1l2 1 1 1 1 1 1 1 1 1h2l1 1v1l1 1h1l1 1 2 1 1 1q-2-1-1 1l-1-2h-2l-1-1-1-1-1-1-1-1-2-1h-1v-1l-1-1h-1l-1-1-2-1v-1h-1l-1-1-1-1-1-1-1-1v-1h-1l-1-1-1-1v-1h-1l-1-1v-1h-1l-1-1-1-1v-1l-3-3v-1l-1-1h-1l-4-6-12-18-6-11-6-9q-2-3-1-6l-1-1-6-13-3-8-2-7zm469 226v-18l-2-9 2-10 1-9 1-10 1-1v15l-1 4v29c0 3 3 7-2 9M567 72q-2-2-5-2l18-18 9-7q7-7 17-10l-17 12-19 19-4 10q-2 0 0-4M159 95V83l1-1v12l1 1 1 6 1 1 1 6 4 22v1l2 10 1 8q5 20 5 39l1 1 2 12v11l2 9 1 9 2 9 2 17 1 1v6l-1-6-3-10-3-20-1-9q-2-5-1-9l-1-9-1-10-1-1-2-18-2-11-1-9-2-19-1-1-4-18q-2-6-1-10l-1-1-1-6zm828 38c2-7 9-10 10-18q-10 5-16 14-2 1-2-2c7-9 19-17 20-14q1 10-7 16zM558 363c-3 10-14 14-17 11-4-5 10-18 10-13l-1 2-6 8c6 0 8-5 14-8m488 527q-3-2-3-5-7 0-11 6-2-4 1-6 1-6 4-10 3-1 2 1-2 3-2 8 6-4 13-6-5 4-4 12M640 561c-8-4-17 1-28-1l6-3 19-1c8 0 16-9 22-5l-13 5q-5 0-6 5m833 371q-1 1-1-3l8-9 6-8 9-9 5-7 6-7 8-9 7-8 6-7 8-9 6-7-2 4-5 6-7 8-6 8-6 7-6 7-5 7-6 7-12 13-8 9zM644 574l-6-6c-1-5 8-3 14 10q-1 3-5 5-6-2-6-8zm1 1 1 5q3 1 3-2zm-150-65q-2 0-2-2l27-16 6-3 2 2-19 12z"/><path d="m652 632 4-2c-6-3-11 5-13 1-2-5 16-8 18-5s-4 9-10 9q-2 0 1-3m165-328q4-2 6 0 1-3-2-3-4-4-12-6-2-2 1-2 15 3 17 11-2 4-8 4-2 0-2-4m-34-17-4-3q-2 4-5 4-1-9 3-15c3 0 3 5 8 10q1 2-2 4m145 363q2 8 0 17l-1 25-1-51q3-1 3 3zm-76 178-2 2-3 1-4-15 7-18q2 5-1 9l-4 9c4 5 2 11 4 12zM619 311l-8-1c-1-3 7-7 7-7l1 3q-3-1-5 3h6l1 1q4 0 6 4l1 1c1 3 8-1 16 3q6 4 2 10c-2 3-11 8-15 8l11-7 2-4c1-9-15-7-16-7l-1-3h-1zm342 384v-28l-1-7v-26l1 17 1 5v36zm9 65h-14l-13-1-1-1h57l1 1zm228-20c-2 2 3 3 5 6q-4 1-6-1-4-1-3-6l8-4 14-2 2-1q2 0 1 2l-2 1-10 2zm66-42q-7-1-9-6l11 3 7 2-5-8c7 0 9 10 6 12l-3-1zM740 296q-1-2 1-1l5 1q3 1 3 4 2 3-3 4-8 0-14-6 4-3 7-1zm0 1-1 1 3 1 1-1zm3 1-1 1q1 2 4 1zm131-151q0 4-2 3c-3-5-8-1-12-4q-3-2-2-6l4-11 1 5-1 8c-1 5 10-1 12 5m100 741v-9c-6-1-9-9-7-14l3-2 1 7 3 1c1 0 2 9 0 17M834 328c-2-4 4-3 3-7-2-9-12-5-11-11q6-1 10 3 8 8 2 15zm-597-37-8 2h-5q0-2 2-2l30-8 16-4 10-4c3-1 3 3 0 2q-2 2-5 2l-11 3-19 6zm747-121q9 9 1 17 5-14-8-20l-12-4-5-3c8 1 19 5 24 10M668 998q-9-5-20-5l-6-1q-2-1 0-5c6 6 15 0 27 9q2 2-1 2M165 533l-4-7c-2-7-1-18 8-19 8-1 13 13 12 13 1 0 9-6 19-9l1-17 3-16 3-5-1-9-6 23q0 9-5 18 2-20 9-40 2-2 2-6l-2-13c-4 10-1 23-4 25-3 3-6 20-8 32q-3-3-4-8l1-14-1-1-2 14v13c1 3-3 3-3 0l1-26v-16l-1-22-1-10-2-20-1-13-1-12-2-9v-91l2-1v68l1 7v26l2 9q-1 6 1 10l1 13q0-2 2-3v29l2 11q2-9 1-18v-10l2-25 1-9c3 8-1 15 0 19s-1 9-1 13v30q-2 6 0 11l2-9 3-16 2-10 4-22-2-19-1-1q-1-4 1-9l1 8 1 7c3-5-2-13 0-23q2-6 0-12l3-3v18l1 33 3 2c-1-2-3 12 0 31l4 31 5 24 1 12v16q-2 2 1 2l3-9q1 8-5 13c-1 2-1 12 3 15l2 2q1 3-1 4c-11-7-6-14-9-24q-2 1-1 4-2 3-3 0 2-4 1-7l-6-1v-2h5c3-8-3-15-1-21q3-13-1-12c-1 0-5 12-4 21l1 5c-6-4-16 2-22 8l-2-5q-2-9-11-9c-5 0-6 12-4 16l2 6 2 1q-2-1-1 1zm33-71 5-22q2-8-1-18l-5 23-4 22-1 18q5-11 6-23m-12 2v-7q-2 4 0 8zm1 1v1q-2 2 0 3zm20 19q2-6 0-10l-2 10q0 4 2 0m4 42 1-3v-17l-2-2q-1 4 1 7zm935 333q0 4-3 1l-1-12q0-8-5-12l-2-1q-2-2 1-3 2-4 0-8-3-2-6 1 0-3 3-7l5 4q4 5-2 11 7 4 8 15 1 2 2 0 0-4 3-5-3 7-3 16m437-189v-56l1-1 1 56zM425 450q-3 1-5-1c-3-5-4-18-1-25q4-1 2 3-4 14 4 23m1108-19h-2q-2 0-1-2l4 2h1l3 1 1 1 28 6 1 1 7 1 10 2 17 4 12 2v1l11 1 12 1q-5 3-10 1l-13-2-1-1q-6 1-11-1l-14-3-21-5v-1q-4 1-9-1l-20-5v-1l-4-1zM542 601q1 4-2 7l-1-8q-12 3-13-3-1-3 3-5-1 4 2 5c4 2 12-3 11 4m9-109q-3 3-8-3l3-2-3-3c-3 0-6 3-9 1 3-5 12-6 14-1zm-26 196q1 5 6 9-3 3-4-1-9-8-4-19 1-4 7-4-7 6-5 15m966-66v27l-1 1v-32l1-6v-10c4 5 0 8 1 13zm168-134-5-6-5-8-8-12q-3-1-2-5 7 7 11 16l3 4zv1l7 8 8 11 8 12 1 1 6 9 1 1 1 2v1h1l1 2q-1-2 0 0l-2-1v-1h-1l-1-3h-1q-4-4-6-10h-1l-7-10-8-11-4-6-3-4zM617 350q5-5 2-9-4-4-8 0-1-5 3-5 5 0 9 4 2 7-4 11-2 2-2-1m228-33c-3 2-4-2 0-2q3 3 7 2c-2-10-13-8-14-9-3-3 10-4 15 4q2 4 1 8zM462 631q-11 8-11 19l-2 1c-4-3 2-17 11-22q3-1 2 2m1073-193q3 2 1-1l2 2q3-1 6 1l8 1 8 2 8 1 8 2 6 1h1l6 1h-7l-1-1q-5 1-11-1l-7-1-7-2-9-1-10-3zm-307 327-2 3q-2 1-3-2c-2-10 2-22 9-20q-11 10-4 19m-30-69-1-20-1-5 1-16 2 9v30zm186-65 3-15-2-2c-6 2-7 7-11 10l1-4q4-8 13-8v11h4zm-258 231q-6-2-4-11l2-13 8-5-7 14q-3 8 1 15M795 407l-2 1-13 1-7 1-10 1-11 2q2-5 5-6l-1 2c0 1 7 3 10-2q7 3 14 0l10-1zm8-4q1-4-2-5l2-1 4-1q6 2 12 0c4-2 9 1 13-2q-1 4-6 3l-9 1h-11z"/><path d="m766 407 2-3q1 3-2 3m29 0q2-3 5-1l3-3c0 6 8 0 13 0h9l10-1q0-3 3-4-2 4 1 3 4 1 6-1 0 3-2 4h-16l-9 2h-7l-8 1q-3 0-3 3-3-4-5-3m6-9c-2 5-16-1-20 4q-9-3-13 2l2-4 10-1 9-1q4 1 6-3v3zm49-21q-2-4-8-3l4-3-5-4h8l5 4zm456 203v-48l1-1v49zM207 723q5-6 5-12-1-5-12-8l-14 3c10-7 25-5 28 3q1 9-7 14m281-77q2 1 1-1l1 2q3 2 3 6v1l8 14q4 5 0 12l-8-25-1-1q-3-3-2-7zm577 50v-47l1-1v47zM773 394q-6-1-10 1c-4 2-10-2-14 3l2-5q7 2 15 0l10-2h9l34-5q7-2 13 0l-7 1-9 1q-4 0-6 3-7-3-14 0l-12 1-8 1-4 5zm429 578c-12 4-15 13-17 13-2-1 0-9 7-12q4-3 10-1m-377 27h6q0 4-5 4-5-1-5-5l4-12 1-3 2 1q-5 8-3 15m487-413v-44l1-1v44zM641 145h3l1 6c-2 3-9-4-12-14q4 0 5 2zM330 70l-1-6-1-8q-1-10 9-12-3 4-6 5v19zm568 302q-2-4 0-9l2-7c2-10 9-23 18-28q11-8 17-5v2c-9-2-21 6-26 13q-7 12-10 26zm14 326-8 1-14-1 1-1h10l8-1q9-1 17 1zm646-28c-3-3 3-10 0-17v-7l1-22h1v38zM686 543l-9 2q4-7 10-5 5 0 7 7-6-1-8-4m569 151c-8 1-5 7-8 11l-1-21h1q2 4 2 9 2-2 6 1m-564-23-1-22-4-2h-9l-1-1 13-1 3 3zm719-250 1-5v-12h7l1-10c0-4 6-6 8-12h2q-1 4-9 11v11q-2 3-7 3v9zM854 623h-18l-14-2h20zm-222-50q1 4-2 3-5 0-7-4c-1-1-6-1-6-5l8 3q6 1 7 3m363-409c-6 1-4-10-13-12q-4 0-4 4l-4-2q-1-1 1-3c2 3 3 0 5 0q8-2 11 4zM699 69l-9 27q-1 1-1-2l11-32zm142 221c-7 5-14-7-13-8q1-2 3-1zm331 553q-3-11 6-14-5-6 0-11l1 10 9 5 9-12 9-8-9 11c-4 4-9 8-7 12l-10-4h-5l-1 8q0 2-2 3m112 110c-4 6-12 10-13 8 0-2 3-7 4-6l3 1 3-4q3-2 3 1m-137-265v-38l1-1 1 39zM529 582c-2 0-2 5-2 7l-2-2 3-8h11l3 1q1 1-2 2zm474-99h-18l-7-1-7-2c-3-2 0-4 1-1l8 1 8 2h12zm-629-86-4 9c-1-5 3-9 4-13l4-12 3-9 4-11c2 4-2 8-3 12l-3 10zm483 220-14 1-4-1-18-1-1-1h21l4 1zm-56 441c2 4-2 8-4 7-3 0-2-7-10-8q2-3 3-2 5 1 7 7zm366-6q10-8 12-21 4 15-12 21m-575-43q-7-11-2-24l1 18zm-432-78c-3-5 1-18 8-21q-8 9-8 21h1l1 1 1 1 8-2q9-3 15 4v3h1v6l-1-5v-1q-2-5-6-6c-6-3-12 5-18 1h-1zm1133-369v-36l1-1v36zM774 381l-3 1-2-2 11-1 9-1 8-2q0 3-3 5-6-3-13 0zm267 536-2 6q-2 4-2 0 5-14 13-27 1-2 5-2l-7 8zM800 536q-5 5-11 5l8-5 11-7 5-4 21-21 4-6 10-15 5-9 6-10 4-8 5-10 6-14 7-20 4-16h6l-5 1-9 33-4 9-4 9-11 20-6 11-4 7-11 16-6 8-13 13-8 6zm473 1v-31l1-1v31zM916 693h-23v-2h17l9-1q0 2-3 3m88-176v-31l1-1v31zm179 525 12-6q3-4 7-3-7 8-19 9M387 352q0 5-4 6l5-16q3-8 8-14l12-26-6 19-8 13-3 7zM87 848l1 1 1 1 2 1 1 1c9 1 17-3 27-1l-1 1h-10c-3 0-9 3-17 1v-1l-2-1-1-1h-1zm1212-291v-29l1-1v29zM898 394q-2 0-2-3v-9c1-2-2-6 1-8l1 7zm-447 29c-5-5-17 3-17 7l-1 9-1 1q-3-13 8-18 5-3 11-1zm1218 46q-3 1-6-1zl1 1 8 1v1h8l1 1h9l7 1q4 3 9 2-4 2-10 0l-9-2h-7l-1-1-7-1-1-1zm-638 427q2 1 1-1l2 2 1 1 2 3v16l-2 3c-2-7 3-13-1-21v-1l-1-1zM8 570l-8 4q6-7 21-10 5-3 8 2H19zm1001 229-27 1-2-1 28-1zm569-186q-5 3-10 1l-7-1 5-2 12 1c3-1 3 2 0 1M589 365q0 7-8 7l-3-4c-2-3 3-4 2 0q3 3 9-3M299 162q-2 1-3-2l4-1 11-2q4 0 0 2zm977 672v2q-3 3-8 1-1-3 3-5l2-1q2-1 3 3m-3 0v2l1-1zm303-159q-7 3-15 0l10-3q3-1 5 1 2 0 0 2M712 83q1 5-1 11-2-12 4-22 0 5-3 11m533 624q3 3-1 2-4 3-7 1-4-3-6-8c-1-3 4-3 3 0q5 10 11 5M845 386c-7-2-13 2-10-1 1-2 12-1 21-4 0 5-7 0-11 5m125-130q1 3-2 3t-4-4l3-4q2 0 3 5M698 673v-23h1v22zm250-347-3-1h4l1 1 2 1 1 1h2l1 1v1h1l1 1v1l1 1h1l1 1v1q4 2 5 6l1 1 4 6v1l1 2 1 1 3 9 2 8h1v5l1 1 1 6q3 7 0 15l-2-20v-1l-1-5-1-1-5-16-1-1v-2l-1-1-4-6v-1q-4-3-5-7h-1l-1-1-1-1-1-1-1-1v-1h-1l-1-1-2-1h-1l-2-1zm97 523v4q-1 2-3 1-3-3 0-6 2-3 3 1m235-298v-21h1v21zm5-26-1-21h1zm-279 16-1-21h1zm312 48-1-21 1-1zm182 218c-2-5 3-8 3-15q3 6-2 13zM762 417q-2 2-2-1l11-1c1 0 3-2 6 2zm647 211-1-20h1zM921 761q0 3-2 0l-3-1 1-2 6-6c1 3-4 5-4 7zm185 285 7-10 6-7 12-14-5 1 8-5c4 4-9 13-14 20l-6 7q-4 3-7 10-3 0-1-2M32 327q2 1 1-1l1 2 1 2 1 3h1l1 4v1l1 3 1 1v2l1 1 2 6 1 1 1 2v1l1 2 1 1 1 2v1l1 2 1 1 1 2v1l1 2h1v3h1l1 2 1 1 5 10 1 2 1 1 2 4 1 1v2h1l4 7v1l4 5 3 7 1 1v2l1 1 1 2h1l3 7 1 1 4 5 2 4 1 1h1l1 1v1l1 1h1v1l1 1 2 1q-2-1-1 1l-2-2-1-1-1-1-1-1-1-1-1-1-3-4v-1l-4-5h-1l-3-7-1-1-1-2-1-3h-1l-2-4-4-9h-1l-4-7v-1l-1-2h-1l-2-4-1-1v-2l-1-1q-4-4-5-9l-1-1-1-2v-1l-1-2-1-1-1-2-1-3h-1v-3h-1l-1-2-1-1v-2l-1-1-1-2v-1l-3-6v-1l-1-2-1-1v-4h-1l-1-4-1-1v-2l-1-1-1-2zm880 149h-14l-1-1h13zh1l15 1q0 5-2 1h-11l-3-1zm69 147-18 1-1-1zm14 25q2 6-3 10c1-6-3-10 0-11q0 4 3 1M527 414h-6q3-3 6-1zl6 1 1 1c7-1 17 1 17 2l1 1q-2-1-1 1l-1-2q-5 1-11-1l-6-1zm524 284c5-2 16 1 17 1l-1 2-6-1q-4-2-10-2m-515 368c-5 5 3 10-2 13q-3-7 1-13 0-3 1 0m750-516v-17h1v16zM825 369l-13 1q-3 2-2-2 8-1 15 1m406 596q-1 3-4 2-3 1-6-2 0-2 2-2 2 3 8 2m135-406-1-16h1l1 15zm-130 333q-1 3-3 2l-1-3q0-3 3-4 3 2 1 5m43-369-1-16h1l1 15zm-750 5q-1 2-3 0-5-4-2-9zm236-126-12 1v-1l5-1q4-2 7 1m159-237-18 9 7-5 11-6 7-4 13-8 1 1-8 5-6 4zM175 281v-13l1-1v14zm574 86q-8 2-14 0c4-3 7 0 9-1l7-1 8-1h12v1h-12zm9 8q-7 0-9 3-2-4 3-5zm462 649q1 3-1 3-2 1-4-3l1-2q2-1 4 2M860 353h-15l14-1zm-93 29-10 1-3-2q6-1 13 1m502 143-1-13 1-1zM820 946c3-1 2 3 0 1l-3 2q-3 0-2-2-1-2 1-2zM581 354q-5 5-8 3l1-3zm225 16-14 1v-1zm415 364c0-4 5-4 9-8 0 5-4 5-9 8m159-126v-13h1v11zM823 376q-5 3-11 0zM417 274l-4 7q-1 3-2 0l6-12 4-10 5-11 3-7q1-3 2 0l-4 8-4 9-5 15 1 2q-3-2-1 1zm707 596v5q-5-4-2-7 1-1 2 2M838 375h-12l-1-1h12zm429 123v-12l1-1v12zm24 90q2 2 1 0l2 1v1h1l1 1v1l1 1h1l1 1v1h1l1 1 1 1v1q3 0 6 4 2 1-1 2l-5-5-1-1-1-1-1-1v-1h-1l-1-1-1-1-1-1-1-1v-1h-1zm-275 98-1-3-1 4q-3 0-2-3 0-3 4-3l1 4 1 1v6q-2-4-1-6zM406 586l-6 4-5 5-8 5 9-9 22-16 23-16 11-8q-2 5-7 6l-11 8-13 10-10 6zm565 270q2 2 0 3l-5-7q5-2 5 4m49-208q-2 6-8 9 4-6 9-10zM808 378q-4 1-9-1l8-2zM238 172q2 2 1 0l2 1 3 1h1l9 3 3 1q-4-2-2 1l-2-2q-4 1-9-2l-1-1h-3zm1010 488q-2-1-1-3-3-2 0-3-2-2 1-3zm-5-171-1-11h1zm-208 460-1-5 7-12 10-15 5-4-5 6-8 12-4 7zm52-96q-3 11-9 15 3-9 9-15"/><path d="M1193 817q-2 4-7 6l19-20h1zm-599 81q2 2 0 8l-1-5-1-2zm274-559h-9l-1-1h9zm531 264h-10q6-2 11 0h1l5 1h-6zM785 363l-10 1-1-1 10-1q2-2 1 1m179 320v-10zm303 5q-4 1-7-2 3-2 7 2M841 410q-4 2-6-1 4-1 7-4l-1 3zm-56-38-8 1q-3 1-1-2 7-1 8 1m5-15-10 1v-1l9-1zm-17 16-8 1q-3 2-1-1zM227 130q2 2 1 0l1 1 1 2v1l1 1h1l2 4 1 1 2 3 1 1 3 7h1l3 5q-2 2-2 0-2-1-2-4l-1-1-3-6-1-1-2-4h-1l-2-4-1-1-1-1-1-2zm569 232h-8l-1-1h8zm103 524v-5l2 2q1 2-2 3M385 588l8-6 6-5 5-4 7-5 9-7 9-7 6-4 7-4q-2 3-6 5l-41 31-7 5-9 7-9 9q0 3-3 1l11-11zM543 95l-4 3q-1-4 3-5 2-1 1 2M160 839l5-9 4-5 6-8 6-7 4-6 4-5 5-6 4-6 8-11q1-3 5-5l-8 11-9 12-6 9-4 6-5 5-7 9-7 10zh-1m64-326q-2 1-1-1l4-5 4-6 5-6 6-7 9-10q0-3 2 0l-7 7-5 6-6 7q-5 5-11 15m489 135-12 1q6-4 12-1m272 49h-8l-1-1h8zM180 848c-2 2-4-2-1-2q2-5 7-9l8-10 4-5 4-6 6-9 9-12 6-8q1-4 5-6l-11 16-12 18-4 5-4 6-6 7-7 9q-3 1-4 6m690-496-6 1q-3 1-1-2h4zM743 745c0-4-2-2-3-2l5-7-1 6q1 2-1 3m545-185-1-8 1-1zm-112-126q2-14 15-24 3-3 8-2-14 5-20 21zm-425-51-5 1q-3 2-2-1l5-1zm88 13-4-1 3-1c3-3 4 1 1 2m-95 0-7 1q0-2 2-3zm673 423c3 2 1 6-2 3q-3-3 2-3M396 144v-6l1-1v6zm811 263-5-1zv1l4 1h1q3 0 5 3l1 1 1 1h1v1l1 1 1 1h1v1l1 1 1 1v2h1l1 1 1 1v2l2 1q-2-1-1 1l-1-1-1-2-1-1-1-1v-1l-1-2h-1v-1l-1-1-1-1h-1v-1l-1-1-1-1-1-1-1-1-5-2-1-1zm159 120-1-7h1zM717 364l-7 1-1-1zm922 374-1-7 1-1 1 7zm-367-243-1-6 1-1zM124 245q3 1 1-2l1 2 1 4 1 1q2 1 2 5-4-2-3-5l-1-1v-3zm-4 155v-7l1-1v7zm234 95q-5 12-6 22-2-2-1-4l6-18c-1-2 2-2 1 0m887-25v-5q2 0 0 5M609 772q-2-1 1-4 3 2-1 4m641 91h-5l5-1zm-971-90q2 1 1-1l1 2 2 1h1l1 1v1h1l1 1v1l1 1 4 2h1v1l1 1 1 1 1 1 1 1 1 2 1 1q-2-1-1 1l-1-1-1-2-1-1v-1l-1-1h-1v-1l-1-1-1-1-4-2-1-1-1-1v-1h-1l-1-1-1-1h-2zm617-299h-6q1-2 6 0m79 12h-6q1-2 6 0m-481 559q-1 3-2 0l15-22 10-13 6-8q2-4 7-7l-5 7-15 19-6 10zm469-196v-4l2 2zm209-397v-6q2 1 0 6m295 170v-6q2 2 0 6m-966 402-10 14-1-1 9-13 7-10 15-19-9 13-7 9zm496-360v-6q2 2 0 6m152 175q-1-4 3-6 0 4-3 6m285-473q-2-2 0-5zm-573 0h-6q2-2 6 0m310 93v-6q2 1 0 6M785 162l-14 4v-2l11-3zm5 209q-3 3-4 1l2-3q3 0 2 2m-593 7v-6q2 2 0 6m787 316h-6q1-2 6 0M226 522l-2 5h-2l6-9 9-9q-2 5-6 7zm1334 91q-4 0-3-4 3 0 3 4m-305-95q-2-3 0-6v5l1 1v5l-1-3zm-86-50v-6q2 1 0 6M175 255q0 5-2 1 1-3 2-1m828 412c1 3-3 4-2 0q0-2 2 0M854 356q3 2-1 2c-3 1-2-3 1-2M22 528q-4 0-6 2 0-5 6-2m201-196q-3 3-1-1l12-3zm1035 199q3 1 1-2l1 2 1 4 2 1q-3-1-1 2l-2-3v-3zm335-82q3 1 0 1c-3 1-2-2 0-1M298 762q2 1-1 2-4-2 1-2m561-417q3 1 0 1c-3 1-2-2 0-1m-124 39q3 1 0 1c-3 1-2-2 0-1m766 427q0 5-2 1 1-3 2-1M217 82c1 3-3 3-2 0q1-3 2 0m549 84q2 1-1 1c-3 1-2-3 1-1M215 75c2 2-2 3-1 0q0-2 1 0"/><path d="M214 69q0 5-2 0 1-2 2 0m202 215q0 3-2 0 3-2 2-6 3 3 0 6M254 53q2 1 1-1l1 1 1 2q-1 4-1 0zm961 649q-2 3-2-1 2-4 2 1m16-271q3 1 0-2l2 3 1 2 1 4 2 1q-3-1-1 2l-2-2v-4l-1-1-1-2zM133 468q0 4-2 0 1-3 2 0m1521-3q2 1 0 1c-4 1-3-3 0-1m-480-23c2 2-2 3-1 0l2-6q2 2-1 6M967 696q-3-1-1-2 4-1 1 2M732 378q-2 2-3 0 2-3 3 0m701-8-3 9h-1l3-10q1-2 1 1M392 421q-2 3-2-1 1-3 2 1m480-85q3 1 0 2-4-2 0-2m387 373-2 3-2-1zq1-1 1 1M711 18h-3zm948 448-1 2q-2-2 1-2M217 478l2-4q2-5 8-8zm8 15 6-7 6-5-5 5q-1 5-7 7m-7-402q-2-1-1-3zm2 3q-2 2-2-1 2-2 2 1m1 6q-1 1-1-1 1-2 1 1m428 12v-3zm-346 3-1-2q0-2 3-2zm-1 4-4 6h-1l3-6q2-4 2 0m955 408v-3zm-1029 6 5-4q2-5 7-8l-6 8q-1 2-6 4M64 141q2 1 0-1l2 1v2l2 2q-3-2-1 1l-1-2-1-2zm4 8q2 1 1-1l1 2 1 2 1 1v2l1 1 1 2v1l1 2h1l1 1v1l1 2 1 1v1l-2-1v-2l-1-1-1-1-1-1v-2h-1l-1-3-1-3h-1l-1-2zm934 7v-3zm261 387v-3zm1 4q3 1 1-2l1 2 1 2 1 1v2l2 1q-3-1-1 2l-1-2-1-2-1-1-1-2zM760 167q2 2 0 2-2-2 0-2m740 381q1 2-1 2-2-1 1-2m7 3v-2zm-181-1-1 3q-1-3 1-3M84 177q2 1 1-1l1 1 1 2 1 2q-2-1-1 1l-1-2-1-2zm815 2q2 1-1 1-2 0 1-1m396 390v3zm-929 28q-4 1-2-1c0-3 4-1 2 1M113 220q2 1 1-1l1 2 1 2 1 1q-2-1-1 1l-1-1-1-3zm478 386q-3 1-2-2c1-2 5-1 2 2M119 230l2 2q2 2-1 2zm313 381-4 4v-1zl7-4q-1 4-6 5M122 238q-3-2 1-2-1 2 1 2 2 2-1 2zm299 382-4 2 4-4 5-3q-2 4-5 5m1047 5h-2zm-402 7h-3zm-65 28h-1q1-3 1 0m557 14v3zm-584 18h-3zm-801 9q2 1 1-1l2 2c2-1 1 2-1 1zm583 35 4-6q2-2 0 1 0 3-4 5m-29 8 5-8 2-1-6 9zM59 280h-1q1-3 1 0m227 3q2 1 0 1t0-1m1261 555 4-7zM414 290c-1 4-4 2-1 0 0-4 3-3 1 0m434 119q-3 1-2-1c1-2 5-1 2 1M148 850c-3 1-2-2 0-1l2 2q-2-1-1 1zm263-553c-1 4-4 2-1 0 0-4 3-2 1 0m844 567h-3zM204 896h-3zm294 71 6-7q1-3 5-4l-6 7q-1 3-5 4m-4 24 4-5 6-7q1-3 5-4l-6 7-4 4q0 3-5 5m641-2v-3zm144 53 3-4q2 3-3 4m-790 1c-1 3-4 2-1-1 0-3 3-2 1 1m7 13 8-12q1-3 5-4l-6 6zm368-691q2 1 0 1-2-1 0-1m-135 4h-2zm12 7h-3zm3 27q3 0 3-3 2 1 1 3zm108-3h-3zm-730 7v3zm64 1v3zm663 6v3zm389 29-1 3q-1-3 1-3M235 457q-4 5-8 7l9-11 8-7q-2 4-5 6zm-104 3q0 3-1 0zM937 36q-4 2-1-1 2-1 1 1m-479 6 5-5 1 1-5 4zm-1 3v2zm-2 4 1-1 1 1zm-2 2 1-1 1 1h-1zm114 3q-3 1-1-1t1 1m187 3 1 1zm-533 48 1-1v1zm-1 12v1zm1 4 1-1v1zm3 5q2 1 1-1l1 2v1zm72 2v1zm555 9-5-1-6 4-14 8-12 10-7 5-2 1q-2 1-3-2l7-7 12-9q7-3 12-10h10l3-4 6 4h1q2 2-1 2zm-61 23 1 1zm-4 1v-1l1 1zm-706 9v-1l2 1-1 2zm8 14 1 1zm891 1q2 2 1 0l2 1v1l2 1q-2-1-1 1l-1-2h-1zm-889 2q2 1 0-1l2 1v2zm3 4v2zm794 1 1-1 1 1zm-791 3 1 1zm2 5 1 1zm3 4q2 1 1-1l1 2v1zm3 5 1-1v1zm3 3 1-1v1zm3 4 1-1 1 1v2zm7 12 1-1 1 1zm-67 30h2l-1 1zm123 3h2l-1 1zm-121 3 1-1v1zm5 12v2zm223 9 1 1zm798 266q2 1 1-1l1 2v1zm-622-1q-3 3-1-1 2-1 1 1m-46 71q-3 3-2-1 2-1 2 1m33-77h2l-1 1zm929 81h2l-1 1zM228 538q-3 1-2-1 3-2 2 1m-180-1h1l-1 1zm362 102 4-4 1 1-3 3zm18 1 3-3h1l-3 3zM49 535l1 1zm973 111 1-1 1 1h-1zm343-115 1-1v1zM998 655v2zm297-89 1 1zm-19 0h1l-1 1zm89-48 1-1v1zM67 516l1-1 1 1h-1zm1155 190 1-1 1 1zM71 515v-1l1 1zm3-2v1zm570 217 14-14 1 1-13 13zm96-6 5-5v1l-4 4zm-96 26 28-28 1 1-27 27zm108-26 1-1 1 1h-1zM237 507l8-8 1 1-8 7zm502 221q-3 2-1-1 2-1 1 1m-541 1 1-1v1zm416 1q-2 1-1-1 3-2 1 1m136-2v1zm-14 4q-3 2-1-1 2-1 1 1m11 2q-2 1-1-1 3-2 1 1m-148 9 8-8 1 1-7 7zm140 4q-3 1-1-1t1 1m-114 3 4-4 1 1-3 3zM221 499l4-4v1l-3 3zm514 251 1 1zm-145 3q-3 1-1-1 2-3 1 1m149 8q-3 2-1-1 2-1 1 1m-7 6 4-3h1l-3 3zm-456 5v-1l1 1zm-99 5q-3 2-1-1 2-1 1 1m442-1 1-1 1 1h-1zm-389 3q-2 1-1-1 3-3 1 1m388 1q-2 3-2-1 2-2 2 1m-447 4q-3 3-1-1 2-1 1 1m1092-302-1 1zM620 798l3-4 1 1-3 3zM237 478l6-6 1 1-6 5zm1172-3h1zM617 816l8-8v1l-7 7zM181 472h1l-1 1zm63-2 4-4v1l-2 3zm-135-6 1-1 1 1h-1zm745 358v1zm419-260v1zM250 463v-1l1 1zm-141-2v2zm1020 365h-2zm111-368v2zM151 831l1-1 1 1h-1zm-44-372 1-1v1zm973 373q-3 2-1-1 2-1 1 1m558-378 1 1zm-561 382q-3 3-1-1 2-1 1 1M830 448l1 2h-2zM82 840h2l-1 1zm2 4q2 1 1-1l2 2q-2-1-1 1zm965 4v1zm-843 4h-2zm15-415v1zm618-5v2h-1zm-56 2 1 1zm-557-2v2zm552-4q-3 1-1-1c0-2 3-1 1 1m65-3 1 1-1 1-1-1zm-56 2v2zm-548-1h1zm531-6 1-1v1zM202 886l1 1zm561-472 1-1v1zm11-2 1 1zm-256 0 1-1 1 1h-1zm268-1v-1l1 1zm-406-1 1-1 1 1zm377-5 1 1zm4-7v2zm133-1 1 1zM475 919l4-4 1 1-3 3zm310-525-1 1zM498 922l4-4 1 1-3 3zm21-2q-2 2-1-1 3-1 1 1m-27 3q-3 2-1-1 1-2 1 1m356-529 1-1v1zm-52 0 1-1v1zm-56-2v-1zm15-2q-3 2-1-1 2-1 1 1m87-1 1 1zm-99 0q-3 1-1-1 3-2 1 1m46-1 1-1v1zm482 172v1zM520 935q-3 1-2-1 2-2 2 1m280-549 1 1zm-45 0 1-1 1 1h-1zm47-3v1zm-22 1 1-1 1 1zm83-3h1l-1 1zm-48-1v1zm-68 1 1-1v1zm101-2 1 1zm-727-1h2l-1 1zm601 0v2zm136-2 1 1zm1-3 1-1 1 1h-1zM489 956h-2zm22 3 4-3 1 1-3 2zm6 3 5-5 1 1-4 4zm951-356 1 1-1 1zM526 963l1-1v1zm944-357h2l-1 1zM504 968l5-5 1 1-4 4zm4 4 7-6 1 1-6 5zm12-2 4-4v1l-3 3zm285-2v1zm-50-598q-3 1-1-1t1 1M494 972l4-3v1l-3 2zm241-601 1 1zM538 970l-1 1zm-25 8 5-5 1 1-5 4zm11-1 4-4 1 1-3 3zm-31 0q-2 1-1-2 3-1 1 2m24 8 7-6v1l-5 5zm-10 0 5-5 1 1-5 4zm629-1 4-4zm-610 3 3-4 1 1-3 3zM382 361l-1 1zm479-3 1-1 1 1zM521 993l4-4 1 1-3 3zM20 356l1 1zm-2-2v2zm1135 654h1l-1 1zm-279 14c4-20 33-22 35-16l-6 8 3-8c-10-2-24 3-28 12 0 4 3 10-1 14q-7-6-9-15-11 11-14 25l-1 8-1 11c-4-4-2-8-2-13q2-16 12-28 4-2 5-6l-4-15q-7 11-15 8l-5-7-3 15-2 9q-6 3-12-1-2-4-1-6c-3-2-5 2-4 3l4 6 6 16q3 4 0 7l2 3q0 5-7 8c-3-4 0-10-4-10q1 4-1 10l-1-11q-2-2 1-2l5 1q3 0 4-2l-10-24-10 5q2-8 7-12l1-19 2 15q0 3 3 2h3c3 1 1 6 2 8q3 2 7 1l2-9 5-21q1-4 4-3-1 9 4 15c10 1 10-11 15-10l3 13 5 15zm1 0-1 1 1 1zm2 2-2 1q2 1 2-1m-46 29h-5q-1 2 2 3zm38-708q-3 2-1-1 2-1 1 1M0 346l1-1v1zm514 684 4-3h1l-3 3zm9 3 4-4v1l-3 3zm-15 4 4-3 1 1-3 2zm11 2 3-4 1 1-3 3zm-5 6 4-4 1 1-3 3zm-1 4q-2 1-1-1 3-2 1 1m-3 4q-2 2-1-1 4-1 1 1m-3 4 1-1v1zm-12 3q-3 2-1-1 2-1 1 1m-4 4v2zm-1 4v-1zm27-181 10-9v1l-8 8zm17 1q-3 3-1-1 2-1 1 1M299 519l2-1 8-5-19 21q-8 11-19 20 3-11 11-17z"/><path d="m301 518-2 1q1-4 4-5zm4-72c-7 4-9 11-15 14l2-4 20-20 14-10q2-3 6-1l-9 7-11 7zm2-17q0 3-3 5-1 2 2 2l-5 3q-2 3-6 5l7-11zm-1 7 1-1zm5-3-4 2q1-2 4-2m1-1q1-2-1-3h-4l5-3 14-8q4 0 3 2-10 5-17 12m-1 1 1-1zm-34 99 15-15 4-1-26 25zm48-67-4 6q-2-9 7-16 3 1-3 10m-23 86h2q-2 3-2 0m2 0v-1h1z"/><path d="M305 550q-1-2-1 0l-2 1-7 6-7 6q3-5 8-9l19-18c3-2 4-8 9-9l-8 9-4 5q-3 6-7 9m24-32q-2 5-5 7l4-7q1-2 1 0m-22-127v-3zm-27 177 4-4 1 1-3 3zm25-58 3-3h1l-3 3zm6-7 5-5v1l-4 4zm8-10 1 1zm0-20v2zm1032 47v-27l1-1v27zm-3-21v-15l1-1v16zm-4 2-1-12 1-1zm3 17-1-11h1zm6-27-1-8 1-1 1 8zm-44-12h-8l-1-1h8zm20 31-8 1-1-1zm18-37v-6q2 1 0 6m-37 14h-6q2-2 6 0m44-8v-6q2 1 0 6m-9 3v-6q2 2 0 6m-48-5h-6q2-2 6 0m13 15q2 1 0 2-5-2 0-2m-59-107q2 1 0 2-5-2 0-2m-19-4q2 1 0 2-4-2 0-2m117 82c1 3-2 4-1 1q0-3 1-1m7 6v-3zm-52 2h-2zm11 8q2 1 0 2-3-2 0-2m-5 20h-3zm35 5h-2q2-3 2 0m-162-165q2 1 0 1zm43 12h-2zm11 3h-3zm4 1q2 1 0 1t0-1m11 4h-2zm-37 18q0 2-3 0zm6 2h-3zm5 1h-2zm14 3h-3zm5 1q0 2-3 1zm114 74v-3zm-72 2h-3zm70 1v-2zm-64 9v-1l1 1zm-7-2v1zm-12-31v1zm-7-2h1l-1 1zm-22-4q2 1 1-1l2 2q-2-1-1 1zm6-8 1-1 1 1zm19-5v-1l1 1zm-6-1 1-1v1zm-13-23 1-1v1zm5-7 1 1zm-14-15h2l-1 1zm3-6 1 1zm-4-1 1-1v1zm-6-2 1 1zm20-4h2l-1 1zm-10-1 1 1zm-15-6-1 1zm-11-2 1 1zm-41-12v2zm-677-96 5-5h1l-4 5zm-4 6 1-1v1zm-51 27 11-11 1 1-10 10zm8 3 8-8-7 8zm-11 20 16-15-14 15zm2 7 14-14v1l-13 13zm-2 6q-3 1-1-1t1 1m-73-116c1 6-10 10-22 6 4-5 11 3 20-5q-3-5-10-5c3-2 11-1 12 4m400 451v-13l1-1 1 14zm267-220h-22l-1-1 15-1h6l5-1h19l4-1 22-1 4-1h16l5-1h15l5-2h12c4 0 8-3 11 0l-9 1h-7l-8 2h-15l-9 1-8 1h-7l-14 1-4 1h-6l-21 1zm-2 3-5 1h-15l1-1 12-1 11-1h12l7-1h21l7-1 18-1 4-1h16l4-1 17-1 1 1-12 1-7 1h-16l-5 2h-18l-9 1-9 1h-7zm-4 28h16l9-1h11l7-1 12-1 5-1h14l9-1 8-1q5 1 9-1h7q3-2 2 2l-11 1h-17l-4 1-14 1-9 1-8 1h-23l-4 2h-19zm33-15-6 1h-14l1-1 12-1 8-1 17-1h13l4-2h16l4-1 19-1q4-2 8 0l-6 2h-19l-4 2h-15l-7 1-10 1h-6zm-23 2h-11l10-1q2-2 1 1m-12-7h-8l-1-1h8zm121-16q0 3-2 1 1-3 2-1m-92 48-1 1zm41-3h2l-1 1zm39-1v2l-1-2zm-17 1 1-1v1zm-8-1h1zm16-1 1-1 1 1h-1zm10-2h1zm-4-9h2l-1 1zm207-43-18 2-12 1v-1l13-1 7-1 10-1 13-2 12-1h8l-13 2-10 2zm-21-24-12 1v-1l11-1 10-1 12-2 8-1 11-1 11-2 11-1h9l1 1h-10l-11 2-11 1-12 2-12 1-10 1zm9 6h-10l10-1 8-1 9-2h9c8 0 19-5 24-2l-14 2-10 1-8 1-9 1zm9 6h-11v-1h9l8-2c4 1 13-2 19-2l10-1h9l-11 2-11 1-12 2zm-3 21c-4-1-15 3-27 0l18-1 8-1c5 1 10-2 16-1h1q-4 2-8 1zm-8 24h-19l-1-1h19zm14-2-12 1-1-1 11-1 3-1 2 1zm7-40-17 3h-10v-1l10-1 9-1 8-1 10-1c8 0 18-4 22-1l-12 2q-4-1-10 1zm-29 4h-14zm57-30h-13v-1h12zm-51 24-12 1-1-1zm-16 2h-12l-1-1h12zm80-28-11 1-1-1 11-1zm-74 20-11 1-1-1zm-7 21h-11l-1-1h11zm39-37q-10 3-21 2c-3 2-3-2 0-1 8 1 14-3 21-1m-25 3-11 1v-1zm-13 2h-11v-1h10zm51-6-11 1-1-1zm-23 72-10 1-1-1 10-1zm24-33-8 1-1-1zm28-30h-8l-1-1h8zm-87 3h-7v-1h6zm0 18-7 1v-1zm94-34h-6q1-2 6 0m3 4h-6q1-2 6 0m-106 18q3 1 0 2-4-2 0-2M586 274l-7-5q-10-9-2-19c4-1 7 3 9 1q-1 5 3 9l3-9 3-2q2-1 3 2c6 12-1 25-2 26l-4-1q-1 7-4 10-3 2-4-1-1-4 2-11m3-10c-1 3-3 0-4-1q-3-2-3-6-1-4-4-4c-3 8 3 17 12 18q0-2 2-2t1 1h2q5-8 0-17zm-47 39q0-2-2-1l-1 2q-3 2-5 6l-1 1q-1 2-3 2-1-8 6-12 11-11 15-3 2 3 1 8-2 1-3-1v-4q1-3-2-2zm-11 7q3 1 1-2z"/><path d="m541 304-1-2 2 1zm-2 0h2q-3 3-2 0m45-55v-2zm-270 43-6 12 4-10 5-12q1-3 4-5l-2 5zm22-117-4 10-1-1 4-9 3-8q1-2 2 0zm-25 112-2 1 1-3 2-6 4-10q3 0 1 1zm27-139q-2 12-4 10-1-3 4-10m-10 48-4 9v-1l2-9q2-3 2 1m11-50q1-3 1 0m-7 16v-2zm-3 27c0 4-4 2-1 0 0-4 3-3 1 0m2 17q-3 5-2 0c0-4 4-2 2 0m-3 20v-2zm-2 5c0 4-3 2-1-1 0-3 4-2 1 1m-3 21v-2zm-1 5c-1 4-4 2-1-1 0-3 3-2 1 1m-3 7c-1 4-4 2-1 0 0-4 3-3 1 0m-10 48 5-8q2-2 0 1l-4 8zm-10 38h-2l15-30 1 1zm28-167 1-1v1zm7 0v1zm-10 65 1-1v1zm-4 27v-1zm832 123v-47h1v47zm6-11v-31l1-1v31zm14 11v-29l1-1v30zm-53 9v-27l1-1zm6-9-1-19 1-1zm-12 9v-18l1-1v18zm52-26v-18l1-1v18zm-26 25v-17l1-1v17zm-32 2v-13l1-1v14zm60-5-1-14 1-1 1 14zm13-6-1-14 1-1zm-20 8q-2-6-1-12l1-1zm27-7-1-12 1-1 1 11zm-9-20v-8l1-1v8zm-33-7v-7zm-76 151v2l-1-1zm20-1h-2zm-16-7h1zm22-1q-2 1-2-1 3-2 2 1m21-26q-2 1-1-1 3-2 1 1m-9 1 1-1 1 1zm-20-1h1l-1 1zm46-2 1-1 1 1zm-18-8q-3 1-1-1 1-3 1 1m-23 0 1-1 1 1h-1zm32-2q-2 2-2-1 3-3 2 1m-22 97q-2 3-5 2l14-15 4-5q3-5 8-8l-2 4-5 6-8 8zm39-57v3zm-6 16q-1 5-5 7zc0-3 3-1 1 1m-13 19v-1l1 1zm0-10 1-1v1zm3-5v1zm1-2v2zm-32 40v2l-1-1zm41-47 1-1 1 1zm2-4v2zm-3-2-1 1zm4 0 1-1v1zm3-8v1zm1-2 1 1zm1-5 1-1 1 1h-1zm4-8h1l-1 1zm-28 58q-2 2-1-1 4-1 1 1M869 400l-6 17-1-1 6-19q3-1 1 3m-16 33-4 10-1-1 4-8 3-8q1-3 2 0zm12-33v3zm-2 6v-2zm-1 4h-1q1-3 1 0m-1 3-1 3q-1-3 1-3"/><path d="M859 420q-3 5-2 0c0-4 4-3 2 0m3 2q-3 4-2-1c0-3 4-2 2 1m-16 28q-1 4-4 5l3-6c-1-3 3-1 1 1m-9 14q1-3 4-5 0 3-4 5m-9 12 3-4 1 1-3 3zm9-7-1 1zm-5 1 4-4v1l-3 3zm9-13v-1l1 1zm314 24-1-21 1-1 1 21zm-5 1v-17h1v16zm9-4v-9l1 8zm0-18v-8zm-2-13q0 5-2 1 1-3 2-1m4-7q0 3-1 0zm-279-59q-2-4 0-6l1-7 1-7 2-8c3 3 0 5 0 8l-2 10q1 6-2 10m-6-1v-12l1-7c1-8 6-21 11-26l-5 10-4 15-2 8v9z"/><path d="M890 337q2 1 1-1l1 2 1 2q-2 0-2 3-1 1-1-2h-1l-2 6 1 1 1-3v3l-1 4q-2-2-1-4h-1l-5 16v10q-3-7 0-15l6-18q2-2 3-1l1 1v-3zm1-5q-2 3-2-1 3-1 2 1m3 1v2zm-3 1q2 1 1-1l1 2v1z"/><circle cx="778" cy="494" r="1"/><path d="M1418 348v3zm6-2h2l-1 1zM296 720q0 5-2 1 1-3 2-1m1-3v-2zm463-368h-10v-1h9zm-363-46h-2zm386 146 1-1 1 1zm-5 66v-3zM486 293h1z"/><circle cx="801" cy="487" r="1"/><path d="m1041 964 1 1-1 1-1-1zm18-140v-1l1 1zM632 488l3-3c-1 5-5 7-3 10l5-6h1l-7 10v7l-1 1v-29l9 1h10v16l1 6-2 7-1-27h-16zm-8-9v27l-1 1v-29l-10-1-8-1c5-3 11 1 18 0q4 0 1 3"/><path d="M638 496q-1 4-4 5 0-4 3-5c-1-3 3-2 1 0m-25-2q1-6 5-8-1 5-5 8m26 7h1l-1 1zm3-3q-3 2-1 0c0-2 3-1 1 0m3-4q-3 2-1-1 2-1 1 1m-33-4q-2 1-2-1 3-3 2 1m27-5h1l-1 1zm-28-2 1 1zm168-78v-1zm11-1v1zm310 98-1 1z"/></svg>