<?xml version="1.0" encoding="UTF-8"?>
<svg id="Layer_1" xmlns="http://www.w3.org/2000/svg" version="1.1" viewBox="0 0 56.69 70.87">
  <!-- Generator: Adobe Illustrator 30.3.0, SVG Export Plug-In . SVG Version: 2.1.3 Build 182)  -->
  <defs>
    <style>
      .st0 {
        fill: #fff;
      }
    </style>
  </defs>
  <path class="st0" d="M45.09,46.49c-1.19,3.92-3.53,7.28-6.73,9.79l-3.3,2.38c-1.36.98-2.73,1.87-4.02,2.95-1,.84-1.89,1.72-2.71,2.76-1.12-1.36-2.35-2.51-3.72-3.56l-2.79-1.98-3.62-2.61c-1.99-1.6-3.67-3.49-4.95-5.71-1.96-3.42-2.72-7.05-2.71-10.99l.02-7.82v-9.61s4.3-.02,4.3-.02c-1.06-.44-1.97-1.06-2.81-1.81l-1.59-1.58c-.53-.52-1.06-1.01-1.71-1.35-1-.53-2.21-.73-2.88.14-.3.39-.4.88-.28,1.37.18.68.75,1.14,1.44,1.23,1.07.14,1.68-.51,1.87-.5.3.02.38,1.11-.08,1.77.34.3.63.57.81.96-.51.78-1.44,1.07-2.33.82-.59-.13.02.44.2,1.46.15.83,0,1.69-.49,2.38-.46.64-1.15,1.01-1.93.94s-.99-.59-1.18-.38c-.09.1-.06.21.04.28.83.61,1.67.6,2.6.13.86.69,1.46,1.53,1.89,2.52.74,1.68.89,3.51.52,5.31-.2.98-.5,1.88-.79,2.83-.42,1.33-.73,2.92.07,4.07.08.11.19.13.28.06.1-.08.08-.17,0-.28-.69-1-.34-2.62.02-3.81.28-.91.56-1.76.76-2.7.47-2.15.22-4.37-.85-6.29-.42-.76-.92-1.4-1.6-1.95l.42-.41c3.01,2.78,3.2,6.91,2.19,10.7-.49,1.82-1.3,4.35.78,4.89.1.7-.51,1.38-1.26,1.48.2.58.32,1.13.05,1.65-.1.19-.22.39-.47.42-.17-.46-.42-.84-.78-1.15l-.77-.65c-.5-.42-.77-.98-.86-1.69l-1.14.82c-.09.07-.15.17-.27.15-.39-.06-.46-1.05-.27-1.78.24-.9.76-1.61,1.43-2.32-.75,0-1.37-.08-1.99-.38-.92-.44-1.5-1.3-1.53-2.33-.03-1.14-.73-1.43-.86-1.93-.05-.2.05-.35.24-.4,1.04-.28,1.69.45,1.81.37.15-.1-.16-.95.39-1.79.51-.77,1.38-1.03,1.29-.49-.07.41.09,1.13.51,1.34.54.16,1.06.35,1.24.96.07.23.12.53-.07.76-.28-.23-.54-.36-.88-.31-.26.04-.54.22-.69.5-.17.32-.17.65,0,.97.14.26.42.47.77.52,1.07.15,1.84-.86,2.07-1.95.27-1.28.12-2.59-.43-3.77-.58-1.24-1.63-2.09-2.97-2.38l-1.41-.23c-.52-.08-.99-.38-1.22-.88-.38-.83-.09-1.84.66-2.35.71-.48,1.77-.19,1.46.15-.19.2-.12.5.11.66.48.35,1.12.22,1.52-.24.79-.92.12-2.13-.56-3.05-.57-.77-1.13-1.51-1.66-2.3-.96-1.45-.88-3.23.2-4.59.84-1.04,2.11-1.57,3.45-1.32,1.82.34,2.99,1.53,4.2,2.75l1.11,1.11c1.32,1.2,2.86,2.07,4.61,2.53,3.63.96,7.96.55,11.02-1.79,2.87,2.19,6.77,2.67,10.24,1.98,1.93-.38,3.68-1.22,5.16-2.5l1.77-1.75c.68-.67,1.36-1.3,2.21-1.75.73-.39,1.5-.66,2.35-.64,1.23.03,2.29.71,2.95,1.72.79,1.22.84,2.71.11,3.97l-1.4,2-1.01,1.49c-.5.74-.48,2.03.47,2.46.58.26,1.22-.02,1.27-.43.02-.18-.06-.28-.15-.43-.15-.25,1.24-.64,1.98.43.35.5.46,1.13.27,1.71-.17.52-.61.87-1.13,1.01l-1.22.2c-.91.15-1.77.5-2.42,1.16-1.36,1.37-1.84,3.68-1.22,5.48.34.99,1.17,1.76,2.11,1.49.34-.1.6-.36.69-.61.14-.39.05-.75-.2-1.03-.34-.39-.93-.43-1.31-.08-.05.05-.13.03-.17,0-.03-.02-.07-.08-.07-.13-.12-.84.51-1.4,1.31-1.51.38-.24.56-.91.48-1.34-.13-.69,1.36-.09,1.6,1.32l.03.93c.04.07.21-.02.25-.05.86-.57,1.98-.42,1.85.09-.12.48-.86.85-.88,1.96-.02.91-.48,1.68-1.25,2.16-.66.41-1.37.52-2.25.53.6.68,1.11,1.3,1.37,2.12.18.59.25,1.19.03,1.76-.04.12-.13.21-.22.22-.13.02-.19-.07-.28-.14l-1.14-.85c-.12.9-.57,1.53-1.25,2.03-.52.38-.93.84-1.16,1.45-.18.06-.34-.14-.43-.29-.33-.54-.24-1.15.01-1.76-.74-.11-1.39-.75-1.28-1.48.57-.13,1.1-.5,1.26-1.13.13-.51.16-1.03.04-1.55l-.53-2.26c-.72-3.08-.95-6.12.77-8.92.34-.56,1.35-1.85,1.54-1.66l.35.36c-.69.54-1.22,1.18-1.64,1.95-1.02,1.84-1.29,3.97-.89,6.04l.85,3.07c.33,1.2.7,2.67-.03,3.74-.06.09-.03.19.05.24.07.05.18.03.26-.07.88-1.21.41-2.87.04-4.21l-.74-2.66c-.45-2.1-.18-4.26.9-6.13.4-.69.89-1.28,1.53-1.75,1.35.84,2.9-.07,2.63-.39-.08-.09-.19-.09-.3,0-.55.45-1.34.49-1.99.16-.72-.37-1.18-1.08-1.33-1.89-.27-1.48.55-2.51.46-2.64-.04-.06-.11-.07-.19-.05-.89.28-1.85,0-2.38-.8.18-.4.47-.68.8-.98-.56-.85-.33-2,.07-1.72,1.08.77,2.52.59,3.03-.42.26-.51.26-1.06,0-1.52-.36-.63-1.06-.88-1.76-.77-1.29.2-2.35,1.11-3.24,2.05-1.26,1.34-2.42,2.41-4.17,3.13l4.28.02v11.14s0,6.92,0,6.92c0,2.16-.35,4.26-.99,6.35ZM28.34,62.63c.86-.94,1.7-1.68,2.63-2.42l3.66-2.63,3.43-2.53c2.43-2.01,4.3-4.53,5.46-7.47.95-2.42,1.47-4.96,1.47-7.58v-16.81s-9.54.02-9.54.02c-1.01-.01-1.94-.06-2.92-.23-1.5-.24-2.9-.76-4.18-1.63-1.14.78-2.39,1.28-3.74,1.55-1.05.22-2.04.28-3.12.31l-9.8-.02v17.05c0,3.25.84,6.42,2.36,9.27,1.1,2.06,2.59,3.83,4.35,5.35,1,.86,2.03,1.59,3.1,2.34l3.18,2.21c1.35.94,2.54,2,3.69,3.22Z"/>
  <path class="st0" d="M36.74,16.86c-7.07-2-14.05-1.27-20.8,1.36l-.51-1.26c2.33-.93,4.69-1.61,7.13-2.08,4.52-.83,9.13-.72,13.59.39,1.75.44,3.43.95,5.1,1.68l-.54,1.24c-1.32-.54-2.59-.95-3.97-1.33Z"/>
  <path class="st0" d="M39.28,21.33c-6.19-2.42-11.6-2.84-18.04-1.22-1.34.34-2.58.78-3.87,1.23l-.53-1.23,2.88-1c6.95-2.09,13.39-1.74,20.12.99l-.56,1.23Z"/>
  <path class="st0" d="M44.06,58.71c-1.01.37-2.08.02-2.65-.91-.53.48-1.19.73-1.87.5-.2-.06-.38-.15-.45-.38.62-.37,1.03-.91,1.28-1.57.36-.95.94-1.72,1.7-2.37l1.28-1.11c1.13-.98,1.76-2.26,2.16-3.71.63,1.51,2.3,1.83,2.37,1.97.03.05.02.12-.01.19l-.75,1.35c-.42.77-.64,1.56-.75,2.43-.19,1.44-.9,3.09-2.31,3.6ZM44.92,55.81c.13-.37.12-.75-.1-1.08-.35-.53-1.02-.75-1.62-.53-.52.19-.83.68-.79,1.21.04.49.39.9.91,1.05,0,.36-.29.55-.34.71-.08.26,1.44,0,1.93-1.36Z"/>
  <path class="st0" d="M15.28,57.79c-.6.92-1.63,1.29-2.66.93-1.41-.5-2.15-2.17-2.34-3.64-.11-.88-.33-1.69-.77-2.47l-.74-1.31c-.03-.06,0-.19.05-.22l.73-.3c.73-.29,1.26-.87,1.6-1.62.41,1.47,1.04,2.73,2.17,3.71l1.31,1.13c.78.67,1.33,1.47,1.7,2.44.24.63.68,1.13,1.26,1.48-.04.19-.19.26-.33.34-.68.27-1.39.1-1.98-.48ZM13.35,56.46c.54-.18.91-.62.91-1.16s-.37-1.01-.92-1.14c-.49-.12-1.03.03-1.36.4-.31.34-.39.79-.25,1.22.43,1.31,1.94,1.67,1.96,1.39.01-.13-.33-.32-.33-.71Z"/>
  <polygon class="st0" points="35.53 14.75 33.19 14.31 33.99 10.55 34.52 10.2 34.82 8.89 36.41 9.21 36.13 10.55 36.42 11.07 35.53 14.75"/>
  <polygon class="st0" points="23.59 14.32 21.23 14.78 20.39 11.13 20.66 10.6 20.4 9.27 21.98 8.94 22.29 10.24 22.83 10.62 23.59 14.32"/>
  <path class="st0" d="M29.57,13.96l-2.42.03-.02-3.81c.13-.14.34-.27.37-.44l.03-1.34h1.65s0,1.34,0,1.34l.42.48-.05,3.73Z"/>
  <polygon class="st0" points="17.76 15.71 15.56 16.51 14.15 13.21 14.33 12.61 13.85 11.41 15.25 10.82 15.77 12 16.37 12.26 17.76 15.71"/>
  <polygon class="st0" points="41.13 16.48 38.99 15.71 40.38 12.22 40.96 11.99 41.49 10.8 42.84 11.39 42.35 12.59 42.55 13.18 41.13 16.48"/>
  <path class="st0" d="M3.11,24.68c-.09-.44-.21-.82-.47-1.19-.6.35-1.31.43-1.89.08C.36,23.33.07,22.97,0,22.5c.58-.16,1.1-.37,1.48-.8.72-.79.3-1.54.41-1.73.16-.28,1.02.17,1.2.89.34.64.74,1.2,1.17,1.79.18.66-.04,1.33-.55,1.78-.15.16-.32.28-.6.25Z"/>
  <path class="st0" d="M54.09,23.49c-.53.6-.29,1.35-.79,1.17-.73-.39-1.09-1.23-.86-2.02.47-.62.89-1.21,1.24-1.9.12-.45.5-.79.97-.85.15-.02.19.18.16.29-.3,1.18.68,2.04,1.87,2.31-.11.8-.85,1.33-1.64,1.29-.34-.02-.61-.11-.96-.29Z"/>
  <path class="st0" d="M39.67,19.64c-1.2-.45-2.36-.87-3.6-1.19l.37-1.3c1.31.35,2.53.74,3.78,1.22l-.55,1.27Z"/>
  <path class="st0" d="M20.62,18.48c-1.24.35-2.42.72-3.62,1.19l-.55-1.27c1.26-.45,2.5-.88,3.79-1.21l.38,1.28Z"/>
  <path class="st0" d="M29.93,8.04h-3.13s-.05-1.52-.05-1.52c1.1-.03,2.15-.03,3.22,0l-.04,1.52Z"/>
  <path class="st0" d="M24.48,17.69c-1.21.16-2.33.41-3.51.69l-.37-1.28c1.21-.31,2.41-.55,3.67-.72l.22,1.31Z"/>
  <path class="st0" d="M35.71,18.33c-1.18-.28-2.3-.54-3.47-.67l.18-1.33c1.26.17,2.45.4,3.66.71l-.36,1.28Z"/>
  <polygon class="st0" points="22.59 8.44 19.62 9.09 19.22 7.58 22.23 6.89 22.59 8.44"/>
  <polygon class="st0" points="37.1 9.03 34.19 8.4 34.51 6.87 37.48 7.55 37.1 9.03"/>
  <path class="st0" d="M33.22,12.43c-1.1-.14-2.14-.26-3.25-.3v-1.36c1.19.04,2.33.16,3.52.31l-.28,1.35Z"/>
  <path class="st0" d="M32.83,14.26c-.99-.12-1.91-.22-2.88-.26v-1.5c1.08.02,2.12.15,3.19.3l-.31,1.47Z"/>
  <path class="st0" d="M31.87,17.59c-1.14-.12-2.22-.2-3.35-.2v-1.32c1.19,0,2.32.08,3.52.21l-.17,1.31Z"/>
  <path class="st0" d="M26.78,12.14c-1.05.08-2.08.17-3.18.32l-.29-1.33c1.13-.18,2.26-.28,3.45-.36v1.36Z"/>
  <path class="st0" d="M28.16,17.4c-1.13.02-2.21.1-3.31.24l-.21-1.32c1.18-.14,2.32-.23,3.51-.24v1.32Z"/>
  <path class="st0" d="M26.78,14.01c-.96.06-1.88.15-2.84.28l-.29-1.47c1.07-.15,2.08-.25,3.13-.31v1.51Z"/>
  <path class="st0" d="M20.47,13.07c-1.02.27-2.01.52-3.03.86l-.51-1.29c1.08-.34,2.13-.64,3.23-.9l.31,1.32Z"/>
  <path class="st0" d="M39.31,13.91l-2.99-.85.33-1.34c1.11.26,2.12.55,3.16.92l-.5,1.27Z"/>
  <path class="st0" d="M20.87,14.86l-2.75.75-.54-1.33c.97-.34,1.91-.6,2.95-.85l.34,1.43Z"/>
  <path class="st0" d="M38.64,15.58l-2.74-.75.34-1.43c1.01.23,1.95.52,2.94.84l-.54,1.34Z"/>
  <polygon class="st0" points="15.76 10.22 13.05 11.35 12.43 10.06 15.18 8.87 15.76 10.22"/>
  <polygon class="st0" points="43.65 11.35 40.97 10.2 41.53 8.87 44.26 10.06 43.65 11.35"/>
  <path class="st0" d="M44.56,39.46H12.04s.01-15.89.01-15.89h4.37s5.1.02,5.1.02c2.42-.03,4.77-.44,6.8-1.79,2,1.32,4.29,1.73,6.64,1.78h3.35s6.26,0,6.26,0v14.9c0,.34.07.61-.02.99ZM20.63,26.84l.4-.35c.44-.39-.14-.82-.4-1.47-.26.62-.85,1.09-.41,1.47l.41.35ZM36,26.82l.36-.32c.5-.44-.16-.83-.37-1.49l-.44.74c-.13.21-.23.52-.03.68l.47.39ZM22.32,33.85c.3.37.57.74.94,1.03.61.5,1.45.4,1.9-.24.42-.6.23-1.23.65-2.01.35-.66.35-1.37-.17-1.85-.31-.29-.72-.4-1.15-.31l-1.37.29c.49-.25.98-.36,1.41-.65.7-.48.79-1.37.22-1.99-.22-.24-.49-.41-.79-.56-.73-.37-1.05-1.02-1.75-1.13-.58-.1-1.11.16-1.36.68-.34.71-.04,1.31-.29,1.65,0-.5.02-.93-.1-1.39-.19-.74-.91-1.15-1.64-.91-.6.19-.9.76-1.71,1.17-.68.34-1.13.99-.97,1.7.08.33.33.64.67.85s.72.26,1.06.54c-.5-.08-.95-.28-1.45-.25-.8.05-1.31.75-1.18,1.51.09.55.47.96.55,1.71s.48,1.38,1.19,1.5c.42.07.83-.04,1.1-.34l.88-.97-.56,1.01c-.19.34-.25.75-.12,1.14.21.6.85.94,1.49.85.59-.08,1.13-.09,1.71,0,.49.08.97-.14,1.25-.47.67-.8.06-1.7-.49-2.51,0,0-.03-.02-.04-.05l-.03-.06-.05-.05s.05-.07.07-.02l.04.05.03.06s.02.03.04.04ZM37.99,34.22l.58.62c.55.49,1.33.5,1.83-.04.23-.24.39-.57.43-.91.06-.55.25-1.02.47-1.52s.14-1.1-.2-1.49c-.37-.41-.88-.5-1.43-.37l-1.19.27c.5-.23,1.03-.38,1.49-.71.65-.47.72-1.33.19-1.92-.44-.5-1.04-.61-1.61-1.17s-1.19-.77-1.85-.4-.67,1.35-.66,2.18c-.11-.11-.12-.25-.11-.41.03-.8-.16-1.63-.88-1.88-.41-.14-.8-.08-1.16.12l-.88.7-.97.61c-.47.39-.71.97-.5,1.57.11.32.37.59.67.73l1.29.57-1.59-.32c-.41-.01-.79.14-1.03.42s-.35.66-.31,1.05c.07.53.48.97.58,1.79.04.35.16.69.37.97.4.51,1.07.67,1.65.36.31-.17.52-.44.78-.69.2-.2.28-.47.53-.63l-.77,1.34c-.16.41-.15.87.11,1.25.21.3.59.52,1.03.56l1.04-.08,1.18.1c.47.04.88-.22,1.12-.56.26-.37.36-.85.15-1.25l-.42-.8-.03-.04c-.06-.09-.11-.16-.14-.25-.01,0-.02,0-.03-.01l-.08-.16-.09-.05c.05-.02.05-.06.09-.02l.04.05.08.11.03.04.17.22.02.02ZM15.75,30.36c.12-.1.24-.16.39-.22l-.21-.51c-.22-.54-.76-.15-1.48-.06l.62.69c.18.2.44.28.67.1ZM26.15,30.22l.64-.7-.96-.19c-.24-.05-.45.05-.54.27l-.2.52c.16.07.29.15.42.26.23.14.46.05.64-.16ZM31.16,30.35c.13-.11.28-.16.4-.22-.1-.16-.15-.3-.19-.45-.18-.61-.83-.16-1.57-.14.57.47.83,1.25,1.35.82ZM42.19,29.52l-.99-.19c-.24-.05-.45.07-.54.28l-.21.5.39.23c.61.37.7-.35,1.35-.83ZM17.69,36.45c.23-.11.36-.31.31-.55l-.12-.51-.66.06c-.18.02-.28.25-.3.43l-.09.98.85-.42ZM24.42,36.86l-.07-.97c0-.25-.18-.44-.44-.46l-.51-.04-.12.49c-.07.23.04.45.25.55l.88.43ZM33.1,36.43c.23-.11.32-.3.26-.53l-.1-.52-.56.05c-.6.05-.34.73-.51,1.45l.91-.45ZM39.79,36.86l-.07-.97c0-.29-.2-.49-.5-.47-.17.01-.33,0-.48-.04,0,.19-.05.33-.1.49-.07.26.06.47.3.59l.85.41Z"/>
  <path class="st0" d="M32.12,54.15l-.88-.43c-.2-.1-.35-.25-.3-.49l.14-.59.52.06c.65.07.34.66.51,1.45Z"/>
  <path class="st0" d="M25.43,53.7l-.94.45.11-.98c.03-.26.2-.46.46-.48l.52-.04.1.46c.05.23,0,.47-.24.59Z"/>
  <path class="st0" d="M34.52,46.82c-.64.48-.78,1.23-1.4.79-.11-.08-.21-.13-.36-.16.08-.15.13-.26.17-.41.04-.3.32-.47.62-.41l.97.19Z"/>
  <path class="st0" d="M28.3,44.14l-.51-.4c-.14-.22-.06-.46.07-.68l.43-.72.45.79c.11.19.16.41.02.59l-.46.41Z"/>
  <path class="st0" d="M23.46,47.65c-.27.18-.52.09-.71-.12l-.62-.69.91-.19c.25-.05.46.01.59.23l.22.55-.39.22Z"/>
  <path class="st0" d="M37.9,34.29l.42.8c.21.4.11.87-.15,1.25-.24.34-.64.6-1.12.56l-1.18-.1-1.04.08c-.44-.04-.82-.25-1.03-.56-.26-.38-.27-.84-.11-1.25l.77-1.34c-.25.16-.33.43-.53.63-.25.25-.46.53-.78.69-.58.31-1.25.15-1.65-.36-.21-.28-.33-.62-.37-.97-.1-.82-.51-1.26-.58-1.79-.05-.39.06-.77.31-1.05s.62-.43,1.03-.42l1.59.32-1.29-.57c-.31-.13-.56-.41-.67-.73-.2-.59.03-1.18.5-1.57l.97-.61.88-.7c.37-.2.75-.26,1.16-.12.73.25.91,1.08.88,1.88,0,.16,0,.29.11.41-.01-.82-.02-1.79.66-2.18s1.28-.15,1.85.4,1.17.67,1.61,1.17c.53.59.46,1.45-.19,1.92-.46.33-.99.47-1.49.71l1.19-.27c.55-.12,1.06-.04,1.43.37.34.39.43.97.2,1.49s-.41.97-.47,1.52c-.04.34-.2.67-.43.91-.51.55-1.28.53-1.83.04l-.58-.62-.08.07ZM35,30.7l-.25-.79.58.46c.09.07.27.04.34-.03.06-.06.14-.18.14-.31.02-.83-.03-1.64-.13-2.46-.05-.41-.32-.75-.63-.88-.39-.15-.79-.14-1.1.12l-.93.76c-.28.23-1.54.58-1.33,1.67.06.3.27.65.61.79l2.18.88c.19.08.51,0,.51-.23ZM39.73,30c.34-.18.54-.53.57-.83.04-.39-.13-.72-.41-.98l-1.04-.66-.77-.65c-.33-.28-.77-.35-1.16-.18-.36.15-.63.49-.65.93l-.12,2.36c-.01.2.16.5.39.42.28-.09.44-.38.73-.55l-.31.76c-.05.12.06.25.13.29.37.19,2-.56,2.64-.91ZM34.82,32.22l-.78-.03.6-.39c.17-.17,0-.51-.23-.57l-2.25-.59c-.41-.11-.84.05-1.1.34s-.37.75-.21,1.14l.41.95.25,1.1c.09.4.44.68.76.77.39.11.8,0,1.09-.28.56-.56,1.03-1.18,1.51-1.82.13-.17.17-.55-.06-.64ZM37.1,32.78c.47.67.96,1.28,1.51,1.85.29.3.71.44,1.12.34.34-.08.64-.37.79-.75l.21-1.03.4-1.01c.16-.41.09-.87-.2-1.19-.26-.28-.68-.45-1.09-.34l-2.21.57c-.21.05-.44.36-.28.53.19.21.49.28.71.44h-.87c-.19.01-.21.4-.08.58ZM35.71,30.87c-.48.17-.64.68-.47,1.09s.62.59,1.03.43.64-.63.49-1.05c-.14-.4-.61-.64-1.05-.48ZM38.07,34.94l-1.22-1.94c-.07-.12-.22-.18-.32-.19-.13-.01-.28.04-.32.18l-.21.78-.27-.86c-.06-.17-.44-.09-.55.08l-1.24,1.98c-.23.37-.21.81.01,1.16.2.32.6.56,1.02.52l1.02-.1,1.02.1c.43.04.84-.19,1.04-.51.24-.37.26-.83.03-1.2ZM37.64,33.76s-.04,0-.09.02l.09-.02ZM37.68,33.81h-.05s.08.17.08.17l.05-.06-.08-.11ZM37.79,33.97l-.05.02c.02.08.07.16.14.25l.09-.05-.17-.22Z"/>
  <path class="st0" d="M22.26,33.88c.55.82,1.16,1.71.49,2.51-.28.33-.76.55-1.25.47-.59-.09-1.13-.09-1.71,0-.64.09-1.28-.25-1.49-.85-.13-.39-.07-.8.12-1.14l.56-1.01-.88.97c-.28.3-.69.41-1.1.34-.72-.12-1.11-.75-1.19-1.5s-.46-1.16-.55-1.71c-.13-.77.39-1.47,1.18-1.51.5-.03.95.17,1.45.25-.34-.28-.73-.33-1.06-.54s-.6-.52-.67-.85c-.16-.71.29-1.36.97-1.7.81-.41,1.12-.97,1.71-1.17.74-.24,1.45.16,1.64.91.12.46.09.89.1,1.39.25-.34-.05-.94.29-1.65.25-.53.77-.78,1.36-.68.7.12,1.02.76,1.75,1.13.29.15.57.33.79.56.57.62.47,1.51-.22,1.99-.43.29-.93.4-1.41.65l1.37-.29c.43-.09.84.02,1.15.31.52.48.52,1.2.17,1.85-.42.78-.23,1.41-.65,2.01-.45.64-1.29.74-1.9.24-.36-.3-.64-.67-.94-1.03l-.06.03ZM19.47,29.95l.54.44c.1.08.28,0,.33-.08.04-.06.13-.16.13-.27.02-.86,0-1.72-.16-2.56-.1-.59-.63-.93-1.2-.86-.7.08-.97.77-1.82,1.18-.31.15-.59.35-.78.64-.33.5-.23,1.18.32,1.51.73.44,1.56.73,2.38,1,.18.06.5-.05.44-.22l-.23-.76s-.03-.01-.05-.05c0-.05.05-.07.07-.02,0,.01.01.03.03.05ZM22.12,30.95l2.21-.92c.4-.17.63-.63.59-1.05-.04-.46-.36-.84-.76-1.05-.51-.27-.94-.57-1.35-.97-.36-.35-.92-.44-1.35-.22-.36.19-.55.56-.58.97-.07.78-.11,1.54-.07,2.33,0,.19.18.45.38.38.28-.1.45-.37.69-.55l-.26.75c-.05.13.05.27.15.3.07.02.22.08.35.03ZM19.45,32.94c.16-.19.26-.62.02-.71-.28-.1-.63.03-.89,0l.71-.46c.16-.21-.09-.48-.31-.55-.73-.25-1.45-.44-2.2-.58-.46-.08-.9.11-1.13.43-.59.86.26,1.42.41,2.78.05.44.32.85.72,1.04.51.24,1.05.03,1.39-.39l1.28-1.58ZM22.59,33.9c.25.33.5.62.81.86.42.33.99.33,1.4-.03.25-.22.41-.56.44-.9.05-.54.21-1,.46-1.48.22-.42.2-.92-.08-1.3-.25-.33-.7-.49-1.16-.4-.77.15-1.5.35-2.23.6-.2.07-.43.39-.26.51l.65.43-.8.03c-.21.09-.16.47-.04.63l.8,1.05ZM20.33,30.87c-.46.17-.63.67-.45,1.08s.64.6,1.06.43c.39-.15.61-.63.47-1.01-.15-.43-.62-.67-1.08-.51ZM21.99,33.76c-.18-.31-.34-.58-.58-.81-.13-.13-.45-.22-.51-.02l-.27.84c-.11-.29-.05-.64-.25-.87-.16-.19-.52-.02-.64.18l-1.18,1.92c-.23.38-.17.87.09,1.2s.69.51,1.14.44c.58-.1,1.12-.11,1.69,0,.47.09.9-.1,1.16-.42.27-.35.35-.8.11-1.2l-.75-1.25ZM22.21,33.7c-.02-.05-.08-.03-.07.02l.07-.02ZM22.25,33.75l-.06.02.03.06.06-.02-.03-.06ZM19,33.79l-.03.03.03.03.03-.03-.03-.03Z"/>
  <path class="st0" d="M30.39,52.06c.25.43.31.87.06,1.27-.22.36-.67.62-1.15.55-.62-.09-1.19-.12-1.81,0-.76.14-1.48-.44-1.43-1.2.02-.32.19-.56.33-.82l.94-1.65-1.5,1.71c-.3.34-.76.48-1.19.36-.39-.11-.74-.44-.84-.87l-.21-.97-.42-1c-.16-.39-.08-.83.18-1.14.24-.3.66-.49,1.07-.4l2.4.52-2.13-.94c-.49-.22-.79-.72-.68-1.26.08-.42.38-.71.73-.93l.81-.49.77-.65c.31-.27.73-.27,1.12-.09.32.15.59.48.63.89l.23,2.36.2-2.33c.04-.42.3-.76.62-.91.41-.19.85-.16,1.19.12l.9.74.96.58c.32.27.5.65.45,1.05s-.29.74-.67.91l-2.17.98,2.29-.52c.46-.1.89.01,1.2.36.28.32.37.77.19,1.2l-.41.99-.24,1.07c-.09.41-.46.66-.83.76-.42.11-.85-.05-1.13-.38l-.9-1.03c-.22-.25-.39-.51-.67-.72l1.11,1.9ZM27.26,49.37c.2.39.49.61.88.66l.17.9.22-.89c.42-.05.68-.32.88-.67.3.14.59.15.92.11l-.48-.27-.35-.12-.02-.57-.36-.47c.17-.23.28-.48.4-.78l-.35.29c-.11.09-.18.19-.26.32-.4-.22-.81-.2-1.19-.02-.18-.22-.36-.4-.59-.55l.32.72c-.06.25-.28.42-.52.41.31.22.21.64.18.66l-.15.05-.68.38c.33,0,.63-.05.97-.15Z"/>
  <path class="st0" d="M35.71,30.87c.45-.16.91.08,1.05.48.15.42-.07.9-.49,1.05s-.86-.04-1.03-.43-.01-.92.47-1.09Z"/>
  <path class="st0" d="M20.33,30.87c.47-.17.93.08,1.08.51.14.39-.08.86-.47,1.01-.43.16-.9-.03-1.06-.43s0-.92.45-1.08Z"/>
  <rect class="st0" x="18.98" y="33.8" width=".04" height=".04" transform="translate(-18.35 23.36) rotate(-45.02)"/>
  <rect class="st0" x="33.96" y="32.21" width=".04" height=".04" transform="translate(-12.84 33.49) rotate(-45.02)"/>
</svg>