<?xml version="1.0" encoding="UTF-8"?>
<svg id="Layer_1" xmlns="http://www.w3.org/2000/svg" version="1.1" viewBox="0 0 70 70">
  <!-- Generator: Adobe Illustrator 30.3.0, SVG Export Plug-In . SVG Version: 2.1.3 Build 182)  -->
  <defs>
    <style>
      .st0 {
        fill: #ec2024;
      }

      .st0, .st1, .st2 {
        fill-rule: evenodd;
      }

      .st1 {
        fill: #fff;
      }
    </style>
  </defs>
  <path class="st1" d="M34.99,68.95c-.25-.52-.55-1.01-.89-1.47-1.21-1.66-2.63-3.07-4.46-4.07-1.08-.58-2.09-1.29-3.16-1.87-1.4-.76-2.72-1.64-3.97-2.62-.86-.67-1.8-1.25-2.59-2.03.31.52.61,1.04.94,1.55.54.82.84,1.76,1.39,2.57.11.2.26.37.44.52.27.19.26.37.08.61-.27.36-.53.73-.77,1.11-.12.17-.22.09-.33.02-.32-.19-.62-.43-.87-.71-.18-.22-.3-.19-.47,0-1.08,1.31-2.71,1.8-4.28,1.14-.9-.36-1.55-1.08-2.08-1.89-.92-1.45-1.42-3.07-2.07-4.65-.28-.74-.81-1.36-1.5-1.76-.33-.18-.32-.39-.01-.61.34-.25.74-.19,1.09-.12.49.07.95.26,1.34.56,1.19,1.01,2.54,1.82,3.99,2.41.5.23.92.6,1.23,1.07.18.24.25.54.19.84-.06.4-.19.48-.54.29s-.67-.25-.98.05c-.33.31-.43.8-.24,1.21.34.74.98,1.09,1.72.89.69-.22,1.15-.89,1.1-1.62-.07-1.18-.68-2.06-1.49-2.83-.71-.68-1.55-1.23-2.22-1.96-.31-.34-.58-.7-.84-1.07-.14-.2-.29-.36-.45,0-.14.32-.46.5-.7.75-.05.06-.12.09-.19.09s-.15-.03-.19-.09c-.34-.37-.79-.57-1.2-.85-.12-.08-.28-.19-.07-.33,1.11-.71.91-1.68.58-2.7s-.82-1.95-1-3c-.02-.08-.04-.16-.05-.24-.06-1.08-.82-1.61-1.67-2-.7-.32-1.44-.1-2.13.19-.18.04-.34.12-.48.23-.25.29-.34.15-.47-.09-.14-.28-.3-.53-.45-.81-.06-.12-.15-.26.05-.33,1.01-.39,1.29-1.3,1.58-2.19.27-.83.13-.96-.71-.73-.98.27-2.01.24-2.97-.09-.93-.31-1.54-1.02-2.04-1.8-.64-1-1.03-2.09-.97-3.32,0-.58-.13-1.15-.35-1.68-.09-.25-.25-.48-.47-.64-.3-.23-.26-.47-.04-.71.34-.36.65-.73.95-1.12.19-.26.5-.19.65.09.46.83,1.05,1.46,2.13,1.43.77-.02,1.31.82.94,1.47-.52.91.04,1.82,1.08,1.89-.47-.76-.56-1.62-.8-2.44-.13-.42-.44-.77-.85-.95-.63-.3-.63-.31-.42-.97.02-.06.04-.13.06-.19q.25-.81,1.07-.8c.82,0,1.28-.34,1.48-1.16.05-.19.16-.25.35-.22.48.1.95.26,1.4.47.23.1.15.33.12.5-.15,1.02.26,1.7,1.26,1.97.26.07.33.18.31.41,0,.37-.07.74-.19,1.1-.19.47-.44.59-.92.44-.21-.07-.39-.1-.53.1-.16.19-.19.46-.08.68.08.19.26.32.47.31.67,0,1.27-.42,1.49-1.06.72-1.86.35-3.62-.45-5.34-.69-1.47-2.6-2.3-4.01-1.75-.39.15-.72.41-.97.74-.12.16-.23.21-.39.05-.27-.25-.59-.44-.94-.57-.33-.14-.4-.32-.35-.65.1-.5.12-1.01.05-1.52-.14-.77-.61-1.36-1.2-1.84-.16-.13-.18-.21-.09-.39.25-.5.51-1,.8-1.48.13-.22.23-.28.47-.13.35.24.75.41,1.16.51.54.12,1.09-.07,1.44-.5.19-.21.32-.17.5,0,.3.28.58.59.83.93.17.22.21.39-.08.54-.02.01-.04.03-.06.05-.26.19-.41.42-.31.75.08.28.29.32.53.31.33,0,.62-.23.68-.56.11-.43.1-.88-.03-1.3-.19-.71-.58-1.32-1-1.94-.54-.79-1.18-1.5-1.7-2.3-.05-.08-.08-.24-.22-.17-.11.05-.11.18-.1.29.04.41.08.84.45,1.11.25.18.19.33,0,.51-.28.26-.56.53-.83.81-.14.15-.24.16-.4.02-.77-.67-1.61-.69-2.45-.04-.16.12-.24.1-.37-.03-.44-.45-.77-.98-1.17-1.47-.22-.27.03-.47.18-.63.41-.43.6-1.03.52-1.62-.03-.28-.11-.55-.24-.8-.11-.2-.07-.3.13-.41.35-.19.69-.41,1.02-.63.22-.15.34-.08.43.14.05.17.11.33.19.48.12.17.27.35.53.24.26-.11.25-.32.22-.54-.06-.37-.18-.73-.25-1.09-.35-1.78.51-4.41,1.92-5.38,1.41-.97,2.96-1.13,4.63-.69,2.16.56,3.91,1.81,5.6,3.17,1.51,1.22,2.96,2.53,4.66,3.51.34.21.77.15,1.04-.15.07-.08.04-.14.01-.21-.06-.14-.1-.28-.15-.41-.09-.22-.13-.51-.3-.64s-.42.08-.63.16c-.16.07-.21-.04-.26-.16-.18-.52-.39-1.03-.64-1.51-.13-.24.06-.3.19-.34.34-.1.39-.24.26-.58-.35-.91-.82-1.77-1.08-2.71-.17-.61-.26-1.19-.03-1.8.26-.72-.06-1.36-.33-2-.07-.17-.19-.12-.34-.07-.28.09-.55.33-.83.25-.28-.08-.24-.47-.37-.71-.44-.82-.43-.88.39-1.2.97-.39,1.95-.72,2.93-1.08.14-.05.22-.03.29.11.22.4.41.81.58,1.23.02.03.03.07.03.11,0,.1-.07.18-.16.21-.04.02-.07.03-.11.05-.8.31-.82.31-.48,1.09.22.51.41,1.05,1.01,1.29.18.09.39.1.58.04,1.26-.44,2.55-.77,3.87-.97.08-.01.18-.03.22-.08.36-.47.79-.92.63-1.61-.07-.3-.12-.6-.14-.9-.01-.22-.08-.33-.31-.29-.19,0-.37.03-.56.07-.37.12-.47-.09-.52-.39-.02-.12-.04-.24-.06-.35-.21-1.11-.34-.88.75-1.08,1.02-.18,2.06-.33,3.08-.51.26-.05.39-.02.41.29.05.37.12.74.21,1.1.04.19,0,.3-.22.33-.22.03-.45.1-.67.11-.29.01-.32.14-.26.39.09.35.15.71.19,1.06.05.44.36.66.65.92.29.26.59.28,1.01.21,1.04-.21,2.29-.3,3.34-.28.48.07.93-.28,1-.76.11-.57.13-1.15.03-1.72-.03-.22-.18-.19-.33-.19q-.77,0-.73-.76c.01-.27,0-.53,0-.8,0-.17.05-.24.23-.24h3.92c.18,0,.23.07.23.24,0,.27-.01.53,0,.8q.04.76-.73.76c-.15,0-.3-.03-.33.19-.09.57-.08,1.15.03,1.72.07.48.52.82,1,.76,1.06-.02,2.31.07,3.34.28.41.07.71.05,1.01-.21s.6-.48.65-.92c.04-.36.11-.71.19-1.06.06-.24.03-.38-.26-.39-.22,0-.45-.09-.67-.11s-.26-.13-.22-.33c.09-.36.16-.73.21-1.1.02-.31.15-.34.41-.29,1.02.18,2.06.33,3.08.51,1.08.19.96-.03.75,1.08-.02.12-.04.24-.06.35-.05.29-.15.51-.52.39-.18-.04-.37-.06-.56-.07-.23-.04-.29.07-.31.29-.02.3-.06.61-.14.9-.16.69.27,1.13.63,1.61.04.05.14.07.22.08,1.32.2,2.62.52,3.87.97.19.07.4.05.58-.04.59-.24.78-.78,1.01-1.29.34-.78.32-.78-.48-1.09-.04-.02-.07-.03-.11-.05-.1-.02-.16-.11-.16-.21,0-.04.01-.08.03-.11.17-.42.36-.83.58-1.23.07-.14.15-.16.29-.11.98.36,1.96.69,2.93,1.08.82.32.83.38.39,1.2-.13.24-.09.63-.37.71s-.55-.16-.83-.25c-.15-.04-.27-.1-.34.07-.28.65-.6,1.29-.33,2,.22.61.14,1.19-.03,1.8-.27.94-.73,1.8-1.08,2.71-.13.34-.08.48.26.58.14.04.32.1.19.34-.25.49-.47.99-.64,1.51-.04.12-.09.23-.26.16-.21-.08-.46-.28-.63-.16s-.21.42-.3.64c-.06.14-.1.28-.15.41-.03.08-.06.14.01.21.27.29.7.35,1.04.15,1.7-.97,3.15-2.28,4.66-3.51,1.69-1.37,3.44-2.61,5.6-3.17,1.67-.44,3.22-.28,4.63.69,1.41.97,2.27,3.6,1.92,5.38-.07.37-.19.73-.25,1.09-.03.21-.04.43.22.54.26.11.41-.07.53-.24.08-.15.15-.31.19-.48.09-.22.21-.29.43-.14.33.22.67.44,1.02.63.2.11.24.21.13.41-.13.25-.21.52-.24.8-.09.59.1,1.19.52,1.62.15.16.4.36.18.63-.4.48-.73,1.02-1.17,1.47-.13.13-.21.15-.37.03-.83-.64-1.67-.63-2.45.04-.16.14-.26.13-.4-.02-.27-.28-.55-.56-.83-.81-.19-.18-.25-.33,0-.51.37-.28.41-.7.45-1.11,0-.1,0-.24-.1-.29-.14-.07-.17.09-.22.17-.52.8-1.16,1.51-1.7,2.3-.42.62-.81,1.22-1,1.94-.14.42-.15.87-.03,1.3.06.32.35.56.68.56.24,0,.46-.03.53-.31.1-.34-.05-.56-.31-.75-.02-.02-.04-.04-.06-.05-.29-.15-.25-.32-.08-.54.25-.33.52-.64.83-.93.18-.17.3-.21.5,0,.35.42.91.61,1.44.5.42-.1.81-.27,1.16-.51.24-.16.34-.09.47.13.29.48.55.98.8,1.48.09.17.06.26-.09.39-.59.48-1.06,1.06-1.2,1.84-.07.51-.05,1.02.05,1.52.05.33-.02.51-.35.65-.35.13-.66.32-.94.57-.16.16-.27.11-.39-.05-.25-.33-.58-.59-.97-.74-1.4-.55-3.32.28-4.01,1.75-.81,1.72-1.18,3.48-.45,5.34.22.63.82,1.06,1.49,1.06.21,0,.39-.12.47-.31.11-.22.08-.49-.08-.68-.15-.2-.32-.17-.53-.1-.48.15-.73.02-.92-.44-.12-.35-.19-.72-.19-1.1-.02-.23.05-.34.31-.41,1-.27,1.4-.95,1.26-1.97-.02-.16-.11-.39.12-.5.44-.22.91-.37,1.4-.47.19-.03.3.02.35.22.21.82.66,1.17,1.48,1.16s.82,0,1.07.8c.02.07.04.13.06.19.21.65.21.67-.42.97-.41.18-.72.52-.85.95-.24.82-.34,1.68-.8,2.44,1.04-.07,1.6-.98,1.08-1.89-.37-.65.16-1.49.94-1.47,1.08.03,1.67-.6,2.13-1.43.15-.28.46-.35.65-.09.3.39.62.76.95,1.12.22.24.26.49-.04.71-.22.16-.38.38-.47.64-.23.53-.34,1.1-.35,1.68.07,1.23-.33,2.32-.97,3.32-.5.78-1.12,1.49-2.04,1.8-.96.32-1.99.35-2.97.09-.84-.22-.97-.1-.71.73.29.89.57,1.81,1.58,2.19.19.07.11.22.05.33-.15.27-.31.53-.45.81-.12.24-.22.38-.47.09-.14-.11-.31-.19-.48-.23-.69-.29-1.43-.51-2.13-.19-.85.38-1.6.92-1.67,2-.01.08-.03.16-.05.24-.18,1.05-.67,1.99-1,3s-.53,1.99.58,2.7c.21.14.05.25-.07.33-.4.28-.86.47-1.2.85-.05.06-.12.09-.19.09s-.15-.03-.19-.09c-.24-.24-.55-.42-.7-.75-.16-.36-.31-.2-.45,0-.25.38-.53.74-.84,1.07-.67.73-1.5,1.28-2.22,1.96-.81.77-1.43,1.65-1.49,2.83-.05.73.4,1.4,1.1,1.62.74.21,1.38-.14,1.72-.89.19-.41.09-.9-.24-1.21-.31-.3-.64-.24-.98-.05s-.48.11-.54-.29c-.05-.29.02-.6.19-.84.3-.46.73-.83,1.23-1.07,1.45-.59,2.79-1.4,3.99-2.41.39-.3.86-.49,1.34-.56.35-.07.75-.12,1.09.12.31.22.31.43-.01.61-.68.4-1.21,1.02-1.5,1.76-.65,1.57-1.15,3.2-2.07,4.65-.53.82-1.18,1.53-2.08,1.89-1.57.66-3.2.17-4.28-1.14-.17-.19-.29-.22-.47,0-.25.28-.55.51-.87.71-.11.08-.22.16-.33-.02-.24-.38-.5-.75-.77-1.11-.18-.24-.2-.42.08-.61.18-.14.32-.32.44-.52.55-.81.86-1.75,1.39-2.57.33-.51.63-1.03.94-1.55-.79.78-1.73,1.36-2.59,2.03-1.25.99-2.58,1.86-3.97,2.62-1.08.58-2.09,1.29-3.16,1.87-1.82,1-3.24,2.41-4.46,4.07-.34.46-.64.95-.89,1.47h0s0,0,0,0h0ZM6.11,37.94v1.23c0,.46-.17.6-.62.53-.05,0-.1-.02-.16-.02-.17,0-.34.01-.41.19s.07.3.2.39c.36.25.83.27,1.21.05.49-.26.95-.57,1.48-.89-.7-.34-1.31-.72-1.71-1.48ZM63.89,37.94v1.23c0,.46.17.6.62.53.05,0,.1-.02.16-.02.17,0,.34.01.41.19s-.07.3-.2.39c-.36.25-.83.27-1.21.05-.49-.26-.95-.57-1.48-.89.7-.34,1.31-.72,1.71-1.48Z"/>
  <path class="st0" d="M35,39.41H15.73c-.29,0-.46.06-.54.39-.26,1.04-.43,2.1-.51,3.17-.05,1.04.03,2.09.22,3.11.32,1.79,1.01,3.5,2.04,5.01.86,1.25,1.84,2.42,2.92,3.49.29.29.53.64.86.89.87.65,1.73,1.33,2.59,1.99,1.16.86,2.35,1.65,3.59,2.39,1.36.83,2.84,1.42,4.16,2.31.85.58,1.63,1.25,2.35,1.98.59.56,1.08,1.22,1.46,1.94.04.08.08.14.13.17h0s.08-.1.12-.17c.38-.72.87-1.38,1.46-1.94.72-.73,1.51-1.4,2.35-1.98,1.32-.89,2.8-1.49,4.16-2.31,1.24-.73,2.43-1.53,3.59-2.39.87-.66,1.72-1.33,2.59-1.99.34-.25.57-.6.86-.89,1.08-1.07,2.06-2.24,2.92-3.49,1.03-1.5,1.72-3.21,2.04-5.01.19-1.03.26-2.07.22-3.11-.07-1.07-.24-2.13-.51-3.17-.08-.33-.25-.39-.54-.39h-19.27ZM34.97,55.51c-.62-.01-1.24-.14-1.85-.32-.24-.09-.47-.21-.67-.36-.28-.18-.53-.22-.81,0-.09.07-.19.16-.33.09-.12-.07-.18-.22-.12-.35.18-.55,0-.82-.54-1.09-.87-.43-1.18-1.33-1.47-2.19-.22-.68-.3-1.39-.25-2.1,0-.15.03-.29.08-.43.16-.34.23-.62-.18-.86-.25-.15-.15-.44.17-.46.54-.03.66-.34.75-.79.1-.53.37-1.01.77-1.37.7-.67,1.53-1.17,2.44-1.48.26-.07.54-.09.81-.06.09-.02.18-.02.27,0,.31.1.56-.03.7-.28.1-.17.18-.26.26-.27h0c.08,0,.16.1.26.27.14.26.39.38.7.28.09-.02.18-.02.27,0,.27-.03.54-.01.81.06.91.31,1.75.82,2.44,1.48.4.36.67.84.77,1.37.09.45.21.76.75.79.32.02.42.31.17.46-.41.25-.34.52-.18.86.05.14.08.28.08.43.05.71-.04,1.42-.25,2.1-.29.86-.6,1.76-1.47,2.19-.54.27-.72.54-.54,1.09.06.13,0,.28-.12.35-.14.06-.24-.02-.33-.09-.27-.22-.53-.18-.81,0-.21.15-.43.27-.67.36-.62.18-1.24.31-1.88.32h-.03ZM43.83,35.1c.62-.01,1.24-.14,1.85-.32.24-.09.47-.21.67-.36.28-.18.53-.22.81,0,.09.07.19.16.33.09.12-.07.18-.22.12-.35-.18-.55,0-.82.54-1.09.87-.43,1.18-1.33,1.47-2.19.22-.68.3-1.39.25-2.1,0-.15-.03-.29-.08-.43-.16-.34-.23-.62.18-.86.25-.15.15-.44-.17-.46-.54-.03-.66-.34-.75-.79-.1-.53-.37-1.01-.77-1.37-.7-.67-1.53-1.17-2.44-1.48-.26-.07-.54-.09-.81-.06-.09-.02-.18-.02-.27,0-.31.1-.56-.03-.7-.28-.1-.17-.18-.26-.26-.27h0c-.08,0-.16.1-.26.27-.14.26-.39.38-.7.28-.09-.02-.18-.02-.27,0-.27-.03-.54-.01-.81.06-.91.31-1.75.82-2.44,1.48-.4.36-.67.84-.77,1.37-.09.45-.21.76-.75.79-.32.02-.42.31-.17.46.41.25.34.52.18.86-.05.14-.08.28-.08.43-.05.71.04,1.42.25,2.1.29.86.6,1.76,1.47,2.19.54.27.72.54.54,1.09-.06.13,0,.28.12.35.14.06.24-.02.33-.09.27-.22.53-.18.81,0,.21.15.43.27.67.36.62.18,1.24.31,1.88.32h.03s0,0,0,0ZM26.17,35.1c-.62-.01-1.24-.14-1.85-.32-.24-.09-.47-.21-.67-.36-.28-.18-.53-.22-.81,0-.09.07-.19.16-.33.09-.12-.07-.18-.22-.12-.35.18-.55,0-.82-.54-1.09-.87-.43-1.18-1.33-1.47-2.19-.22-.68-.3-1.39-.25-2.1,0-.15.03-.29.08-.43.16-.34.23-.62-.18-.86-.25-.15-.15-.44.17-.46.54-.03.66-.34.75-.79.1-.53.37-1.01.77-1.37.7-.67,1.53-1.17,2.44-1.48.26-.07.54-.09.81-.06.09-.02.18-.02.27,0,.31.1.56-.03.7-.28.1-.17.18-.26.26-.27h0c.08,0,.16.1.26.27.14.26.39.38.7.28.09-.02.18-.02.27,0,.27-.03.54-.01.81.06.91.31,1.75.82,2.44,1.48.4.36.67.84.77,1.37.09.45.21.76.75.79.32.02.42.31.17.46-.41.25-.34.52-.18.86.05.14.08.28.08.43.05.71-.04,1.42-.25,2.1-.29.86-.6,1.76-1.47,2.19-.54.27-.72.54-.54,1.09.06.13,0,.28-.12.35-.14.06-.24-.02-.33-.09-.27-.22-.53-.18-.81,0-.21.15-.43.27-.67.36-.62.18-1.24.31-1.88.32h-.03s0,0,0,0ZM26.2,28.25c.47,0,.86.38.86.86s-.38.86-.86.86-.86-.38-.86-.86.38-.86.86-.86ZM43.8,28.25c.47,0,.86.38.86.86s-.38.86-.86.86-.86-.38-.86-.86.38-.86.86-.86Z"/>
  <path class="st2" d="M34.99,68.95c-.25-.52-.55-1.01-.89-1.47-1.21-1.66-2.63-3.07-4.46-4.07-1.08-.58-2.09-1.29-3.16-1.87-1.4-.76-2.72-1.64-3.97-2.62-.86-.67-1.8-1.25-2.59-2.03.31.52.61,1.04.94,1.55.54.82.84,1.76,1.39,2.57.11.2.26.37.44.52.27.19.26.37.08.61-.27.36-.53.73-.77,1.11-.12.17-.22.09-.33.02-.32-.19-.62-.43-.87-.71-.18-.22-.3-.19-.47,0-1.08,1.31-2.71,1.8-4.28,1.14-.9-.36-1.55-1.08-2.08-1.89-.92-1.45-1.42-3.07-2.07-4.65-.28-.74-.81-1.36-1.5-1.76-.33-.18-.32-.39-.01-.61.34-.25.74-.19,1.09-.12.49.07.95.26,1.34.56,1.19,1.01,2.54,1.82,3.99,2.41.5.23.92.6,1.23,1.07.18.24.25.54.19.84-.06.4-.19.48-.54.29s-.67-.25-.98.05c-.33.31-.43.8-.24,1.21.34.74.98,1.09,1.72.89.69-.22,1.15-.89,1.1-1.62-.07-1.18-.68-2.06-1.49-2.83-.71-.68-1.55-1.23-2.22-1.96-.31-.34-.58-.7-.84-1.07-.14-.2-.29-.36-.45,0-.14.32-.46.5-.7.75-.05.06-.12.09-.19.09s-.15-.03-.19-.09c-.34-.37-.79-.57-1.2-.85-.12-.08-.28-.19-.07-.33,1.11-.71.91-1.68.58-2.7s-.82-1.95-1-3c-.02-.08-.04-.16-.05-.24-.06-1.08-.82-1.61-1.67-2-.7-.32-1.44-.1-2.13.19-.18.04-.34.12-.48.23-.25.29-.34.15-.47-.09-.14-.28-.3-.53-.45-.81-.06-.12-.15-.26.05-.33,1.01-.39,1.29-1.3,1.58-2.19.27-.83.13-.96-.71-.73-.98.27-2.01.24-2.97-.09-.93-.31-1.54-1.02-2.04-1.8-.64-1-1.03-2.09-.97-3.32,0-.58-.13-1.15-.35-1.68-.09-.25-.25-.48-.47-.64-.3-.23-.26-.47-.04-.71.34-.36.65-.73.95-1.12.19-.26.5-.19.65.09.46.83,1.05,1.46,2.13,1.43.77-.02,1.31.82.94,1.47-.52.91.04,1.82,1.08,1.89-.47-.76-.56-1.62-.8-2.44-.13-.42-.44-.77-.85-.95-.63-.3-.63-.31-.42-.97.02-.06.04-.13.06-.19q.25-.81,1.07-.8c.82,0,1.28-.34,1.48-1.16.05-.19.16-.25.35-.22.48.1.95.26,1.4.47.23.1.15.33.12.5-.15,1.02.26,1.7,1.26,1.97.26.07.33.18.31.41,0,.37-.07.74-.19,1.1-.19.47-.44.59-.92.44-.21-.07-.39-.1-.53.1-.16.19-.19.46-.08.68.08.19.26.32.47.31.67,0,1.27-.42,1.49-1.06.72-1.86.35-3.62-.45-5.34-.69-1.47-2.6-2.3-4.01-1.75-.39.15-.72.41-.97.74-.12.16-.23.21-.39.05-.27-.25-.59-.44-.94-.57-.33-.14-.4-.32-.35-.65.1-.5.12-1.01.05-1.52-.14-.77-.61-1.36-1.2-1.84-.16-.13-.18-.21-.09-.39.25-.5.51-1,.8-1.48.13-.22.23-.28.47-.13.35.24.75.41,1.16.51.54.12,1.09-.07,1.44-.5.19-.21.32-.17.5,0,.3.28.58.59.83.93.17.22.21.39-.08.54-.02.01-.04.03-.06.05-.26.19-.41.42-.31.75.08.28.29.32.53.31.33,0,.62-.23.68-.56.11-.43.1-.88-.03-1.3-.19-.71-.58-1.32-1-1.94-.54-.79-1.18-1.5-1.7-2.3-.05-.08-.08-.24-.22-.17-.11.05-.11.18-.1.29.04.41.08.84.45,1.11.25.18.19.33,0,.51-.28.26-.56.53-.83.81-.14.15-.24.16-.4.02-.77-.67-1.61-.69-2.45-.04-.16.12-.24.1-.37-.03-.44-.45-.77-.98-1.17-1.47-.22-.27.03-.47.18-.63.41-.43.6-1.03.52-1.62-.03-.28-.11-.55-.24-.8-.11-.2-.07-.3.13-.41.35-.19.69-.41,1.02-.63.22-.15.34-.08.43.14.05.17.11.33.19.48.12.17.27.35.53.24.26-.11.25-.32.22-.54-.06-.37-.18-.73-.25-1.09-.35-1.78.51-4.41,1.92-5.38,1.41-.97,2.96-1.13,4.63-.69,2.16.56,3.91,1.81,5.6,3.17,1.51,1.22,2.96,2.53,4.66,3.51.34.21.77.15,1.04-.15.07-.08.04-.14.01-.21-.06-.14-.1-.28-.15-.41-.09-.22-.13-.51-.3-.64s-.42.08-.63.16c-.16.07-.21-.04-.26-.16-.18-.52-.39-1.03-.64-1.51-.13-.24.06-.3.19-.34.34-.1.39-.24.26-.58-.35-.91-.82-1.77-1.08-2.71-.17-.61-.26-1.19-.03-1.8.26-.72-.06-1.36-.33-2-.07-.17-.19-.12-.34-.07-.28.09-.55.33-.83.25-.28-.08-.24-.47-.37-.71-.44-.82-.43-.88.39-1.2.97-.39,1.95-.72,2.93-1.08.14-.05.22-.03.29.11.22.4.41.81.58,1.23.02.03.03.07.03.11,0,.1-.07.18-.16.21-.04.02-.07.03-.11.05-.8.31-.82.31-.48,1.09.22.51.41,1.05,1.01,1.29.18.09.39.1.58.04,1.26-.44,2.55-.77,3.87-.97.08-.01.18-.03.22-.08.36-.47.79-.92.63-1.61-.07-.3-.12-.6-.14-.9-.01-.22-.08-.33-.31-.29-.19,0-.37.03-.56.07-.37.12-.47-.09-.52-.39-.02-.12-.04-.24-.06-.35-.21-1.11-.34-.88.75-1.08,1.02-.18,2.06-.33,3.08-.51.26-.05.39-.02.41.29.05.37.12.74.21,1.1.04.19,0,.3-.22.33-.22.03-.45.1-.67.11-.29.01-.32.14-.26.39.09.35.15.71.19,1.06.05.44.36.66.65.92.29.26.59.28,1.01.21,1.04-.21,2.26-.3,3.31-.28.48.07.96-.28,1.03-.76.11-.57.13-1.15.03-1.72-.03-.22-.18-.19-.33-.19q-.77,0-.73-.76c.01-.27,0-.53,0-.8,0-.17.05-.24.23-.24h3.92c.18,0,.23.07.23.24,0,.27-.01.53,0,.8q.04.76-.73.76c-.15,0-.3-.03-.33.19-.09.57-.08,1.15.03,1.72.07.48.55.82,1.03.76,1.06-.02,2.28.07,3.31.28.41.07.71.05,1.01-.21s.6-.48.65-.92c.04-.36.11-.71.19-1.06.06-.24.03-.38-.26-.39-.22,0-.45-.09-.67-.11s-.26-.13-.22-.33c.09-.36.16-.73.21-1.1.02-.31.15-.34.41-.29,1.02.18,2.06.33,3.08.51,1.08.19.96-.03.75,1.08-.02.12-.04.24-.06.35-.05.29-.15.51-.52.39-.18-.04-.37-.06-.56-.07-.23-.04-.29.07-.31.29-.02.3-.06.61-.14.9-.16.69.27,1.13.63,1.61.04.05.14.07.22.08,1.32.2,2.62.52,3.87.97.19.07.4.05.58-.04.59-.24.78-.78,1.01-1.29.34-.78.32-.78-.48-1.09-.04-.02-.07-.03-.11-.05-.1-.02-.16-.11-.16-.21,0-.04.01-.08.03-.11.17-.42.36-.83.58-1.23.07-.14.15-.16.29-.11.98.36,1.96.69,2.93,1.08.82.32.83.38.39,1.2-.13.24-.09.63-.37.71s-.55-.16-.83-.25c-.15-.04-.27-.1-.34.07-.28.65-.6,1.29-.33,2,.22.61.14,1.19-.03,1.8-.27.94-.73,1.8-1.08,2.71-.13.34-.08.48.26.58.14.04.32.1.19.34-.25.49-.47.99-.64,1.51-.04.12-.09.23-.26.16-.21-.08-.46-.28-.63-.16s-.21.42-.3.64c-.06.14-.1.28-.15.41-.03.08-.06.14.01.21.27.29.7.35,1.04.15,1.7-.97,3.15-2.28,4.66-3.51,1.69-1.37,3.44-2.61,5.6-3.17,1.67-.44,3.22-.28,4.63.69,1.41.97,2.27,3.6,1.92,5.38-.07.37-.19.73-.25,1.09-.03.21-.04.43.22.54.26.11.41-.07.53-.24.08-.15.15-.31.19-.48.09-.22.21-.29.43-.14.33.22.67.44,1.02.63.2.11.24.21.13.41-.13.25-.21.52-.24.8-.09.59.1,1.19.52,1.62.15.16.4.36.18.63-.4.48-.73,1.02-1.17,1.47-.13.13-.21.15-.37.03-.83-.64-1.67-.63-2.45.04-.16.14-.26.13-.4-.02-.27-.28-.55-.56-.83-.81-.19-.18-.25-.33,0-.51.37-.28.41-.7.45-1.11,0-.1,0-.24-.1-.29-.14-.07-.17.09-.22.17-.52.8-1.16,1.51-1.7,2.3-.42.62-.81,1.22-1,1.94-.14.42-.15.87-.03,1.3.06.32.35.56.68.56.24,0,.46-.03.53-.31.1-.34-.05-.56-.31-.75-.02-.02-.04-.04-.06-.05-.29-.15-.25-.32-.08-.54.25-.33.52-.64.83-.93.18-.17.3-.21.5,0,.35.42.91.61,1.44.5.42-.1.81-.27,1.16-.51.24-.16.34-.09.47.13.29.48.55.98.8,1.48.09.17.06.26-.09.39-.59.48-1.06,1.06-1.2,1.84-.07.51-.05,1.02.05,1.52.05.33-.02.51-.35.65-.35.13-.66.32-.94.57-.16.16-.27.11-.39-.05-.25-.33-.58-.59-.97-.74-1.4-.55-3.32.28-4.01,1.75-.81,1.72-1.18,3.48-.45,5.34.22.63.82,1.06,1.49,1.06.21,0,.39-.12.47-.31.11-.22.08-.49-.08-.68-.15-.2-.32-.17-.53-.1-.48.15-.73.02-.92-.44-.12-.35-.19-.72-.19-1.1-.02-.23.05-.34.31-.41,1-.27,1.4-.95,1.26-1.97-.02-.16-.11-.39.12-.5.44-.22.91-.37,1.4-.47.19-.03.3.02.35.22.21.82.66,1.17,1.48,1.16s.82,0,1.07.8c.02.07.04.13.06.19.21.65.21.67-.42.97-.41.18-.72.52-.85.95-.24.82-.34,1.68-.8,2.44,1.04-.07,1.6-.98,1.08-1.89-.37-.65.16-1.49.94-1.47,1.08.03,1.67-.6,2.13-1.43.15-.28.46-.35.65-.09.3.39.62.76.95,1.12.22.24.26.49-.04.71-.22.16-.38.38-.47.64-.23.53-.34,1.1-.35,1.68.07,1.23-.33,2.32-.97,3.32-.5.78-1.12,1.49-2.04,1.8-.96.32-1.99.35-2.97.09-.84-.22-.97-.1-.71.73.29.89.57,1.81,1.58,2.19.19.07.11.22.05.33-.15.27-.31.53-.45.81-.12.24-.22.38-.47.09-.14-.11-.31-.19-.48-.23-.69-.29-1.43-.51-2.13-.19-.85.38-1.6.92-1.67,2-.01.08-.03.16-.05.24-.18,1.05-.67,1.99-1,3s-.53,1.99.58,2.7c.21.14.05.25-.07.33-.4.28-.86.47-1.2.85-.05.06-.12.09-.19.09s-.15-.03-.19-.09c-.24-.24-.55-.42-.7-.75-.16-.36-.31-.2-.45,0-.25.38-.53.74-.84,1.07-.67.73-1.5,1.28-2.22,1.96-.81.77-1.43,1.65-1.49,2.83-.05.73.4,1.4,1.1,1.62.74.21,1.38-.14,1.72-.89.19-.41.09-.9-.24-1.21-.31-.3-.64-.24-.98-.05s-.48.11-.54-.29c-.05-.29.02-.6.19-.84.3-.46.73-.83,1.23-1.07,1.45-.59,2.79-1.4,3.99-2.41.39-.3.86-.49,1.34-.56.35-.07.75-.12,1.09.12.31.22.31.43-.01.61-.68.4-1.21,1.02-1.5,1.76-.65,1.57-1.15,3.2-2.07,4.65-.53.82-1.18,1.53-2.08,1.89-1.57.66-3.2.17-4.28-1.14-.17-.19-.29-.22-.47,0-.25.28-.55.51-.87.71-.11.08-.22.16-.33-.02-.24-.38-.5-.75-.77-1.11-.18-.24-.2-.42.08-.61.18-.14.32-.32.44-.52.55-.81.86-1.75,1.39-2.57.33-.51.63-1.03.94-1.55-.79.78-1.73,1.36-2.59,2.03-1.25.99-2.58,1.86-3.97,2.62-1.08.58-2.09,1.29-3.16,1.87-1.82,1-3.24,2.41-4.46,4.07-.34.46-.64.95-.89,1.47h0s0,0,0,0h0ZM34.99,18.37c-.06,0-.11.02-.16.05-.78.44-1.85.8-2.69,1.08-1.37.5-2.81.78-4.26.83-2.07.04-4.08-.33-6.07-.89-1.95-.51-3.82-1.29-5.56-2.32-.17-.1-.26-.08-.36.07-.23.33-.46.65-.71.97-1.12,1.5-2.25,2.99-3.37,4.48-.16.21-.17.37.06.53.4.31.76.67,1.08,1.06,1.48,1.6,2.42,3.63,2.68,5.79.2,1.42.13,2.87-.22,4.26-.43,1.65-1.02,3.26-1.33,4.95-.25,1.31-.69,2.61-.61,3.98.06,1.09-.02,2.2.19,3.28.61,3,2.15,5.53,4.22,7.74,1.01,1.13,2.12,2.17,3.3,3.12,1.83,1.39,3.68,2.76,5.71,3.84.89.47,1.71,1.05,2.59,1.55,1.17.64,2.27,1.41,3.28,2.28.88.84,1.63,1.8,2.23,2.87v.02s.02-.02.02-.02c.59-1.06,1.34-2.03,2.23-2.87,1.01-.88,2.11-1.64,3.28-2.28.88-.5,1.7-1.08,2.59-1.55,2.03-1.08,3.88-2.45,5.71-3.84,1.19-.95,2.29-1.99,3.3-3.12,2.07-2.21,3.61-4.73,4.22-7.74.21-1.07.13-2.18.19-3.28.09-1.38-.36-2.67-.61-3.98-.32-1.68-.91-3.29-1.33-4.95-.35-1.39-.42-2.84-.22-4.26.26-2.17,1.19-4.19,2.68-5.79.32-.39.69-.74,1.08-1.06.23-.16.22-.32.06-.53-1.13-1.49-2.25-2.98-3.37-4.48-.24-.32-.48-.64-.71-.97-.1-.15-.19-.17-.36-.07-1.74,1.03-3.61,1.81-5.56,2.32-1.99.56-4,.93-6.07.89-1.46-.04-2.9-.32-4.26-.83-.85-.28-1.91-.65-2.69-1.08-.05-.04-.11-.05-.17-.05h-.01s0,0,0,0ZM34.99,66.75c-.1,0-.2-.11-.31-.32-.6-1.09-1.4-2.05-2.36-2.84-1.07-.9-2.24-1.67-3.49-2.29-1.26-.62-2.47-1.32-3.63-2.11-.89-.58-1.76-1.18-2.59-1.84-1.26-.99-2.56-1.94-3.63-3.16-1.37-1.56-2.66-3.16-3.51-5.07-.81-1.87-1.19-3.9-1.13-5.94.03-1.2.22-2.4.57-3.55.16-.54.19-.58.76-.58,3.59,0,7.17,0,10.76-.01h5.9s5.37-.01,5.37-.01h0s5.9.01,5.9.01c3.59,0,7.17.01,10.76.01.57,0,.6.04.76.58.35,1.15.54,2.35.57,3.55.06,2.04-.33,4.06-1.13,5.94-.84,1.91-2.13,3.51-3.51,5.07-1.08,1.22-2.37,2.17-3.63,3.16-.83.65-1.71,1.26-2.59,1.84-1.16.79-2.37,1.49-3.63,2.11-1.25.62-2.42,1.39-3.49,2.29-.96.79-1.76,1.75-2.36,2.84-.12.21-.21.32-.32.32h-.01s0,0,0,0ZM35,39.41H15.73c-.29,0-.46.06-.54.39-.26,1.04-.43,2.1-.51,3.17-.05,1.04.03,2.09.22,3.11.32,1.79,1.01,3.5,2.04,5.01.86,1.25,1.84,2.42,2.92,3.49.29.29.53.64.86.89.87.65,1.73,1.33,2.59,1.99,1.16.86,2.35,1.65,3.59,2.39,1.36.83,2.84,1.42,4.16,2.31.85.58,1.63,1.25,2.35,1.98.59.56,1.08,1.22,1.46,1.94.04.08.08.14.13.17h0s.08-.1.12-.17c.38-.72.87-1.38,1.46-1.94.72-.73,1.51-1.4,2.35-1.98,1.32-.89,2.8-1.49,4.16-2.31,1.24-.73,2.43-1.53,3.59-2.39.87-.66,1.72-1.33,2.59-1.99.34-.25.57-.6.86-.89,1.08-1.07,2.06-2.24,2.92-3.49,1.03-1.5,1.72-3.21,2.04-5.01.19-1.03.26-2.07.22-3.11-.07-1.07-.24-2.13-.51-3.17-.08-.33-.25-.39-.54-.39h-19.27ZM17.86,59.49c.07-.3-.02-.61-.24-.83-.36-.39-.8-.7-1.3-.92-.84-.41-1.77-.69-2.46-1.36-.34-.34-.73-.63-1.15-.86-.53-.27-1.01-.68-1.67-.58-.11.02-.27-.03-.31.11s.11.19.2.26c.59.43,1.04,1.02,1.3,1.69.43.97.74,2,1.21,2.97.47.96.92,1.86,1.69,2.6,1.72,1.64,4.09,1.11,5.27-.76.11-.18.17-.17.28-.04.11.13.27.33.42.48.63.63.74.61,1.18-.18.11-.13.11-.32,0-.45-.38-.5-.71-1.04-.98-1.6-.56-1.29-1.38-2.45-2.4-3.41-1.02-1-1.99-2.06-2.9-3.16-.53-.63-1-1.32-1.49-1.98-.07-.09-.12-.23-.28-.11-.37.26-.73.53-1.07.83-.08.07-.12.18-.1.28.05.6-.19,1.09-.58,1.53-.07.08-.15.14-.03.22.29.21.58.41.88.61.11.07.19-.02.27-.1.27-.24.49-.53.66-.85.13-.29.21-.32.42-.05.65.85,1.3,1.7,2.14,2.37,1.05.83,1.97,1.74,2.58,2.96.43.82.3,1.83-.31,2.52-.95,1.03-2.24.85-2.86-.39-.24-.49-.22-1.07.04-1.55.26-.51.93-.6,1.58-.27h0ZM52.14,59.49c-.07-.3.02-.61.24-.83.36-.39.8-.7,1.3-.92.84-.41,1.77-.69,2.46-1.36.34-.34.73-.63,1.15-.86.53-.27,1.01-.68,1.67-.58.11.02.27-.03.31.11s-.11.19-.2.26c-.59.43-1.04,1.02-1.3,1.69-.43.97-.74,2-1.21,2.97s-.92,1.86-1.69,2.6c-1.72,1.64-4.09,1.11-5.27-.76-.11-.18-.17-.17-.28-.04-.11.13-.27.33-.42.48-.63.63-.74.61-1.18-.18-.11-.13-.11-.32,0-.45.38-.5.71-1.04.98-1.6.56-1.29,1.38-2.45,2.4-3.41,1.02-1,1.99-2.06,2.9-3.16.53-.63,1-1.32,1.49-1.98.07-.09.12-.23.28-.11.37.26.73.53,1.07.83.08.07.12.18.1.28-.05.6.19,1.09.58,1.53.07.08.15.14.03.22-.29.21-.58.41-.88.61-.11.07-.19-.02-.27-.1-.27-.24-.49-.53-.66-.85-.13-.29-.21-.32-.42-.05-.65.85-1.3,1.7-2.14,2.37-1.05.83-1.97,1.74-2.58,2.96-.43.82-.3,1.83.31,2.52.95,1.03,2.24.85,2.86-.39.24-.49.22-1.07-.04-1.55-.26-.51-.93-.6-1.58-.27h0ZM19.92,61.9c.07.19-.05.3-.17.4-.72.61-1.67.89-2.61.77-1.97-.24-3.16-2.11-2.8-3.95.08-.43.27-.55.67-.42.21.07.51-.01.63.21.14.26-.21.32-.29.51-.39.89-.12,2.33.97,2.89.88.45,1.77.35,2.66.04.32-.11.5-.52.95-.45ZM50.08,61.9c-.07.19.05.3.17.4.72.61,1.67.89,2.61.77,1.97-.24,3.16-2.11,2.8-3.95-.08-.43-.27-.55-.67-.42-.21.07-.51-.01-.63.21-.14.26.21.32.29.51.39.89.12,2.33-.97,2.89-.88.45-1.77.35-2.66.04-.32-.11-.5-.52-.95-.45ZM34.97,55.51c-.62-.01-1.24-.14-1.85-.32-.24-.09-.47-.21-.67-.36-.28-.18-.53-.22-.81,0-.09.07-.19.16-.33.09-.12-.07-.18-.22-.12-.35.18-.55,0-.82-.54-1.09-.87-.43-1.18-1.33-1.47-2.19-.22-.68-.3-1.39-.25-2.1,0-.15.03-.29.08-.43.16-.34.23-.62-.18-.86-.25-.15-.15-.44.17-.46.54-.03.66-.34.75-.79.1-.53.37-1.01.77-1.37.7-.67,1.53-1.17,2.44-1.48.26-.07.54-.09.81-.06.09-.02.18-.02.27,0,.31.1.56-.03.7-.28.1-.17.18-.26.26-.27h0c.08,0,.16.1.26.27.14.26.39.38.7.28.09-.02.18-.02.27,0,.27-.03.54-.01.81.06.91.31,1.75.82,2.44,1.48.4.36.67.84.77,1.37.09.45.21.76.75.79.32.02.42.31.17.46-.41.25-.34.52-.18.86.05.14.08.28.08.43.05.71-.04,1.42-.25,2.1-.29.86-.6,1.76-1.47,2.19-.54.27-.72.54-.54,1.09.06.13,0,.28-.12.35-.14.06-.24-.02-.33-.09-.27-.22-.53-.18-.81,0-.21.15-.43.27-.67.36-.62.18-1.24.31-1.88.32h-.03ZM35.03,55.19c.68,0,1.37-.15,2.04-.49.29-.14.52-.38.66-.67.17-.36-.07-.66-.27-.94-.33-.45-.66-.9-.95-1.38.29.11.41.41.58.6s.29.42.45.61c.24.32.62.51,1.02.51.43,0,.82-.21,1.06-.57.8-1.1,1.17-2.46,1.04-3.82-.08-.93-.74-1.25-1.61-.77-.39.22-.83.25-1.21.44-.07.03-.18.07-.22-.02-.05-.13.06-.16.15-.19.52-.18,1.03-.36,1.55-.54.63-.21.86-.69.62-1.32-.44-1.15-1.39-1.75-2.43-2.25-.58-.32-1.26-.38-1.89-.17-.23.06-.41.24-.46.48-.03.14-.08.19-.13.18h0c-.06,0-.11-.04-.14-.18-.05-.23-.23-.42-.46-.48-.62-.21-1.31-.15-1.89.17-1.04.5-1.99,1.1-2.43,2.25-.24.63,0,1.11.62,1.32.52.18,1.03.36,1.55.54.08.03.19.07.15.19-.04.09-.15.06-.22.02-.39-.19-.83-.23-1.21-.44-.88-.48-1.53-.17-1.61.77-.13,1.36.23,2.72,1.04,3.82.23.35.63.57,1.06.57.4,0,.78-.19,1.02-.51.16-.19.28-.42.45-.61s.29-.49.58-.6c-.3.48-.63.93-.95,1.38-.21.28-.44.58-.27.94.14.29.37.53.66.67.68.34,1.38.5,2.07.49h.03s0,0,0,0ZM34.96,54.53c-.41,0-.82-.02-1.22-.11-1.27-.26-1.03-1.04-.58-1.87.05-.09.15-.18.21-.28.06-.1.05-.26.19-.16.11.07.01.19-.03.28-.14.31-.36.58-.44.94-.1.43.05.73.49.84.47.11.94.17,1.42.18h.04c.46-.01.92-.07,1.38-.18.44-.11.58-.41.49-.84-.08-.35-.3-.62-.44-.94-.04-.09-.14-.21-.03-.28.14-.09.13.06.19.16.06.1.16.19.21.28.45.83.69,1.6-.58,1.87-.42.09-.84.11-1.26.11h-.04s0,0,0,0ZM36.86,51.45c.07.47.92,1.38,1.35,1.45.45.07.89-.22,1.02-.66.27-.81.54-1.62.77-2.44.18-.63-.12-1.18-.66-1.16-.49,0-.97.06-1.44.21-.06.03-.22.02-.15.18.03.06.08.1.15.1.03,0,.07-.01.1-.03.36-.22.77-.21,1.16-.25.04-.01.08-.02.12-.02.28,0,.51.23.51.51,0,.01,0,.03,0,.04.02.17,0,.35-.03.52-.22.73-.44,1.46-.7,2.17-.26.71-.81.82-1.34.26-.27-.29-.54-.58-.8-.87-.01,0-.03,0-.04,0h0ZM33.14,51.45c-.07.47-.92,1.38-1.35,1.45-.45.07-.89-.22-1.02-.66-.27-.81-.54-1.62-.77-2.44-.18-.63.12-1.18.66-1.16.49,0,.97.06,1.44.21.06.03.22.02.15.18-.03.06-.08.1-.15.1-.03,0-.07-.01-.1-.03-.36-.22-.77-.21-1.16-.25-.04-.01-.08-.02-.12-.02-.28,0-.51.23-.51.51,0,.01,0,.03,0,.04-.02.17,0,.35.03.52.22.73.44,1.46.7,2.17.26.71.81.82,1.34.26.27-.29.54-.58.8-.87.01,0,.03,0,.04,0h0ZM34.99,52.85c-.14-.32-.2-.73-.2-1.07-.02-.46-.04-.78-.49-1.05-.49-.29-.91-.39-1.44-.22-.31.07-.62.12-.94.15.34-.39.79-.54,1.21-.75.52-.26.82-1.16.53-1.67-.25-.42-.46-.87-.62-1.34.29.1.4.32.57.47s.32.36.49.53c.24.26.57.39.91.38h.02c.33,0,.65-.12.89-.38.16-.17.32-.38.49-.53.16-.15.28-.37.57-.47-.16.47-.37.91-.62,1.34-.29.51.01,1.41.53,1.67.42.21.87.36,1.21.75-.32-.02-.63-.07-.94-.15-.53-.17-.95-.07-1.44.22-.45.27-.47.58-.49,1.05,0,.35-.06.77-.21,1.09v-.02s0,0,0,0ZM34.98,50.48c-.08,0-.19,0-.19.13,0,.14.12.18.21.16h0c.09,0,.2-.03.2-.16s-.13-.13-.21-.13h-.02ZM36.08,50.24c-.12,0-.18-.3-.05-.44.04-.05.11-.05.14,0,.1.16.06.44-.08.44h0ZM33.92,50.24c.12,0,.18-.3.05-.44-.04-.05-.11-.05-.14,0-.1.16-.06.44.08.44h0ZM35.47,48.69c0-.11.06-.17.15-.15.12.04.22.14.27.26.05.1-.07.13-.15.12-.13-.02-.24-.11-.28-.23h0ZM34.53,48.69c0-.11-.06-.17-.15-.15-.12.04-.22.14-.27.26-.05.1.07.13.15.12.13-.02.24-.11.28-.23h0ZM35.52,46.82c.09-.25.13-.51.11-.77.01-.16,0-.32.02-.48.13-.76.68-.97,1.27-.47.51.47,1.07.87,1.67,1.22.61.32.58.87.02,1.26-.34.21-.69.4-1.05.57-.08.04-.21.05-.16.18s.15.1.24.06c.53-.19,1.02-.48,1.44-.85.39-.34.22-1.05-.27-1.38-.31-.21-.65-.36-.95-.58s-.58-.46-.88-.69c-.28-.27-.69-.34-1.04-.19-.39.15-.46.5-.51.84-.04.32.02.64-.08.95-.04.12.03.22.17.33ZM34.48,46.82c-.09-.25-.13-.51-.11-.77-.01-.16,0-.32-.02-.48-.13-.76-.68-.97-1.27-.47-.51.47-1.07.87-1.67,1.22-.61.32-.58.87-.02,1.26.34.21.69.4,1.05.57.08.04.21.05.16.18s-.15.1-.24.06c-.53-.19-1.02-.48-1.44-.85-.39-.34-.22-1.05.27-1.38.31-.21.65-.36.95-.58s.58-.46.88-.69c.28-.27.69-.34,1.04-.19.39.15.46.5.51.84.04.32-.02.64.08.95.04.12-.03.22-.17.33ZM35,16.36c-.05,0-.11.02-.17.07-.76.53-1.81,1-2.64,1.41-.8.41-1.67.67-2.56.76-1.78.21-3.59.17-5.36-.13-.92-.15-1.85-.26-2.72-.64-1.76-.75-3.4-1.75-4.89-2.96-1.32-1.1-2.64-2.21-4.07-3.18-1.48-1-3.07-1.63-4.84-1.71-1-.04-2,.1-2.8.76-1.46,1.21-1.98,2.83-1.79,4.69.05.5.17,1,.24,1.5.08.55-.07.85-.45.97s-.65-.03-.92-.54c-.05-.09-.1-.19-.13-.29-.03-.1-.08-.13-.17-.07-.28.17-.58.34-.85.53-.14.1-.08.23-.02.36.43.9.21,1.71-.38,2.45-.13.16-.14.26-.01.41.27.31.53.63.77.97.13.18.21.14.34.02.64-.5,1.54-.56,2.24-.14.17.1.29.42.57.19.18-.14.34-.3.51-.45.04-.04.07-.09.07-.15,0-.05-.02-.1-.05-.14-.51-.77-.28-1.6-.21-2.41,0-.09.01-.19.14-.21s.15.1.19.19c.07.23.16.45.27.66.42.72.99,1.32,1.46,2,.47.68,1.02,1.31,1.27,2.12.19.67.4,1.34.13,2.04-.19.49-.91.89-1.28.7-.3-.16-.49-.48-.49-.82,0-.2.07-.4.19-.56q.35-.49-.08-.94c-.06-.05-.11-.11-.16-.17-.14-.19-.28-.2-.46-.03-.62.57-1.32.64-2.06.25-.18-.08-.36-.17-.53-.28-.17-.12-.26-.08-.34.08-.17.33-.35.66-.53.99-.05.06-.07.14-.07.22,0,.13.07.26.19.32,1,.81,1.33,1.87,1.08,3.11-.07.34-.05.58.31.73.09.04.16.09.23.16.29.31.56.23.82-.03,1.02-1.04,2.77-.86,3.82-.06.95.73,1.64,1.76,1.94,2.93.38,1.3.36,2.69-.06,3.98-.19.63-.53,1.16-1.19,1.44-.44.2-.95.11-1.3-.22-.24-.25-.3-.84-.12-1.17.21-.39.49-.49,1.11-.37.08.02.17.06.23,0,.3-.26.31-.63.34-.99.03-.3-.21-.3-.39-.37-.82-.33-1.32-1.17-1.2-2.05.01-.04.02-.08.02-.12,0-.2-.14-.37-.34-.41-.24-.08-.49-.15-.73-.19-.16-.04-.23.05-.28.19-.26.67-.9,1.11-1.61,1.12-.65.02-.81.16-.95.81-.05.24-.02.42.25.49.29.09.53.28.68.54.29.43.49.92.58,1.44.15.76.37,1.47.92,2.05.55.58,1.17.97,2.02.87.08,0,.18,0,.18.11,0,.11-.11.19-.22.19-.35.05-.67.18-.95.4-.35.27-.72.5-1.08.75-.34.21-.75.31-1.15.26-.34-.01-.66-.19-.85-.48-.16-.26-.14-.61.06-.85.16-.22.43-.33.7-.31.13,0,.3.15.4-.03.16-.27-.04-.93-.35-1.09-.95-.48-1.03-1.22-.73-2.13.22-.65-.07-1.1-.77-1.03-.47.05-.94-.1-1.3-.41-.3-.22-.56-.51-.74-.84-.16-.32-.34-.31-.55-.09s-.41.51-.64.73c-.15.14-.13.23-.02.36.65.82.89,1.79.9,2.82-.03,1.03.28,2.05.89,2.89.49.67,1.03,1.25,1.85,1.57.65.26,1.31.22,1.97.24.64.04,1.29-.12,1.84-.46.07-.04.12-.1.21-.05s.09.15.08.25c-.06.37-.12.74-.18,1.11-.16,1.01-.51,1.91-1.44,2.47-.09.05-.15.14-.09.24.09.19.2.37.35.52.14.12.24-.11.38-.16.19-.07.39-.17.58-.25.95-.35,1.86-.35,2.64.41.19.19.43.36.62.57.09.1.23.14.36.1.15-.03.16-.17.17-.28.06-1.08.54-1.97,1.28-2.74.28-.29.22-.99-.11-1.17-.58-.31-.75-.84-.81-1.43-.1-.97.3-1.84.54-2.74.55-2.05,1.07-4.1,1.09-6.67.06-.58-.22-1.52-.41-2.49-.4-2.09-1.59-3.73-2.95-5.27-.19-.18-.29-.43-.28-.69.02-.92-.24-1.77-.57-2.62-.45-1.15-1.24-2.05-2.05-2.93-.49-.54-.76-1.19-1.05-1.83-.1-.25-.17-.51-.22-.77-.03-.12-.04-.26.13-.28.17-.03.15.11.18.21.04.2.11.39.19.57.39.79,1.02,1.36,1.71,1.87.6.45,1.07.96,1.1,1.76.01.34,1.24.81,1.49.58.05-.06.1-.13.12-.21.36-.69.89-1.13,1.7-1.14.54,0,.39-.46.48-.73.09-.27-.05-.41-.3-.52-.71-.3-1.23-.81-1.32-1.58-.08-.66-.5-.82-1-.95-.28-.08-.49-.05-.67.25-.2.33-.55.53-.94.53-.31,0-.6-.13-.81-.36-.13-.14-.25-.28-.36-.43-.34-.48-.28-1-.05-1.49.19-.48.68-.78,1.19-.72.44.02.88.13,1.27.32,1.31.64,2.56,1.4,3.73,2.27.66.49,1.23,1.09,1.99,1.46,1.06.52,2.07,1.15,3.17,1.59,1.74.67,3.55,1.17,5.39,1.47,1.66.31,3.36.34,5.02.09,1.73-.28,3.62-.82,5.07-1.84.07-.07.16-.11.25-.11h.02c.09,0,.17.04.23.11,1.45,1.02,3.34,1.57,5.07,1.84,1.67.25,3.37.22,5.02-.09,1.84-.3,3.65-.8,5.39-1.47,1.1-.44,2.11-1.07,3.17-1.59.75-.37,1.33-.97,1.99-1.46,1.17-.87,2.42-1.63,3.73-2.27.4-.19.83-.3,1.27-.32.51-.05,1,.24,1.19.72.22.48.29,1.01-.05,1.49-.11.15-.23.3-.36.43-.21.23-.5.36-.81.36-.38,0-.74-.2-.94-.53-.18-.3-.39-.32-.67-.25-.51.14-.93.29-1,.95-.09.77-.62,1.28-1.32,1.58-.25.11-.4.24-.3.52.09.27-.06.73.48.73.81,0,1.34.45,1.7,1.14.03.08.07.15.12.21.26.23,1.48-.24,1.49-.58.03-.81.5-1.32,1.1-1.76.69-.52,1.33-1.08,1.71-1.87.08-.18.15-.37.19-.57.03-.11,0-.24.18-.21.17.03.15.16.13.28-.05.26-.12.52-.22.77-.3.64-.56,1.29-1.05,1.83-.81.88-1.61,1.78-2.05,2.93-.33.85-.59,1.7-.57,2.62.01.26-.09.51-.28.69-1.37,1.54-2.55,3.18-2.95,5.27-.19.97-.47,1.91-.41,2.49.02,2.57.54,4.62,1.09,6.67.24.9.64,1.77.54,2.74-.06.59-.22,1.12-.81,1.43-.33.18-.39.89-.11,1.17.74.77,1.22,1.65,1.28,2.74,0,.12.01.26.17.28.13.04.27,0,.36-.1.18-.21.42-.37.62-.57.78-.77,1.69-.76,2.64-.41.19.07.39.18.58.25.13.05.24.28.38.16.14-.15.26-.33.35-.52.06-.1,0-.18-.09-.24-.93-.56-1.29-1.45-1.44-2.47-.06-.37-.12-.74-.18-1.11-.02-.09,0-.19.08-.25s.14,0,.21.05c.55.33,1.19.49,1.84.46.66-.02,1.32.02,1.97-.24.82-.32,1.36-.9,1.85-1.57.6-.84.91-1.85.89-2.89,0-1.03.25-2,.9-2.82.1-.13.13-.22-.02-.36-.23-.22-.43-.51-.64-.73s-.4-.23-.55.09c-.18.33-.43.62-.74.84-.36.31-.83.46-1.3.41-.7-.07-1,.38-.77,1.03.3.91.22,1.65-.73,2.13-.3.15-.51.81-.35,1.09.1.17.27.03.4.03.27-.02.53.1.7.31.2.24.22.58.06.85-.19.29-.5.46-.85.48-.4.05-.81-.04-1.15-.26-.36-.25-.73-.48-1.08-.75-.27-.22-.6-.36-.95-.4-.11,0-.22-.08-.22-.19s.1-.11.18-.11c.84.09,1.47-.29,2.02-.87.55-.58.77-1.29.92-2.05.09-.52.29-1.01.58-1.44.15-.26.39-.45.68-.54.28-.07.3-.25.25-.49-.14-.65-.3-.79-.95-.81-.71,0-1.36-.45-1.61-1.12-.05-.14-.12-.23-.28-.19-.25.05-.49.11-.73.19-.2.04-.34.21-.34.41,0,.04,0,.08.02.12.11.87-.38,1.72-1.2,2.05-.18.07-.42.07-.39.37.04.36.04.73.34.99.07.06.15.02.23,0,.62-.12.9-.02,1.11.37.18.34.12.92-.12,1.17-.34.33-.86.42-1.3.22-.66-.27-.99-.81-1.19-1.44-.42-1.29-.44-2.68-.06-3.98.3-1.16.98-2.19,1.94-2.93,1.05-.8,2.8-.98,3.82.06.26.27.53.34.82.03.06-.07.14-.12.23-.16.36-.15.38-.39.31-.73-.25-1.24.08-2.31,1.08-3.11.12-.06.19-.19.19-.32,0-.08-.02-.15-.07-.22-.18-.33-.35-.66-.53-.99-.09-.16-.17-.2-.34-.08-.17.1-.35.2-.53.28-.74.39-1.44.32-2.06-.25-.18-.17-.32-.16-.46.03-.05.06-.11.12-.16.17q-.43.45-.08.94c.12.16.19.36.19.56,0,.34-.19.66-.49.82-.37.2-1.09-.2-1.28-.7-.28-.7-.07-1.37.13-2.04.24-.81.8-1.44,1.27-2.12.47-.68,1.04-1.28,1.46-2,.11-.21.2-.44.27-.66.04-.09.07-.21.19-.19s.14.12.14.21c.07.82.3,1.64-.21,2.41-.03.04-.05.09-.05.14,0,.06.02.11.07.15.17.15.33.31.51.45.28.22.4-.09.57-.19.7-.42,1.6-.36,2.24.14.14.12.21.16.34-.02.24-.34.51-.65.77-.97.13-.15.11-.25-.01-.41-.59-.74-.81-1.55-.38-2.45.06-.13.13-.26-.02-.36-.27-.19-.57-.35-.85-.53-.09-.06-.14-.03-.17.07-.04.1-.08.19-.13.29-.27.51-.53.66-.92.54s-.53-.42-.45-.97c.07-.5.19-1,.24-1.5.18-1.86-.33-3.48-1.79-4.69-.8-.66-1.8-.8-2.8-.76-1.78.08-3.37.71-4.84,1.71-1.43.97-2.74,2.08-4.07,3.18-1.48,1.21-3.13,2.21-4.89,2.96-.88.38-1.81.49-2.72.64-1.77.29-3.57.33-5.36.13-.89-.1-1.76-.36-2.56-.76-.83-.41-1.88-.88-2.64-1.41-.06-.05-.11-.07-.16-.07h0s0,0,0,0ZM59.53,42.47c.01.75.01,1.35-.19,1.93-.04.12-.13.31.08.37s.19-.13.25-.27c.36-.91.17-1.86.21-2.8,0-.08-.02-.16-.04-.24-.01-.09-.1-.16-.19-.15-.1.02-.1.11-.1.19,0,.37,0,.74,0,.96h0ZM10.47,42.47c-.01.75-.01,1.35.19,1.93.04.12.13.31-.08.37s-.19-.13-.25-.27c-.36-.91-.17-1.86-.21-2.8,0-.08.02-.16.04-.24.01-.09.1-.16.19-.15.1.02.1.11.1.19,0,.37,0,.74,0,.96h0ZM60.48,42.12c-.08.02-.13.09-.13.17,0,.03,0,.06.02.09.26.6.24,1.26.44,1.87.04.13.08.34.27.28.19-.05.11-.25.08-.39-.14-.61-.17-1.25-.47-1.81-.05-.08-.06-.21-.21-.21ZM9.52,42.12c.08.02.13.09.13.17,0,.03,0,.06-.02.09-.26.6-.24,1.26-.44,1.87-.04.13-.08.34-.27.28s-.11-.25-.08-.39c.14-.61.17-1.25.47-1.81.05-.08.06-.21.21-.21h0ZM9.11,24.48c-.13-1.36-.59-2.67-1.35-3.81-.58-.85-1.23-1.64-1.79-2.5-.77-1.2-1.31-2.48-1.3-3.94-.01-.99.41-1.94,1.15-2.6.8-.71,1.82-.77,2.85-.61,1.39.22,2.59.89,3.75,1.66,1.55,1.03,2.94,2.26,4.53,3.23,1.24.78,2.54,1.47,3.87,2.08.26.11.53.18.79.28.11.05.3.11.24.26-.07.15-.24.06-.36.03-.84-.28-1.64-.64-2.41-1.07-.83-.45-1.67-.9-2.48-1.38-.95-.57-1.78-1.32-2.69-1.94-1.25-.86-2.46-1.79-3.87-2.4-.99-.43-2.09-.53-3.14-.29-1.01.22-1.82,1.33-1.84,2.54-.03,1.26.37,2.41.98,3.51.52.93,1.22,1.71,1.82,2.58.69.97,1.18,2.07,1.46,3.22.09.39.07.8.14,1.19.01.23.14.42.26.6.43.65,1.41,1,2.32,3.32.43,1.08.74,2.18.81,3.33.13,1.81-.07,3.62-.59,5.35-.27.9-.53,1.8-.82,2.69-.2.71-.25,1.45-.16,2.18.05.46.24.89.54,1.23.09.11.23.24.06.38-.16.13-.28-.03-.37-.13-.55-.68-.73-1.47-.7-2.32.04-1.28.61-2.43.92-3.64,1.17-4.49,1.36-7.93-2.19-11.98-.1-.12-.27.22-.18.3.29.28.87.77,1.55,1.78.49.73.74,1.45.97,2.19.48,1.58.69,3.56.2,5.47-.05.21-.05.34-.2.34-.09,0-.13-.12-.09-.34.29-1.66.4-4.61-.59-6.34-.65-1.13-1.12-1.99-1.96-2.83-.03-.03-.09-.03-.13,0-.02.02-.05.08.01.13.67.53,1.61,2.01,2.07,3.06.43.99.59,2.3.6,3.49,0,.17-.07.27-.14.28-.08.01-.18-.07-.18-.28,0-.44-.07-1.85-.35-2.76-.38-1.23-1.33-2.54-2.13-3.42-.05-.05-.11-.14-.16-.14s-.11.03-.1.08c0,.05.09.13.15.19,1.04,1.09,2.78,4.21,2.21,4.57-.07.04-.16-.07-.18-.28-.09-.79-1.44-3.27-2.45-4.16-.01,0-.06-.06-.11-.04-.05.03-.1.06-.15.08-.02.01-.02.07,0,.09.94.72,2.47,3.07,2.03,3.13-.13.02-.17-.09-.27-.32-.42-1.02-1.49-2.14-2.05-2.63-.14-.12-.28-.02-.38,0-.08.02-.11.09-.07.13.34.24,1.54,1.07,1.87,1.79.04.09.1.25.06.28-.08.06-.18-.07-.23-.14-.39-.65-1.5-1.48-1.93-1.69-.33-.16-.93-.48-1.33-.6-.57-.17-.97-1.11-.5-1.97.04-.07.07-.17.16-.16.24.04.07.54.04.74-.06.38.05.72.32.96.68.41.99.49,1.58.28.24-.09.48-.2.69-.34.01,0,.17-.12.19-.13.07-.05.14-.11.2-.17,0,0,.12-.12.13-.13.3-.33.49-.75.47-1.24-.01-.06-.02-.11-.02-.17,0-.04,0-.08,0-.11,0,0,0,0,0,0h0ZM60.89,24.48c.13-1.36.59-2.67,1.35-3.81.58-.85,1.23-1.64,1.79-2.5.77-1.2,1.31-2.48,1.3-3.94.01-.99-.41-1.94-1.15-2.6-.8-.71-1.82-.77-2.85-.61-1.39.22-2.59.89-3.75,1.66-1.55,1.03-2.94,2.26-4.53,3.23-1.24.78-2.54,1.47-3.87,2.08-.26.11-.53.18-.79.28-.11.05-.3.11-.24.26.07.15.24.06.36.03.84-.28,1.64-.64,2.41-1.07.83-.45,1.67-.9,2.48-1.38.95-.57,1.78-1.32,2.69-1.94,1.25-.86,2.46-1.79,3.87-2.4.99-.43,2.09-.53,3.14-.29,1.01.22,1.82,1.33,1.84,2.54.03,1.26-.37,2.41-.98,3.51-.52.93-1.22,1.71-1.82,2.58-.69.97-1.18,2.07-1.46,3.22-.09.39-.07.8-.14,1.19-.01.23-.14.42-.26.6-.43.65-1.41,1-2.32,3.32-.43,1.08-.74,2.18-.81,3.33-.13,1.81.07,3.62.59,5.35.27.9.53,1.8.82,2.69.2.71.25,1.45.16,2.18-.05.46-.24.89-.54,1.23-.09.11-.23.24-.06.38.16.13.28-.03.37-.13.55-.68.73-1.47.7-2.32-.04-1.28-.61-2.43-.92-3.64-1.17-4.49-1.36-7.93,2.19-11.98.1-.12.27.22.18.3-.29.28-.87.77-1.55,1.78-.49.73-.74,1.45-.97,2.19-.48,1.58-.69,3.56-.2,5.47.05.21.05.34.2.34.09,0,.13-.12.09-.34-.29-1.66-.4-4.61.59-6.34.65-1.13,1.12-1.99,1.96-2.83.03-.03.09-.03.13,0,.02.02.05.08-.01.13-.67.53-1.61,2.01-2.07,3.06-.43.99-.59,2.3-.6,3.49,0,.17.07.27.14.28.08.01.18-.07.18-.28,0-.44.07-1.85.35-2.76.38-1.23,1.33-2.54,2.13-3.42.05-.05.11-.14.16-.14.05,0,.11.03.1.08,0,.05-.09.13-.15.19-1.04,1.09-2.78,4.21-2.21,4.57.07.04.16-.07.18-.28.09-.79,1.44-3.27,2.45-4.16.01,0,.06-.06.11-.04.05.03.1.06.15.08.02.01.02.07,0,.09-.94.72-2.47,3.07-2.03,3.13.13.02.17-.09.27-.32.42-1.02,1.49-2.14,2.05-2.63.14-.12.28-.02.38,0,.08.02.11.09.07.13-.34.24-1.54,1.07-1.87,1.79-.04.09-.1.25-.06.28.08.06.18-.07.23-.14.39-.65,1.5-1.48,1.93-1.69.33-.16.93-.48,1.33-.6.57-.17.97-1.11.5-1.97-.04-.07-.07-.17-.16-.16-.24.04-.07.54-.04.74.06.38-.05.72-.32.96-.68.41-.99.49-1.58.28-.24-.09-.48-.2-.69-.34-.01,0-.17-.12-.19-.13-.07-.05-.14-.11-.2-.17,0,0-.12-.12-.13-.13-.3-.33-.49-.75-.47-1.24.01-.06.02-.11.02-.17,0-.04,0-.08,0-.11,0,0,0,0,0,0h0ZM63.89,37.94v1.23c0,.46.17.6.62.53.05,0,.1-.02.16-.02.17,0,.34.01.41.19s-.07.3-.2.39c-.36.25-.83.27-1.21.05-.49-.26-.95-.57-1.48-.89.7-.34,1.31-.72,1.71-1.48ZM6.11,37.94v1.23c0,.46-.17.6-.62.53-.05,0-.1-.02-.16-.02-.17,0-.34.01-.41.19s.07.3.2.39c.36.25.83.27,1.21.05.49-.26.95-.57,1.48-.89-.7-.34-1.31-.72-1.71-1.48ZM66.61,39.22c-.13.02-.31.03-.32.24s.14.23.3.23h0c.16,0,.29-.13.29-.29,0,0,0-.01,0-.02.01-.17-.12-.18-.27-.15h0ZM3.39,39.22c.13.02.31.03.32.24,0,.21-.14.23-.3.23h0c-.16,0-.29-.13-.29-.29,0,0,0-.01,0-.02-.01-.17.12-.18.27-.15h0ZM3.51,39c-.34,0-.7-.43-.65-.77.01-.11.04-.17.15-.19s.15.03.19.13c.09.19.16.42.4.51.07.03.19.06.16.19s-.17.11-.26.13ZM66.49,39c.34,0,.7-.43.65-.77-.01-.11-.04-.17-.15-.19s-.15.03-.19.13c-.09.19-.16.42-.4.51-.07.03-.19.06-.16.19s.17.11.26.13ZM66.79,37.28c-.04-.17.02-.4-.21-.39s-.14.22-.14.35c.02.35-.15.69-.45.88-.1.06-.23.15-.15.28s.22.09.35.02c.46-.26.47-.74.6-1.14ZM3.21,37.28c.04-.17-.02-.4.21-.39s.14.22.14.35c-.02.35.15.69.45.88.1.06.23.15.15.28-.08.13-.22.09-.35.02-.46-.26-.47-.74-.6-1.14ZM32.91,38.23c-4.87,0-9.74,0-14.61-.02h-2.25c-.16,0-.39.05-.36-.23s.22-.19.36-.19h12.17s13.56-.01,13.56-.01h12.17c.15.01.34-.08.36.21s-.2.23-.36.23h-2.25c-5.57.01-11.13.02-16.7.02h-2.09s0,0,0,0ZM65.77,36.6c.02.47-.19.92-.56,1.21-.08.06-.19.16-.11.25.05.04.1.06.16.06.07,0,.14-.03.19-.09.34-.31.58-.72.69-1.16.03-.1.04-.21.01-.31-.06-.16,0-.46-.25-.43-.25.03-.13.3-.15.47h0ZM4.23,36.6c-.02.47.19.92.56,1.21.08.06.19.16.11.25-.05.04-.1.06-.16.06-.07,0-.14-.03-.19-.09-.34-.31-.58-.72-.69-1.16-.03-.1-.04-.21-.01-.31.06-.16,0-.46.25-.43.25.03.13.3.15.47ZM7.02,35.32c.12.03.27.04.25.19-.03.19-.21.26-.39.26-.14,0-.28-.02-.25-.21.03-.22.25-.18.39-.24ZM62.98,35.32c-.12.03-.27.04-.25.19.03.19.21.26.39.26.14,0,.28-.02.25-.21-.03-.22-.25-.18-.39-.24ZM62.79,34.71c-.13,0-.19-.01-.23.06-.02.07,0,.14.07.17.22.15.47.24.73.27.01,0,.02,0,.04,0,.1,0,.19-.08.19-.18.02-.12-.08-.15-.17-.19-.22-.09-.48.02-.63-.13h0ZM7.21,34.71c.13,0,.19-.01.23.06.02.07,0,.14-.07.17-.22.15-.47.24-.73.27-.01,0-.02,0-.04,0-.1,0-.19-.08-.19-.18-.02-.12.08-.15.17-.19.22-.09.48.02.63-.13ZM43.77,35.1c-.62-.01-1.24-.14-1.85-.32-.24-.09-.47-.21-.67-.36-.28-.18-.53-.22-.81,0-.09.07-.19.16-.33.09-.12-.07-.18-.22-.12-.35.18-.55,0-.82-.54-1.09-.87-.43-1.18-1.33-1.47-2.19-.22-.68-.3-1.39-.25-2.1,0-.15.03-.29.08-.43.16-.34.23-.62-.18-.86-.25-.15-.15-.44.17-.46.54-.03.66-.34.75-.79.1-.53.37-1.01.77-1.37.7-.67,1.53-1.17,2.44-1.48.26-.07.54-.09.81-.06.09-.02.18-.02.27,0,.31.1.56-.03.7-.28.1-.17.18-.26.26-.27h0c.08,0,.16.1.26.27.14.26.39.38.7.28.09-.02.18-.02.27,0,.27-.03.54-.01.81.06.91.31,1.75.82,2.44,1.48.4.36.67.84.77,1.37.09.45.21.76.75.79.32.02.42.31.17.46-.41.25-.34.52-.18.86.05.14.08.28.08.43.05.71-.04,1.42-.25,2.1-.29.86-.6,1.76-1.47,2.19-.54.27-.72.54-.54,1.09.06.13,0,.28-.12.35-.14.06-.24-.02-.33-.09-.27-.22-.53-.18-.81,0-.21.15-.43.27-.67.36-.62.18-1.24.31-1.88.32h-.03s0,0,0,0ZM26.17,35.1c-.62-.01-1.24-.14-1.85-.32-.24-.09-.47-.21-.67-.36-.28-.18-.53-.22-.81,0-.09.07-.19.16-.33.09-.12-.07-.18-.22-.12-.35.18-.55,0-.82-.54-1.09-.87-.43-1.18-1.33-1.47-2.19-.22-.68-.3-1.39-.25-2.1,0-.15.03-.29.08-.43.16-.34.23-.62-.18-.86-.25-.15-.15-.44.17-.46.54-.03.66-.34.75-.79.1-.53.37-1.01.77-1.37.7-.67,1.53-1.17,2.44-1.48.26-.07.54-.09.81-.06.09-.02.18-.02.27,0,.31.1.56-.03.7-.28.1-.17.18-.26.26-.27h0c.08,0,.16.1.26.27.14.26.39.38.7.28.09-.02.18-.02.27,0,.27-.03.54-.01.81.06.91.31,1.75.82,2.44,1.48.4.36.67.84.77,1.37.09.45.21.76.75.79.32.02.42.31.17.46-.41.25-.34.52-.18.86.05.14.08.28.08.43.05.71-.04,1.42-.25,2.1-.29.86-.6,1.76-1.47,2.19-.54.27-.72.54-.54,1.09.06.13,0,.28-.12.35-.14.06-.24-.02-.33-.09-.27-.22-.53-.18-.81,0-.21.15-.43.27-.67.36-.62.18-1.24.31-1.88.32h-.03s0,0,0,0ZM26.23,34.78c.68,0,1.37-.15,2.04-.49.29-.14.52-.38.66-.67.17-.36-.07-.66-.27-.94-.33-.45-.66-.9-.95-1.38.29.11.41.41.58.6.17.19.29.42.45.61.24.32.62.51,1.02.51.43,0,.82-.21,1.06-.57.8-1.1,1.17-2.46,1.04-3.82-.08-.93-.74-1.25-1.61-.77-.39.22-.83.25-1.21.44-.07.03-.18.07-.22-.02-.05-.13.06-.16.15-.19.52-.18,1.03-.36,1.55-.54.63-.21.86-.69.62-1.32-.44-1.15-1.39-1.75-2.43-2.25-.58-.32-1.26-.38-1.89-.17-.23.06-.41.24-.46.48-.03.14-.08.19-.13.18h0c-.06,0-.11-.04-.14-.18-.05-.23-.23-.42-.46-.48-.62-.21-1.31-.15-1.89.17-1.04.5-1.99,1.1-2.43,2.25-.24.63,0,1.11.62,1.32.52.18,1.03.36,1.55.54.08.03.19.07.15.19-.04.09-.15.06-.22.02-.39-.19-.83-.23-1.21-.44-.88-.48-1.53-.17-1.61.77-.13,1.36.23,2.72,1.04,3.82.23.35.63.57,1.06.57.4,0,.78-.19,1.02-.51.16-.19.28-.42.45-.61.17-.19.29-.49.58-.6-.3.48-.63.93-.95,1.38-.21.28-.44.58-.27.94.14.29.37.53.66.67.68.34,1.38.5,2.07.49h.03s0,0,0,0ZM43.84,34.78c.68,0,1.37-.15,2.04-.49.29-.14.52-.38.66-.67.17-.36-.07-.66-.27-.94-.33-.45-.66-.9-.95-1.38.29.11.41.41.58.6.17.19.29.42.45.61.24.32.62.51,1.02.51.43,0,.82-.21,1.06-.57.8-1.1,1.17-2.46,1.04-3.82-.08-.93-.74-1.25-1.61-.77-.39.22-.83.25-1.21.44-.07.03-.18.07-.22-.02-.05-.13.06-.16.15-.19.52-.18,1.03-.36,1.55-.54.63-.21.86-.69.62-1.32-.44-1.15-1.39-1.75-2.43-2.25-.58-.32-1.26-.38-1.89-.17-.23.06-.41.24-.46.48-.03.14-.08.19-.13.18h0c-.06,0-.11-.04-.14-.18-.05-.23-.23-.42-.46-.48-.62-.21-1.31-.15-1.89.17-1.04.5-1.99,1.1-2.43,2.25-.24.63,0,1.11.62,1.32.52.18,1.03.36,1.55.54.08.03.19.07.15.19-.04.09-.15.06-.22.02-.39-.19-.83-.23-1.21-.44-.88-.48-1.53-.17-1.61.77-.13,1.36.23,2.72,1.04,3.82.23.35.63.57,1.06.57.4,0,.78-.19,1.02-.51.16-.19.28-.42.45-.61.17-.19.29-.49.58-.6-.3.48-.63.93-.95,1.38-.21.28-.44.58-.27.94.14.29.37.53.66.67.68.34,1.38.5,2.07.49h.03s0,0,0,0ZM63.49,34.58c.23,0,.39.02.4-.13s-.12-.19-.24-.19c-.33,0-.57-.19-.83-.35-.09-.05-.19-.15-.27-.01-.02.03-.03.07-.03.11,0,.07.04.14.1.18.25.2.55.34.86.41h0ZM6.51,34.58c-.23,0-.39.02-.4-.13s.12-.19.24-.19c.33,0,.57-.19.83-.35.09-.05.19-.15.27-.01.02.03.03.07.03.11,0,.07-.04.14-.1.18-.25.2-.55.34-.86.41h0ZM26.16,34.11c-.41,0-.82-.02-1.22-.11-1.27-.26-1.03-1.04-.58-1.87.05-.09.15-.18.21-.28.06-.1.05-.26.19-.16.11.07.01.19-.03.28-.14.31-.36.58-.44.94-.1.43.05.73.49.84.47.11.94.17,1.42.18h.04c.46-.01.92-.07,1.38-.18.44-.11.58-.41.49-.84-.08-.35-.3-.62-.44-.94-.04-.09-.14-.21-.03-.28.14-.09.13.06.19.16.06.1.16.19.21.28.45.83.69,1.6-.58,1.87-.42.09-.84.11-1.26.11h-.04s0,0,0,0ZM43.76,34.11c-.41,0-.82-.02-1.22-.11-1.27-.26-1.03-1.04-.58-1.87.05-.09.15-.18.21-.28.06-.1.05-.26.19-.16.11.07.01.19-.03.28-.14.31-.36.58-.44.94-.1.43.05.73.49.84.47.11.94.17,1.42.18h.04c.46-.01.92-.07,1.38-.18.44-.11.58-.41.49-.84-.08-.35-.3-.62-.44-.94-.04-.09-.14-.21-.03-.28.14-.09.13.06.19.16.06.1.16.19.21.28.45.83.69,1.6-.58,1.87-.42.09-.84.11-1.26.11h-.04s0,0,0,0ZM63.93,34.01c.12,0,.21-.04.24-.17s-.06-.16-.16-.18c-.4-.08-.77-.3-1.04-.61-.08-.08-.17-.16-.27-.07-.11.09,0,.19.05.27.29.42.74.58,1.18.76ZM6.07,34.01c-.12,0-.21-.04-.24-.17s.06-.16.16-.18c.4-.08.77-.3,1.04-.61.08-.08.17-.16.27-.07s0,.19-.05.27c-.29.42-.74.58-1.18.76ZM5.5,33.37c-.09,0-.19-.04-.22-.13,0-.01,0-.02,0-.03,0-.11.08-.21.2-.22.57-.02,1.01-.31,1.43-.64.05-.04.12-.08.17-.01.06.06.06.16,0,.22-.43.44-.98.72-1.58.82h0ZM64.5,33.37c.09,0,.19-.04.22-.13,0-.01,0-.02,0-.03,0-.11-.08-.21-.2-.22-.57-.02-1.01-.31-1.43-.64-.05-.04-.12-.08-.17-.01-.06.06-.06.16,0,.22.43.44.98.72,1.58.82h0ZM16.99,31.69c-.03.45.03.91-.08,1.36-.03.11-.06.27-.22.23-.16-.04-.12-.19-.1-.3.25-1.23.06-2.45-.08-3.67-.19-1.73-.89-3.26-1.79-4.72-.33-.5-.7-.97-1.12-1.4-.09-.1-.32-.18-.19-.33s.27.03.39.13c1.17,1.14,1.94,2.54,2.49,4.05.54,1.49.78,3.07.7,4.65h0ZM53.01,31.69c.03.45-.03.91.08,1.36.03.11.06.27.22.23s.12-.19.1-.3c-.25-1.23-.06-2.45.08-3.67.19-1.73.89-3.26,1.79-4.72.33-.5.7-.97,1.12-1.4.09-.1.32-.18.19-.33s-.27.03-.39.13c-1.17,1.14-1.94,2.54-2.49,4.05-.54,1.49-.78,3.07-.7,4.65h0ZM24.33,31.03c-.07.47-.92,1.38-1.35,1.45-.45.07-.89-.22-1.02-.66-.27-.81-.54-1.62-.77-2.44-.18-.63.12-1.18.66-1.16.49,0,.97.06,1.44.21.06.03.22.02.15.18-.03.06-.08.1-.15.1-.03,0-.07-.01-.1-.03-.36-.22-.77-.21-1.16-.25-.04-.01-.08-.02-.12-.02-.28,0-.51.23-.51.51,0,.01,0,.03,0,.04-.02.17,0,.35.03.52.22.73.44,1.46.7,2.17.26.71.81.82,1.34.26.27-.29.54-.58.8-.87.01,0,.03,0,.04,0h0ZM28.06,31.03c.07.47.92,1.38,1.35,1.45.45.07.89-.22,1.02-.66.27-.81.54-1.62.77-2.44.18-.63-.12-1.18-.66-1.16-.49,0-.97.06-1.44.21-.06.03-.22.02-.15.18.03.06.08.1.15.1.03,0,.07-.01.1-.03.36-.22.77-.21,1.16-.25.04-.01.08-.02.12-.02.28,0,.51.23.51.51,0,.01,0,.03,0,.04.02.17,0,.35-.03.52-.22.73-.44,1.46-.7,2.17-.26.71-.81.82-1.34.26-.27-.29-.54-.58-.8-.87-.01,0-.03,0-.04,0h0ZM45.67,31.03c.07.47.92,1.38,1.35,1.45.45.07.89-.22,1.02-.66.27-.81.54-1.62.77-2.44.18-.63-.12-1.18-.66-1.16-.49,0-.97.06-1.44.21-.06.03-.22.02-.15.18.03.06.08.1.15.1.03,0,.07-.01.1-.03.36-.22.77-.21,1.16-.25.04-.01.08-.02.12-.02.28,0,.51.23.51.51,0,.01,0,.03,0,.04.02.17,0,.35-.03.52-.22.73-.44,1.46-.7,2.17s-.81.82-1.34.26c-.27-.29-.54-.58-.8-.87-.01,0-.03,0-.04,0h0ZM41.94,31.03c-.07.47-.92,1.38-1.35,1.45-.45.07-.89-.22-1.02-.66-.27-.81-.54-1.62-.77-2.44-.18-.63.12-1.18.66-1.16.49,0,.97.06,1.44.21.06.03.22.02.15.18-.03.06-.08.1-.15.1-.03,0-.07-.01-.1-.03-.36-.22-.77-.21-1.16-.25-.04-.01-.08-.02-.12-.02-.28,0-.51.23-.51.51,0,.01,0,.03,0,.04-.02.17,0,.35.03.52.22.73.44,1.46.7,2.17.26.71.81.82,1.34.26.27-.29.54-.58.8-.87.01,0,.03,0,.04,0h0ZM26.19,32.43c-.14-.32-.2-.73-.2-1.07-.02-.46-.04-.78-.49-1.05-.49-.29-.91-.39-1.44-.22-.31.07-.62.12-.94.15.34-.39.79-.54,1.21-.75.52-.26.82-1.16.53-1.67-.25-.42-.46-.87-.62-1.34.29.1.4.32.57.47s.32.36.49.53c.24.26.57.39.91.38h.02c.33,0,.65-.12.89-.38.16-.17.32-.38.49-.53.16-.15.28-.37.57-.47-.16.47-.37.91-.62,1.34-.29.51.01,1.41.53,1.67.42.21.87.36,1.21.75-.32-.02-.63-.07-.94-.15-.53-.17-.95-.07-1.44.22-.45.27-.47.58-.49,1.05,0,.35-.06.77-.21,1.09v-.02s0,0,0,0ZM43.8,32.43c-.14-.32-.2-.73-.2-1.07-.02-.46-.04-.78-.49-1.05-.49-.29-.91-.39-1.44-.22-.31.07-.62.12-.94.15.34-.39.79-.54,1.21-.75.52-.26.82-1.16.53-1.67-.25-.42-.46-.87-.62-1.34.29.1.4.32.57.47s.32.36.49.53c.24.26.57.39.91.38h.02c.33,0,.65-.12.89-.38.16-.17.32-.38.49-.53.16-.15.28-.37.57-.47-.16.47-.37.91-.62,1.34-.29.51.01,1.41.53,1.67.42.21.87.36,1.21.75-.32-.02-.63-.07-.94-.15-.53-.17-.95-.07-1.44.22-.45.27-.47.58-.49,1.05,0,.35-.06.77-.21,1.09v-.02s0,0,0,0ZM26.2,28.25c.47,0,.86.38.86.86s-.38.86-.86.86-.86-.38-.86-.86.38-.86.86-.86ZM43.8,28.25c.47,0,.86.38.86.86s-.38.86-.86.86-.86-.38-.86-.86.38-.86.86-.86ZM43.28,26.4c-.09-.25-.13-.51-.11-.77-.01-.16,0-.32-.02-.48-.13-.76-.68-.97-1.27-.47-.51.47-1.07.87-1.67,1.22-.61.32-.58.87-.02,1.26.34.21.69.4,1.05.57.08.04.21.05.16.18s-.15.1-.24.06c-.53-.19-1.02-.48-1.44-.85-.39-.34-.22-1.05.27-1.38.31-.21.65-.36.95-.58s.58-.46.88-.69c.28-.27.69-.34,1.04-.19.39.15.46.5.51.84.04.32-.02.64.08.95.04.12-.03.22-.17.33h0ZM44.32,26.4c.09-.25.13-.51.11-.77.01-.16,0-.32.02-.48.13-.76.68-.97,1.27-.47.51.47,1.07.87,1.67,1.22.61.32.58.87.02,1.26-.34.21-.69.4-1.05.57-.08.04-.21.05-.16.18s.15.1.24.06c.53-.19,1.02-.48,1.44-.85.39-.34.22-1.05-.27-1.38-.31-.21-.65-.36-.95-.58-.31-.22-.58-.46-.88-.69-.28-.27-.69-.34-1.04-.19-.39.15-.46.5-.51.84-.04.32.02.64-.08.95-.04.12.03.22.17.33h0ZM25.68,26.4c-.09-.25-.13-.51-.11-.77-.01-.16,0-.32-.02-.48-.13-.76-.68-.97-1.27-.47-.51.47-1.07.87-1.67,1.22-.61.32-.58.87-.02,1.26.34.21.69.4,1.05.57.08.04.21.05.16.18s-.15.1-.24.06c-.53-.19-1.02-.48-1.44-.85-.39-.34-.22-1.05.27-1.38.31-.21.65-.36.95-.58s.58-.46.88-.69c.28-.27.69-.34,1.04-.19.39.15.46.5.51.84.04.32-.02.64.08.95.04.12-.03.22-.17.33h0ZM26.72,26.4c.09-.25.13-.51.11-.77.01-.16,0-.32.02-.48.13-.76.68-.97,1.27-.47.51.47,1.07.87,1.67,1.22.61.32.58.87.02,1.26-.34.21-.69.4-1.05.57-.08.04-.21.05-.16.18s.15.1.24.06c.53-.19,1.02-.48,1.44-.85.39-.34.22-1.05-.27-1.38-.31-.21-.65-.36-.95-.58s-.58-.46-.88-.69c-.28-.27-.69-.34-1.04-.19-.39.15-.46.5-.51.84-.04.32.02.64-.08.95-.04.12.03.22.17.33h0ZM52.63,27.31c-.01.1-.01.19.09.21s.16-.09.19-.18c.14-.4.31-.79.5-1.18.51-.95,1.09-1.87,1.71-2.74.23-.27.49-.53.76-.76.08-.07.15-.15.22-.24.06-.09.1-.21,0-.29s-.21,0-.28.08c-.5.57-1.07,1.1-1.47,1.74-.57.92-1.1,1.86-1.57,2.84-.09.16-.14.34-.15.52h0ZM17.37,27.31c.01.1.01.19-.09.21s-.16-.09-.19-.18c-.14-.4-.31-.79-.5-1.18-.51-.95-1.09-1.87-1.71-2.74-.23-.27-.49-.53-.76-.76-.08-.07-.15-.15-.22-.24-.06-.09-.1-.21,0-.29s.21,0,.28.08c.5.57,1.07,1.1,1.47,1.74.57.92,1.1,1.86,1.57,2.84.09.16.14.34.15.52h0ZM52.07,25.6c-.01.07,0,.11.07.13.08.02.16-.02.2-.09.24-.32.49-.63.72-.95.69-1,1.47-1.93,2.32-2.79.04-.04.08-.07.12-.1.07-.04.12-.12.12-.2,0-.05-.02-.11-.05-.15-.12-.14-.24-.03-.33.07-.39.44-.77.87-1.16,1.32-.7.81-1.33,1.67-1.89,2.58-.03.07-.08.13-.12.19ZM17.93,25.6c.01.07,0,.11-.07.13-.08.02-.16-.02-.2-.09-.24-.32-.49-.63-.72-.95-.69-1-1.47-1.93-2.32-2.79-.04-.04-.08-.07-.12-.1-.07-.04-.12-.12-.12-.2,0-.05.02-.11.05-.15.12-.14.24-.03.33.07.39.44.77.87,1.16,1.32.7.81,1.33,1.67,1.89,2.58.03.07.08.13.12.19ZM14.98,20.8c.1.06.19.12.28.19.53.48,1.06.97,1.59,1.45.53.48,1.03.92,1.54,1.38.11.1.33.22.19.39s-.31,0-.43-.12c-1.02-1.03-2.09-2-3.22-2.92-.08-.07-.17-.13-.12-.26.02-.07.1-.12.17-.11ZM55.02,20.8c-.1.06-.19.12-.28.19-.53.48-1.06.97-1.59,1.45-.53.48-1.03.92-1.54,1.38-.11.1-.33.22-.19.39s.31,0,.43-.12c1.02-1.03,2.09-2,3.22-2.92.08-.07.17-.13.12-.26-.02-.07-.1-.12-.17-.11ZM50.75,23.04c.09.19.21.15.35.05.5-.34,1-.67,1.49-1.02.65-.46,1.28-.94,1.97-1.36.13-.08.34-.16.23-.35-.11-.19-.3-.07-.44.03l-3.41,2.4c-.09.06-.19.1-.19.25h0ZM19.25,23.04c-.09.19-.21.15-.35.05-.5-.34-1-.67-1.49-1.02-.65-.46-1.28-.94-1.97-1.36-.13-.08-.34-.16-.23-.35s.3-.07.44.03l3.41,2.4c.09.06.19.1.19.25ZM15.85,19.55l.15.09c1.36.8,2.75,1.53,4.19,2.18.05.02.1.04.15.07.11.05.18.14.12.26-.06.12-.15.06-.25.03-.36-.1-.71-.24-1.03-.43-1.07-.56-2.13-1.12-3.19-1.69-.1-.06-.2-.12-.3-.19-.08-.06-.06-.14-.03-.22s.09-.09.19-.09h0ZM54.15,19.55l-.15.09c-1.36.8-2.75,1.53-4.19,2.18-.05.02-.1.04-.15.07-.11.05-.18.14-.12.26.06.12.15.06.25.03.36-.1.71-.24,1.03-.43,1.07-.56,2.13-1.12,3.19-1.69.1-.06.2-.12.3-.19.08-.06.06-.14.03-.22-.03-.08-.09-.09-.19-.09h0ZM28.19,21.6s-.02-.26.01-.35c.04-.12.19-.17.3-.03.1.13.1.32,0,.45-.1.12-.23.1-.31-.07h0ZM41.81,21.6s.02-.26-.01-.35c-.04-.12-.19-.17-.3-.03-.1.13-.1.32,0,.45.1.12.23.1.31-.07h0ZM33.22,21.6c-.1-.22-.11-1.1-.02-1.3.04-.09.09-.18.19-.15.08.03.13.11.12.19,0,.41,0,.82,0,1.23,0,.08-.05.16-.14.17-.1.01-.14-.07-.17-.14h0ZM36.78,21.6c.1-.22.11-1.1.02-1.3-.04-.09-.09-.18-.19-.15-.08.03-.13.11-.12.19,0,.41,0,.82,0,1.23,0,.08.05.16.14.17.1.01.14-.07.17-.14h0ZM28.05,21.25c.03.07.03.28,0,.34-.05.15-.12.18-.24.12s-.11-.51,0-.55c.02-.01.05-.02.07-.02.07,0,.13.05.16.11h0ZM41.95,21.25c-.03.07-.03.28,0,.34.05.15.12.18.24.12s.11-.51,0-.55c-.02-.01-.05-.02-.07-.02-.07,0-.13.05-.16.11h0ZM40.92,21.2c-.03.07-.03.3,0,.37.06.16.13.2.27.13.13-.07.13-.55,0-.61-.03-.01-.05-.02-.08-.02-.08,0-.15.05-.17.12h0ZM29.08,21.2c.03.07.03.3,0,.37-.06.16-.13.2-.27.13-.13-.07-.13-.55,0-.61.03-.01.05-.02.08-.02.08,0,.15.05.17.12h0ZM29.7,21.16c.03.08.03.33,0,.4-.06.17-.14.21-.29.14s-.14-.6,0-.65c.03-.01.06-.02.09-.02.08,0,.16.05.19.13h0ZM40.3,21.16c-.03.08-.03.33,0,.4.06.17.14.21.29.14s.14-.6,0-.65c-.03-.01-.06-.02-.09-.02-.08,0-.16.05-.19.13h0ZM39.95,21c-.12.01-.16.2-.16.37,0,.18.07.36.17.36.27,0,.22-.76-.02-.73h0ZM30.05,21c.12.01.16.2.16.37,0,.18-.07.36-.17.36-.27,0-.22-.76.02-.73h0ZM36.99,20.62c0,.15,0,.73,0,.88,0,.11.03.22.16.23.14.01.18-.11.18-.21.01-.31.02-.61.01-.92,0-.12-.06-.26-.2-.25-.18,0-.14.16-.15.27h0ZM33.01,20.62c0,.15,0,.73,0,.88,0,.11-.03.22-.16.23-.14.01-.18-.11-.18-.21-.01-.31-.02-.61-.01-.92,0-.12.06-.26.2-.25.18,0,.14.16.15.27h0ZM35.4,19.75c0,.29,0,1.76,0,1.76,0,.1.02.19.13.22s.16-.09.18-.18c.08-.61.09-1.22.01-1.83,0-.1-.06-.19-.17-.18s-.14.1-.14.21h0ZM34.6,19.75c0,.29,0,1.76,0,1.76,0,.1-.02.19-.13.22s-.16-.09-.18-.18c-.08-.61-.09-1.22-.01-1.83,0-.1.06-.19.17-.18s.14.1.14.21h0ZM35,21.73s-.14-.07-.15-.17c-.04-.45-.06-2.19.03-2.46.04-.13.09-.17.12-.17h0s.08.05.12.17c.09.27.07,2.01.03,2.46-.01.1-.1.17-.15.17h0s0,0,0,0ZM30.57,20.96c.1,0,.16.21.16.4,0,.19-.06.38-.18.37-.21-.02-.18-.79.02-.77h0ZM39.43,20.96c-.1,0-.16.21-.16.4,0,.19.06.38.18.37.21-.02.18-.79-.02-.77h0ZM35.91,20.02c0,.34-.03,1.52-.03,1.52,0,0,0,.01,0,.02,0,.1.08.18.17.18.12,0,.16-.09.16-.19,0-.49,0-.99.01-1.48,0-.11-.04-.19-.14-.21s-.17.09-.17.18h0ZM34.09,20.02c0,.34.03,1.52.03,1.52,0,0,0,.01,0,.02,0,.1-.08.18-.17.18-.12,0-.16-.09-.16-.19,0-.49,0-.99-.01-1.48,0-.11.04-.19.14-.21s.17.09.17.18h0ZM32.33,21.72c-.15,0-.24-.28-.25-.56,0-.28.06-.56.2-.57.28,0,.28,1.12.04,1.12h0ZM37.67,21.72c.15,0,.24-.28.25-.56,0-.28-.06-.56-.2-.57-.28,0-.28,1.12-.04,1.12h0ZM31.71,20.76c.15,0,.22.24.21.48,0,.24-.08.48-.21.48-.22,0-.26-.96,0-.96h0ZM38.29,20.76c-.15,0-.22.24-.21.48,0,.24.08.48.21.48.22,0,.26-.96,0-.96h0ZM31.14,20.9c.15,0,.22.22.22.42,0,.21-.07.41-.2.39-.32-.03-.23-.83-.02-.82h0ZM38.86,20.9c-.15,0-.22.22-.22.42,0,.21.07.41.2.39.32-.03.23-.83.02-.82h0ZM47.99,21.1c.03.2.16.19.32.16,1.02-.2,2.01-.52,2.97-.93.72-.31,1.42-.66,2.13-1,.09-.04.17-.08.25-.14.09-.07.22-.13.15-.28s-.19-.05-.3,0c-.53.25-1.05.53-1.58.76-1.17.54-2.39.95-3.65,1.24-.23.05-.26.08-.27.19ZM22.01,21.1c-.03.2-.16.19-.32.16-1.02-.2-2.01-.52-2.97-.93-.72-.31-1.42-.66-2.13-1-.09-.04-.17-.08-.25-.14-.09-.07-.22-.13-.15-.28s.19-.05.3,0c.53.25,1.05.53,1.58.76,1.17.54,2.39.95,3.65,1.24.23.05.26.08.27.19ZM46.27,20.82c.62,0,1.21-.19,1.81-.34,1.24-.3,2.47-.7,3.65-1.18.51-.21,1.01-.43,1.51-.65.12-.05.24-.1.16-.25s-.17-.12-.3-.06c-1.17.58-2.4,1.05-3.66,1.4-1.08.35-2.19.58-3.32.69-.17.01-.46-.06-.44.21.02.26.29.15.47.17.04,0,.08,0,.12,0h0ZM23.73,20.82c-.62,0-1.21-.19-1.81-.34-1.24-.3-2.47-.7-3.65-1.18-.51-.21-1.01-.43-1.51-.65-.12-.05-.24-.1-.16-.25.08-.16.17-.12.3-.06,1.17.58,2.4,1.05,3.66,1.4,1.08.35,2.19.58,3.32.69.17.01.46-.06.44.21-.02.26-.29.15-.47.17-.04,0-.08,0-.12,0h0ZM67.98,18.56c-.51-.1-.33,1.72.03,1.65.11-.02.13-.12.1-.22-.09-.4-.09-.82-.02-1.22.02-.1.01-.19-.11-.21h0ZM2.02,18.56c.51-.1.33,1.72-.03,1.65-.11-.02-.13-.12-.1-.22.09-.4.09-.82.02-1.22-.02-.1-.01-.19.11-.21ZM68.64,18.42c-.52.05-.2,1.75.15,1.59.14-.06.05-.15.03-.23-.12-.35-.16-.73-.11-1.1.01-.1.08-.28-.07-.26ZM1.36,18.42c.52.05.2,1.75-.15,1.59-.14-.06-.05-.15-.03-.23.12-.35.16-.73.11-1.1-.01-.1-.08-.28.07-.26ZM2.77,18.84c.16-.12.28.13.31.42.03.29-.03.62-.23.66-.24.05-.27-.94-.08-1.08ZM67.23,18.84c-.16-.12-.28.13-.31.42-.03.29.03.62.23.66.24.05.27-.94.08-1.08ZM3.32,18.67c.12-.12.22.04.26.26.04.22.03.49-.05.57-.22.22-.29-.76-.21-.83ZM66.68,18.67c-.12-.12-.22.04-.26.26-.04.22-.03.49.05.57.22.22.29-.76.21-.83h0ZM3.78,18.3c.15-.02.29.39.09.42-.17.02-.2-.1-.22-.22,0-.02,0-.03,0-.05,0-.08.07-.14.15-.15h0ZM66.22,18.3c-.15-.02-.29.39-.09.42.17.02.2-.1.22-.22,0-.02,0-.03,0-.05,0-.08-.07-.14-.15-.15h0ZM10.75,17.9c-.29-.27-.39-1.28-.38-1.39.01-.23.04-.33.24-.32s.14.2.14.34c-.04.43.05.86.27,1.22.05.08.09.18-.01.25s-.18-.02-.26-.09h0ZM59.25,17.9c.29-.27.39-1.28.38-1.39-.01-.23-.04-.33-.24-.32s-.14.2-.14.34c.04.43-.05.86-.27,1.22-.05.08-.09.18.01.25.11.07.18-.02.26-.09h0ZM59.03,16.1c-.02-.13.03-.29-.12-.32-.19-.03-.19.15-.22.27-.08.49-.31.95-.65,1.3-.09.09-.19.24-.05.35s.27-.01.34-.11c.35-.43.59-.94.7-1.49h0ZM10.97,16.1c.02-.13-.03-.29.12-.32.19-.03.19.15.22.27.08.49.31.95.65,1.3.09.09.19.24.05.35s-.27-.01-.34-.11c-.35-.43-.59-.94-.7-1.49h0ZM34.88,13.82c-5.02-.01-9.79,1.22-14.47,2.94l.02.16c.47.24.94.47,1.41.72.16.09.36.1.52.03,1.55-.5,3.12-.92,4.72-1.25.76-.17,1.53-.22,2.28-.39,1.34-.29,2.7-.47,4.07-.56.52-.04,1.05-.04,1.57-.02h.1c.49-.02.98-.02,1.47.02,1.37.09,2.73.27,4.07.56.75.17,1.53.22,2.28.39,1.59.33,3.17.75,4.72,1.25.17.08.36.07.52-.03.46-.25.94-.48,1.41-.72l.02-.16c-4.71-1.73-9.53-2.97-14.59-2.94h-.12s0,0,0,0ZM60.06,16.51s.04.74.07.95c0,.08.05.17.14.16s.13-.09.15-.17c.09-.34.05-.69-.09-1.01-.04-.08-.08-.15-.17-.13-.09.02-.09.11-.09.19h0ZM9.94,16.51s-.04.74-.07.95c0,.08-.05.17-.14.16s-.13-.09-.15-.17c-.09-.34-.05-.69.09-1.01.04-.08.08-.15.17-.13.09.02.09.11.09.19h0ZM60.64,16.65s0,.02,0,.03c0,.11.09.21.21.21,0,0,.02,0,.02,0,.18,0,.32-.06.34-.25.01-.15-.08-.24-.24-.25s-.31.05-.33.26h0ZM9.36,16.65s0,.02,0,.03c0,.11-.09.21-.21.21,0,0-.02,0-.02,0-.18,0-.32-.06-.34-.25-.01-.15.08-.24.24-.25.16-.01.31.05.33.26ZM45.56,14.88c.11-.35.24-1.16.45-1.16.26,0,2.23.62,3.25,1.07.19.08.19.17.13.33-.12.28-.24.57-.33.86-.07.23-.19.24-.39.16-.96-.4-1.93-.73-2.93-1.02-.13-.04-.23-.08-.18-.24h0ZM24.44,14.88c-.11-.35-.24-1.16-.45-1.16-.26,0-2.23.62-3.25,1.07-.19.08-.19.17-.13.33.12.28.24.57.33.86.07.23.19.24.39.16.96-.4,1.93-.73,2.93-1.02.13-.04.23-.08.18-.24ZM27.5,12.87c-.25-.11-2.06.44-3.02.67-.18.04-.14.14-.1.27.1.32.19.64.28.97.04.17.12.22.28.17.88-.28,1.77-.48,2.67-.67.17-.04.29-.07.23-.3-.08-.37-.09-.99-.34-1.1h0ZM42.5,12.87c.25-.11,2.06.44,3.02.67.18.04.14.14.1.27-.1.32-.19.64-.28.97-.04.17-.12.22-.28.17-.88-.28-1.77-.48-2.67-.67-.17-.04-.29-.07-.23-.3.08-.37.09-.99.34-1.1ZM34.66,10.36c-.34,0-.69,0-1.04,0-1.63,0-3.44.26-5.05.51-2.9.46-5.75,1.21-8.5,2.25-.97.37-.96.37-.56,1.29.02.04.03.07.04.11.06.31.22.31.46.19,1.52-.73,3.15-1.18,4.77-1.65,3.03-.88,6.14-1.23,9.28-1.36.31,0,.63,0,.94,0h.12c.27,0,.55,0,.82,0,3.14.12,6.25.48,9.28,1.36,1.62.47,3.24.91,4.77,1.65.25.11.4.11.46-.19.01-.04.03-.08.04-.11.4-.92.41-.93-.56-1.29-2.75-1.04-5.59-1.8-8.5-2.25-1.61-.26-3.42-.51-5.05-.51-.47,0-.93,0-1.39,0h-.34ZM31.43,13.6c.09-.09-.02-.83-.03-1.16,0-.19-.12-.19-.27-.18-1.02.15-2.03.3-3.04.42-.21.03-.25.11-.21.28.1.33.17.67.21,1.01.01.19.16.19.29.17.95-.21,1.9-.36,2.86-.46.09-.01.14-.05.19-.1h0ZM38.57,13.6c-.09-.09.02-.83.03-1.16,0-.19.12-.19.27-.18,1.02.15,2.03.3,3.04.42.21.03.25.11.21.28-.1.33-.17.67-.21,1.01-.01.19-.16.19-.29.17-.95-.21-1.9-.36-2.86-.46-.09-.01-.14-.05-.19-.1h0ZM35.29,12.19c.14-.1,2.8-.18,2.97.14.15.27.02.7.02,1.06,0,.19-.04.27-.28.26-.58-.01-2.39-.14-2.63-.14-.16,0-.25-.06-.24-.23.03-.69-.01-.97.16-1.09h0ZM34.71,12.19c-.14-.1-2.8-.18-2.97.14-.15.27-.02.7-.02,1.06,0,.19.04.27.28.26.58-.01,2.39-.14,2.63-.14.16,0,.25-.06.24-.23-.03-.69.01-.97-.16-1.09h0ZM51.12,9.26c.04-.43-.22-.83-.64-.95-.37-.09-.76.06-.97.39-.1.14-.19.29-.25.45-.35.9-.69,1.79-1.03,2.69-.07.19-.14.32-.4.22-.23-.09-.26-.16-.17-.4.38-1.04.72-2.09,1.14-3.12.16-.39.36-.71.79-.88.45-.2.78-.59.91-1.07.11-.33.24-.65.36-.97.05-.15.15-.16.28-.11s.22.11.15.26c-.07.21-.15.42-.24.61-.18.33-.32.67-.43,1.02-.04.1-.07.24.06.28s.15-.12.19-.21c.21-.52.41-1.04.61-1.55.05-.13.07-.28.26-.19.16.07.35.13.19.37-.01.02-.01.05-.03.08-.43.89-.56,1.8-.19,2.74.08.25.07.51-.03.75-.41,1.06-.82,2.12-1.23,3.17-.03.07-.03.22-.17.14-.19-.11-.45-.16-.3-.52.31-.74.59-1.49.88-2.24.15-.31.24-.64.26-.98h0s0,0,0,0ZM18.88,9.26c-.04-.43.22-.83.64-.95.37-.09.76.06.97.39.1.14.19.29.25.45.35.9.69,1.79,1.03,2.69.07.19.14.32.4.22.23-.09.26-.16.17-.4-.38-1.04-.72-2.09-1.14-3.12-.16-.39-.36-.71-.79-.88-.45-.2-.78-.59-.91-1.07-.11-.33-.24-.65-.36-.97-.05-.15-.15-.16-.28-.11s-.22.11-.15.26c.07.21.15.42.24.61.18.33.32.67.43,1.02.04.1.07.24-.06.28s-.15-.12-.19-.21c-.21-.52-.41-1.04-.61-1.55-.05-.13-.07-.28-.26-.19-.16.07-.35.13-.19.37.01.02.01.05.03.08.43.89.56,1.8.19,2.74-.08.25-.07.51.03.75.41,1.06.82,2.12,1.23,3.17.03.07.03.22.17.14.19-.11.45-.16.3-.52-.31-.74-.59-1.49-.88-2.24-.15-.31-.24-.64-.26-.98h0ZM50.23,8.66c.46,0,.69.26.58.7-.23,1.07-.74,2.05-1.08,3.09-.05.17-.17.22-.34.15-.25-.11-.51-.21-.77-.28-.24-.06-.22-.17-.15-.35.24-.58.48-1.19.72-1.78.15-.43.33-.84.54-1.24.09-.19.29-.3.51-.28h0ZM19.77,8.66c-.46,0-.69.26-.58.7.23,1.07.74,2.05,1.08,3.09.05.17.17.22.34.15.25-.11.51-.21.77-.28.24-.06.22-.17.15-.35-.24-.58-.48-1.19-.72-1.78-.15-.43-.33-.84-.54-1.24-.09-.19-.29-.3-.51-.28h0s0,0,0,0ZM24.32,11.24c-.06-.16-.1-.33-.14-.5-.04-.3-.18-.39-.46-.29-.39.12-.77.22-1.15.33-.15.04-.25.11-.18.28.13.28.07.63.35.83.01,0,.05-.02.07-.03.44-.12.87-.25,1.31-.37.13-.03.22-.07.2-.24h0s0,0,0,0ZM45.68,11.24c.06-.16.1-.33.14-.5.04-.3.18-.39.46-.29.39.12.77.22,1.15.33.15.04.25.11.18.28-.13.28-.07.63-.35.83-.01,0-.05-.02-.07-.03-.44-.12-.87-.25-1.31-.37-.13-.03-.22-.07-.2-.24h0s0,0,0,0ZM44.21,9.91c.38.09.75.19,1.12.27.33.07.39.21.28.52-.24.67-.23.68-.93.48-.05-.02-.1-.02-.16-.03-.77-.17-.87-.41-.53-1.12.06-.1.11-.13.22-.12h0s0,0,0,0ZM25.79,9.91c-.38.09-.75.19-1.12.27-.33.07-.39.21-.28.52.24.67.23.68.93.48.05-.02.1-.02.16-.03.77-.17.87-.41.53-1.12-.06-.1-.11-.13-.22-.12h0s0,0,0,0ZM42.92,5.74c.11-.15.18-.32.19-.51.07-.42.13-.85.23-1.26.05-.21.03-.58.39-.47s.1.39.06.57c-.14.73-.25,1.46.28,2.1.25.3.32.72.19,1.09-.3,1.12-.45,2.28-.76,3.4-.06.22-.13.24-.32.21-.22-.04-.22-.15-.18-.34.23-1.04.46-2.08.66-3.12.16-.85-.5-1.38-1.32-1.1-.44.15-.43.5-.51.88-.22,1.03-.45,2.05-.6,3.1-.03.23-.15.28-.33.21-.18-.07-.47.03-.41-.34.16-1.03.3-2.06.47-3.09.09-.54.28-1.04.81-1.31.49-.25.69-.67.77-1.18.06-.34.12-.68.18-1.02.03-.23.19-.22.36-.19s.23.15.16.3c-.26.56-.28,1.18-.41,1.78-.02.1-.05.23.11.32h0ZM27.08,5.74c-.11-.15-.18-.32-.19-.51-.07-.42-.13-.85-.23-1.26-.05-.21-.03-.58-.39-.47s-.1.39-.06.57c.14.73.25,1.46-.28,2.1-.25.3-.32.72-.19,1.09.3,1.12.45,2.28.76,3.4.06.22.13.24.32.21.22-.04.22-.15.18-.34-.23-1.04-.46-2.08-.66-3.12-.16-.85.5-1.38,1.32-1.1.44.15.43.5.51.88.22,1.03.45,2.05.6,3.1.03.23.15.28.33.21.18-.07.47.03.41-.34-.16-1.03-.3-2.06-.47-3.09-.09-.54-.28-1.04-.81-1.31-.49-.25-.69-.67-.77-1.18-.06-.34-.12-.68-.18-1.02-.03-.23-.19-.22-.36-.19s-.23.15-.16.3c.26.56.28,1.18.41,1.78.02.1.05.23-.11.32h0ZM27.25,6.53c-.5,0-.74.3-.63.86.19,1.03.43,2.06.64,3.08.03.16.1.3.29.24.32-.1.69-.02.95-.28.03-.03,0-.11,0-.16-.31-1.09-.38-2.23-.66-3.33-.03-.25-.24-.43-.49-.43-.03,0-.06,0-.09,0h0ZM42.75,6.53c.5,0,.74.3.63.86-.19,1.03-.43,2.06-.64,3.08-.03.16-.1.3-.29.24-.32-.1-.69-.02-.95-.28-.03-.03,0-.11,0-.16.31-1.09.38-2.23.66-3.33.03-.25.24-.43.49-.43.03,0,.06,0,.09,0h0ZM25.39,8.37s-.12.03-.19.04c-.97.24-1.92.48-2.88.73-.52.13-.52.14-.36.66.07.16.13.32.17.49.04.33.21.31.45.23.8-.24,1.61-.47,2.41-.72.3-.09.75,0,.86-.29.09-.25-.09-.61-.16-.92,0-.03,0-.05-.02-.08-.04-.13-.13-.17-.29-.14h0,0ZM44.61,8.37s.12.03.19.04c.97.24,1.92.48,2.88.73.52.13.52.14.36.66-.07.16-.13.32-.17.49-.04.33-.21.31-.45.23-.8-.24-1.61-.47-2.41-.72-.3-.09-.75,0-.86-.29-.09-.25.09-.61.16-.92,0-.03,0-.05.02-.08.04-.13.13-.17.29-.14h0ZM30.94,9.18c-.39.06-.77.1-1.14.18-.09.02-.29,0-.14.24.15.24-.01.56.18.71.19.15.51-.06.77-.05.08,0,.16,0,.24,0q.57-.06.49-.63c-.01-.05-.02-.11-.02-.16-.01-.25-.15-.32-.38-.29h0s0,0,0,0ZM39.06,9.18c.39.06.77.1,1.14.18.09.02.29,0,.14.24-.15.24.01.56-.18.71-.19.15-.51-.06-.77-.05-.08,0-.16,0-.24,0q-.57-.06-.49-.63c.01-.05.02-.11.02-.16.01-.25.15-.32.38-.29h0s0,0,0,0ZM33.28,9.64c.01-.17,0-.33-.03-.49-.07-.17-.27-.11-.39-.1-.38.03-1-.1-1.26.17-.13.13-.03.57.05.84.07.22.31.03.47.05s.51-.03.68-.02c.38.03.58-.11.48-.43h0s0,0,0,0ZM36.72,9.64c-.01-.17,0-.33.03-.49.07-.17.27-.11.39-.1.38.03,1-.1,1.26.17.13.13.03.57-.05.84-.07.22-.31.03-.47.05s-.51-.03-.68-.02c-.38.03-.58-.11-.48-.43h0s0,0,0,0ZM34.98,5.22c-.18-.02-.12-.2-.13-.32-.01-.6-.02-1.2-.03-1.81,0-.19,0-.33-.27-.32s-.34.08-.33.35c.02.44,0,.88,0,1.32.01.22-.06.43-.19.6-.46.51-.53,1.11-.47,1.76.04.37.02.74.02,1.12v1.85c0,.19,0,.37.29.35.25-.02.32-.11.31-.37-.02-1.06-.02-2.12-.03-3.17,0-.61.3-1.04.75-1.06h.11s.04,0,.07,0c.45.02.75.45.75,1.06,0,1.06,0,2.12-.03,3.17,0,.26.07.34.31.37.29.02.29-.16.29-.35v-1.85c0-.39-.02-.76.02-1.12.05-.65-.02-1.25-.47-1.76-.14-.17-.21-.38-.19-.6,0-.44-.02-.88,0-1.32.01-.27-.06-.34-.33-.35s-.27.12-.27.32c0,.6-.01,1.2-.03,1.81,0,.13.05.32-.14.32h-.02s0,0,0,0ZM35,5.85c-.27,0-.43.11-.46.44-.03.2-.05.4-.05.59,0,.84.01,1.68.02,2.52,0,.65,0,.71.5.69h.05c.46,0,.46-.07.46-.69,0-.83.02-1.68.02-2.52,0-.2-.02-.4-.05-.59-.03-.32-.19-.43-.44-.44h-.02s0,0,0,0ZM33.25,8.1v-.24c0-.5,0-.51-.51-.47-.85.06-1.86.13-2.71.21-.61.05-.61.06-.51.68.03.14.05.29.05.44-.02.3.13.35.39.33.82-.09,1.8-.21,2.63-.23.67-.02.67-.05.67-.71ZM36.75,8.1v-.24c0-.5,0-.51.51-.47.85.06,1.86.13,2.71.21.61.05.61.06.51.68-.03.14-.05.29-.05.44.02.3-.13.35-.39.33-.82-.09-1.8-.21-2.63-.23-.67-.02-.67-.05-.67-.71ZM23.56,8.45c-.13-.4-.16-.84-.39-1.11-.16-.19-.54.06-.83.1-.1.02-.21.04-.31.07q-.87.24-.53,1.07c.03.07.06.15.09.22.07.22.19.23.39.16.39-.12.75-.31,1.18-.3.16-.01.3-.09.4-.21h0ZM46.44,8.45c.13-.4.16-.84.39-1.11.16-.19.54.06.83.1.1.02.21.04.31.07q.87.24.53,1.07c-.03.07-.06.15-.09.22-.07.22-.19.23-.39.16-.39-.12-.75-.31-1.18-.3-.16-.01-.3-.09-.4-.21h0ZM46.44,8.45h0s0,0,0,0h0ZM23.56,8.45h0s0,0,0,0h0ZM44.48,7.78c.06-.28.13-.55.16-.82.02-.22.13-.22.3-.18.36.08.73.13,1.09.24.5.15.5.14.36.66-.04.17-.06.34-.08.51-.03.21-.11.31-.36.23-.39-.12-.79-.23-1.2-.31-.19-.04-.29-.13-.27-.33h0ZM25.52,7.78c-.06-.28-.13-.55-.16-.82-.02-.22-.13-.22-.3-.18-.36.08-.73.13-1.09.24-.5.15-.5.14-.36.66.04.17.06.34.08.51.03.21.11.31.36.23.39-.12.79-.23,1.2-.31.19-.04.29-.13.27-.33h0ZM38.94,6.44c-.02-.54-.02-.56.52-.52.41.03.81.11,1.21.18.1.02.25.03.19.22-.1.34-.09.77-.3,1.01s-.57-.06-.87-.06h-.04q-.71-.04-.72-.71v-.12h0ZM31.06,6.44c.02-.54.02-.56-.52-.52-.41.03-.81.11-1.21.18-.1.02-.25.03-.19.22.1.34.09.77.3,1.01s.57-.06.87-.06h.04q.71-.04.72-.71v-.12h0ZM37.61,5.88c.93,0,1.09,0,1.05.94,0,.01,0,.03,0,.04.02.21-.07.29-.28.28-.36-.02-.88-.03-1.25-.01-.3.02-.39-.08-.39-.39.02-.86,0-.86.86-.86ZM32.39,5.88c-.93,0-1.09,0-1.05.94,0,.01,0,.03,0,.04-.02.21.07.29.28.28.36-.02.88-.03,1.25-.01.3.02.39-.08.39-.39-.02-.86,0-.86-.86-.86ZM19.92,4.52c-.11-.21-.25-.5-.41-.77-.04-.08-.13-.05-.21-.02-.94.37-1.89.73-2.83,1.1-.12.04-.29.1-.19.28.15.29.16.67.48.87.01,0,.05-.01.07-.02.98-.38,1.96-.75,2.95-1.13.09-.04.2-.07.15-.3ZM50.08,4.52c.11-.21.25-.5.41-.77.04-.08.13-.05.21-.02.94.37,1.89.73,2.83,1.1.12.04.29.1.19.28-.15.29-.16.67-.48.87-.01,0-.05-.01-.07-.02-.98-.38-1.96-.75-2.95-1.13-.09-.04-.2-.07-.15-.3ZM24.66,2.58c-.03.26.18.46.21.71.01.1.11.09.19.07.87-.17,1.76-.26,2.62-.47.71-.17.71-.16.55-.87-.05-.22-.11-.31-.37-.27-.98.18-1.97.34-2.96.48-.23.03-.24.17-.25.34h0s0,0,0,0ZM45.34,2.58c.03.26-.18.46-.21.71-.01.1-.11.09-.19.07-.87-.17-1.76-.26-2.62-.47-.71-.17-.71-.16-.55-.87.05-.22.11-.31.37-.27.98.18,1.97.34,2.96.48.23.03.24.17.25.34h0s0,0,0,0ZM36.16,1.33h-2.32c-.81,0-.79,0-.77.82,0,.26.08.34.35.34.53,0,2.71,0,3.18,0,.26,0,.35-.08.35-.34.02-.82.03-.82-.77-.82h0Z"/>
</svg>