<?xml version="1.0" encoding="UTF-8"?>
<svg id="Layer_1" xmlns="http://www.w3.org/2000/svg" version="1.1" viewBox="0 0 14.17 14.17">
  <!-- Generator: Adobe Illustrator 30.3.0, SVG Export Plug-In . SVG Version: 2.1.3 Build 182)  -->
  <defs>
    <style>
      .st0 {
        fill: #fff;
      }
    </style>
  </defs>
  <path class="st0" d="M11.44,13.84l-1-.49c-.23-.11-.41-.29-.34-.56l.16-.68.59.07c.74.08.39.76.59,1.66Z"/>
  <path class="st0" d="M3.78,13.33l-1.08.52.12-1.13c.03-.3.23-.53.52-.55l.6-.05.11.53c.06.26,0,.54-.28.68Z"/>
  <path class="st0" d="M14.17,5.44c-.73.55-.89,1.4-1.6.9-.12-.09-.24-.15-.41-.18.09-.17.15-.3.19-.47.05-.34.36-.53.71-.47l1.12.22Z"/>
  <path class="st0" d="M7.06,2.38l-.59-.46c-.16-.25-.07-.53.08-.78l.49-.82.51.91c.12.22.18.47.03.68l-.52.47Z"/>
  <path class="st0" d="M1.52,6.39c-.3.21-.59.1-.81-.14l-.71-.79,1.05-.22c.28-.06.53.01.67.27l.25.63-.45.25Z"/>
  <path class="st0" d="M9.45,11.44c.29.49.35.99.06,1.46-.25.41-.77.71-1.32.63-.71-.1-1.36-.14-2.07,0-.87.16-1.69-.5-1.64-1.38.02-.36.21-.64.38-.94l1.08-1.89-1.72,1.96c-.35.39-.86.55-1.36.42-.45-.12-.85-.5-.96-1l-.24-1.11-.48-1.14c-.19-.45-.09-.95.21-1.31.28-.34.75-.56,1.23-.45l2.75.6-2.44-1.08c-.56-.25-.9-.83-.78-1.45.09-.48.44-.82.84-1.06l.93-.56.88-.74c.36-.3.84-.31,1.28-.11.36.17.68.55.73,1.02l.26,2.7.23-2.66c.04-.48.34-.87.71-1.05.46-.22.98-.18,1.37.13l1.03.84,1.1.66c.36.31.57.74.52,1.2s-.33.85-.77,1.04l-2.48,1.12,2.62-.6c.53-.12,1.02.02,1.37.41.32.36.42.88.22,1.37l-.47,1.13-.27,1.22c-.11.47-.53.76-.95.87-.48.13-.97-.05-1.3-.43l-1.03-1.18c-.25-.28-.44-.59-.77-.83l1.27,2.18ZM5.86,8.37c.23.45.56.69,1.01.75l.19,1.03.25-1.02c.48-.05.78-.36,1.01-.76.34.16.67.17,1.06.13l-.55-.31-.4-.14-.02-.65-.41-.54c.19-.27.32-.55.45-.89l-.41.33c-.13.1-.21.22-.29.36-.46-.25-.93-.23-1.37-.02-.2-.26-.42-.45-.68-.63l.37.82c-.07.29-.32.48-.6.47.35.26.24.74.2.75l-.17.06-.78.43c.38,0,.72-.06,1.11-.18Z"/>
</svg>